<?xml version="1.0" encoding="UTF-8" standalone="no"?>
<!-- Created with Inkscape (http://www.inkscape.org/) -->

<svg
   width="210mm"
   height="210mm"
   viewBox="0 0 210 210"
   version="1.1"
   id="svg1"
   xml:space="preserve"
   inkscape:version="1.3.2 (091e20e, 2023-11-25)"
   sodipodi:docname="apple.svg"
   xmlns:inkscape="http://www.inkscape.org/namespaces/inkscape"
   xmlns:sodipodi="http://sodipodi.sourceforge.net/DTD/sodipodi-0.dtd"
   xmlns="http://www.w3.org/2000/svg"
   xmlns:svg="http://www.w3.org/2000/svg"><sodipodi:namedview
     id="namedview1"
     pagecolor="#e5d0ca"
     bordercolor="#999999"
     borderopacity="1"
     inkscape:showpageshadow="2"
     inkscape:pageopacity="0"
     inkscape:pagecheckerboard="0"
     inkscape:deskcolor="#d1d1d1"
     inkscape:document-units="mm"
     inkscape:zoom="0.52349601"
     inkscape:cx="247.37533"
     inkscape:cy="324.73982"
     inkscape:window-width="1920"
     inkscape:window-height="1027"
     inkscape:window-x="1440"
     inkscape:window-y="25"
     inkscape:window-maximized="1"
     inkscape:current-layer="layer1" /><defs
     id="defs1"><inkscape:path-effect
       effect="simplify"
       id="path-effect3"
       is_visible="true"
       lpeversion="1.3"
       threshold="8.51064"
       steps="1"
       smooth_angles="360"
       helper_size="0"
       simplify_individual_paths="false"
       simplify_just_coalesce="false" /><inkscape:path-effect
       effect="simplify"
       id="path-effect1"
       is_visible="true"
       lpeversion="1.3"
       threshold="8.51064"
       steps="1"
       smooth_angles="360"
       helper_size="0"
       simplify_individual_paths="false"
       simplify_just_coalesce="false" /></defs><g
     inkscape:label="Layer 1"
     inkscape:groupmode="layer"
     id="layer1"><path
       style="font-variation-settings:normal;opacity:1;vector-effect:none;fill:#d38d5f;fill-opacity:1;stroke:none;stroke-width:0.264583px;stroke-linecap:butt;stroke-linejoin:miter;stroke-miterlimit:4;stroke-dasharray:none;stroke-dashoffset:0;stroke-opacity:1;-inkscape-stroke:none;stop-color:#000000;stop-opacity:1"
       d="M 95.063925,27.161122 C 83.547134,24.404454 72.691879,19.040174 60.845221,17.680236 c -5.410882,-0.621143 -11.041223,-0.38731 -16.188164,1.501202 -3.297008,1.209735 -5.959867,3.987889 -6.908802,7.39354 -1.354161,4.859972 -0.457027,10.013034 0.898129,14.754492 1.023368,3.580585 2.213672,7.121455 2.826252,10.80919 0.894409,5.384343 0.952146,11.278336 -1.796952,16.165617 -1.147949,2.040796 -2.399349,5.068025 -4.738257,5.091208 -4.764689,0.04723 -9.577434,1.287984 -13.650708,3.776856 -2.585953,1.580083 -5.045697,4.119222 -5.100363,7.321252 -0.03302,1.934034 0.449102,4.078009 1.82373,5.417443 5.250213,5.115791 10.560168,10.532234 13.419028,17.423054 1.118347,2.69559 1.492022,5.60537 1.805065,8.49253 1.144412,10.55476 -0.958581,21.06649 -2.607273,31.44837 -0.934719,5.88596 -0.14871,12.0344 -1.736117,17.79052 -2.082228,7.55039 -2.654229,15.64752 -0.830541,23.31181 1.372955,5.77002 4.732433,11.02705 9.533308,14.64969 1.407265,1.0619 3.062493,1.67854 4.754295,2.12997 6.445383,1.71986 13.237544,0.54185 19.468292,-1.47083 4.640969,-1.49914 9.273393,-3.1109 13.638205,-5.275 12.143416,-6.02079 26.104082,-11.53389 33.391442,-23.01815 7.73228,-12.18541 13.82643,-26.15824 25.10367,-35.29785 1.00077,-0.81107 1.4526,-1.95071 2.08963,-3.04196 2.61722,-4.48334 7.14865,-7.9303 12.28436,-8.93676 3.41785,-0.66981 6.83065,0.76809 9.48741,3.07434 1.02015,0.88557 1.07869,2.30674 1.4839,3.51845 1.31949,3.9457 2.88451,7.99276 5.8231,11.04449 1.67212,1.7365 4.22725,2.65039 6.61119,1.99452 1.66548,-0.45822 3.15604,-1.40039 4.33307,-2.69665 5.99043,-6.59723 9.23893,-15.1939 10.95693,-23.83328 1.32197,-6.64787 1.58803,-13.4379 1.8047,-20.19559 0.50706,-15.814532 2.03921,-32.216313 -2.74097,-47.360021 -5.88601,-18.647011 -13.51594,-36.978574 -24.89908,-52.98606065 -1.92174,-2.70243565 -3.4223,-5.88656795 -6.07831,-7.87215145 -5.71229,-4.2704059 -13.16422,-5.8027529 -20.17123,-4.8099539 -10.33158,1.463845 -19.82103,7.6433386 -25.62597,16.3194121 -0.84817,1.2676686 -1.28399,2.7996637 -2.21894,3.9918173 -3.91629,4.9936166 -4.75183,11.7825176 -9.099774,16.4846726 -0.855086,0.924746 -1.839648,1.731328 -2.925551,2.370697 z"
       id="path3"
       inkscape:path-effect="#path-effect3"
       inkscape:original-d="m 95.063925,27.161122 c -15.977586,-3.802635 -32.27357,-13.247429 -49.01381,-8.460373 -12.497192,3.716247 -9.174347,17.494256 -6.157799,26.767678 2.770646,9.257752 4.29392,21.672993 -4.954889,27.927058 -8.425979,-0.09374 -23.833617,5.730256 -17.094443,16.353216 7.126107,6.920273 14.731968,14.605879 15.300004,25.288159 2.075536,16.85547 -4.254232,33.23799 -4.252199,50.02865 -3.750366,13.28021 -2.918988,31.80353 10.676243,39.16755 11.801151,4.75223 24.484929,-1.18321 35.456305,-5.60938 12.264336,-6.02686 24.153974,-13.6319 33.822453,-23.23068 8.04441,-12.6769 15.68038,-25.843 26.33911,-36.56539 3.40036,-8.53534 16.40131,-15.65777 23.28912,-6.85807 2.00795,7.14591 6.70979,20.86362 16.48709,14.24697 10.72061,-10.85757 13.37015,-27.13567 13.74479,-41.8223 0.63336,-16.904793 0.69999,-34.112538 -2.62312,-50.731521 C 179.21499,31.89244 169.89275,10.430121 155.10539,-7.1955231 139.03172,-18.996924 114.97481,-8.8413735 107.19924,8.167755 c -4.7258,5.863091 -5.23925,14.92137 -12.135315,18.993367 z"
       transform="matrix(1,0,0,0.77405806,-0.75812263,31.371548)" /><path
       style="fill:none;fill-opacity:0.743842;stroke:#000000;stroke-width:2.94378;stroke-dasharray:none;stroke-opacity:1;paint-order:stroke fill markers"
       id="path5"
       d="m 108.41705,166.41355 c -2.53539,-0.0509 -5.07428,-0.17102 -7.60584,-0.33158 -3.284676,-0.22698 -6.565866,-0.50761 -9.845918,-0.79447 -3.622953,-0.19825 -7.214011,-0.69829 -10.79612,-1.25291 -3.886107,-0.56679 -7.732142,-1.3513 -11.509293,-2.4245 -3.13187,-0.87175 -6.073732,-2.23573 -8.920142,-3.78409 -1.495849,-0.90198 -2.983146,-1.87782 -4.247791,-3.09389 -0.673311,-0.64745 -0.843368,-0.90544 -1.420606,-1.62439 -1.389133,-1.89892 -2.653589,-3.88694 -3.77417,-5.95546 -1.065581,-2.03943 -1.643554,-4.27701 -2.056138,-6.52741 -0.524016,-2.90634 -0.814705,-5.84307 -0.98683,-8.78899 -0.244793,-3.02139 -0.344745,-6.0499 -0.358869,-9.08021 0.0075,-2.34887 0.02541,-4.69768 0.03225,-7.04657 -0.02647,-2.59759 -0.0089,-5.19042 0.124052,-7.78467 0.14779,-3.23835 0.375988,-6.47425 0.707134,-9.699155 0.163413,-3.1242 0.909426,-6.15561 1.757993,-9.152592 1.061621,-3.271294 2.442104,-6.415622 4.064734,-9.443699 1.026122,-1.913289 2.038452,-3.841773 3.222025,-5.664792 0.696086,-1.072155 1.11511,-1.590179 1.887506,-2.615084 2.451684,-3.075679 5.392777,-5.70646 8.351563,-8.279203 3.236726,-2.745767 6.570587,-5.374771 10.021821,-7.845514 2.676248,-1.725289 5.33142,-3.527909 8.204338,-4.919794 0.464648,-0.225116 0.945017,-0.416227 1.417523,-0.624342 2.104614,-0.811943 4.30605,-1.391614 6.561189,-1.527624 1.40226,-0.04837 2.911988,0.135092 4.413037,0.276387 1.533222,0.07391 3.060232,0.183152 4.589782,0.31184 2.29147,0.190486 4.59101,0.05648 6.87458,-0.164706 3.09759,-0.216083 6.15179,-0.786142 9.22067,-1.227886 2.83011,-0.391112 5.63411,-0.9458 8.43058,-1.525636 1.88677,-0.49429 3.82511,-0.472474 5.75176,-0.588064 1.90184,-0.15792 3.81052,-0.173579 5.71757,-0.180637 2.53479,-0.05077 5.06163,0.162482 7.58361,0.385067 2.33716,0.133164 4.53044,0.915163 6.73632,1.620865 1.37922,0.515961 2.6896,1.190531 3.99678,1.863283 1.29934,0.643119 2.10675,1.792478 2.92957,2.935613 0.94696,1.439633 1.73109,2.972679 2.54555,4.488459 0.74849,1.317699 1.16069,2.770912 1.62757,4.201297 0.65431,1.914116 1.19602,3.861317 1.66626,5.827852 0.54167,2.295868 0.91502,4.627169 1.33021,6.9481 0.24344,1.765407 0.47249,3.533238 0.70472,5.300473 0.21096,2.165437 0.36635,4.334008 0.44197,6.5086 -0.0164,2.63011 0.15404,5.253435 0.26486,7.879641 0.0693,1.92498 0.048,3.851548 0.0405,5.777307 -0.0103,1.917014 -0.0129,3.834044 -0.007,5.751074 0.003,2.19796 9e-4,4.39594 -0.001,6.5939 -0.0297,1.75687 0.0611,3.51795 -0.0586,5.27177 -0.1366,1.70801 -0.24681,3.41491 -0.50119,5.11048 -0.22585,2.13304 -0.88333,4.17981 -1.49081,6.22653 -0.62732,2.16334 -1.50719,4.24182 -2.35828,6.32395 -0.90776,2.0293 -1.87128,4.03332 -2.9465,5.97928 -1.23185,2.28509 -2.8775,4.31046 -4.45395,6.36178 -1.50952,2.06734 -3.24731,3.94795 -4.95826,5.84646 -1.76443,2.04931 -3.53472,4.09308 -5.48626,5.96717 -2.29379,2.15522 -4.83711,4.03962 -7.52092,5.67819 -2.43872,1.4862 -4.98583,2.79825 -7.66355,3.7939 -2.25219,0.79281 -4.59898,1.20908 -6.96031,1.50428 -1.06979,0.0725 -2.14966,0.19351 -3.22423,0.15488 -0.0296,-0.001 -0.0403,-0.0514 -0.0697,-0.0553 -0.61108,-0.0819 -1.22844,-0.10688 -1.84244,-0.16272 -1.47994,-0.19151 -2.95218,-0.44584 -4.41565,-0.73668 -1.06897,-0.23484 -2.14668,-0.42866 -3.21133,-0.68316 -0.8742,-0.22359 -1.77335,-0.19854 -2.66952,-0.17072 1.2369,0.0408 0.62941,-0.0114 0.31392,-0.26301 -1.13137,-0.31518 -1.88488,0.27815 -0.56331,-0.059 0.0174,-0.005 -0.14371,-0.0406 -0.54511,-0.13341 -0.65712,-0.1637 -1.3213,-0.11467 -1.99401,-0.10894 0,0 0.90989,0.13905 0.90989,0.13905 v 0 c -1.72697,-0.009 -0.20625,-0.0349 0.17842,0.0927 0.18183,0.0401 0.35719,0.11535 0.54256,0.13297 0.56661,0.0539 2.03423,0.0763 0.38662,0.0593 -0.0566,-6.1e-4 0.17765,-0.006 0.16966,-0.006 0.086,-0.0201 0.0656,0.0333 0.13553,0.0869 0.39081,0.29916 0.88722,0.19296 1.37175,0.20042 0.0716,-0.001 0.28624,-0.003 0.21467,-0.005 -0.21061,-0.003 -0.42129,-0.006 -0.63191,-0.002 -0.0928,0.001 0.18573,0.002 0.27843,0.007 0.33831,0.0185 0.67302,0.0722 1.00255,0.15049 1.06719,0.2548 2.14638,0.45045 3.2179,0.68553 1.46594,0.29905 2.94515,0.54017 4.42714,0.74483 2.29275,0.20757 4.59598,0.33387 6.89072,0.0586 2.36127,-0.30244 4.70873,-0.72236 6.95862,-1.52512 2.67302,-1.00709 5.21734,-2.32341 7.65436,-3.81173 2.6837,-1.64819 5.22866,-3.53691 7.52512,-5.69664 1.95232,-1.87981 3.72861,-3.92464 5.50198,-5.9723 1.7081,-1.90023 3.43372,-3.79033 4.9462,-5.8541 1.58152,-2.05501 3.23149,-4.08392 4.46662,-6.37429 1.07661,-1.94839 2.03836,-3.95662 2.94454,-5.98965 0.85407,-2.08394 1.73547,-4.16504 2.35853,-6.33274 0.60873,-2.05104 1.27214,-4.10178 1.50221,-6.23869 0.25425,-1.69801 0.36589,-3.40729 0.50339,-5.11767 0.11927,-1.75609 0.0227,-3.51876 0.053,-5.27784 -0.002,-2.19797 -0.007,-4.39594 -0.003,-6.59391 0.006,-1.91688 0.003,-3.83379 0.0126,-5.750669 0.0103,-1.927194 0.0287,-3.855317 -0.0434,-5.781635 -0.12255,-2.625603 -0.30493,-5.248193 -0.27771,-7.878572 -0.0673,-2.177246 -0.20956,-4.349569 -0.42425,-6.517266 -0.22802,-1.769277 -0.461,-3.538513 -0.70912,-5.304763 -0.42239,-2.321792 -0.79966,-4.654241 -1.33938,-6.9527 -0.46264,-1.969169 -0.99699,-3.919124 -1.64684,-5.835662 -0.46654,-1.43634 -0.88167,-2.893907 -1.63134,-4.217186 -0.81815,-1.517594 -1.60393,-3.053108 -2.54557,-4.499895 -0.82199,-1.153788 -1.62652,-2.320364 -2.92714,-2.978532 -1.31254,-0.675308 -2.62802,-1.352063 -4.01009,-1.876795 -2.21537,-0.699534 -4.41088,-1.504877 -6.75654,-1.637603 -3.09981,-0.273072 -6.2034,-0.486781 -9.31834,-0.394275 -1.91095,0.0077 -3.82316,0.02707 -5.72895,0.183701 -1.92189,0.106036 -3.85115,0.113972 -5.73158,0.604091 -2.79384,0.578257 -5.59552,1.129019 -8.42245,1.521457 -3.07117,0.446043 -6.12951,1.006823 -9.22992,1.222267 -0.44418,0.04167 -0.88837,0.08335 -1.33255,0.125016 -0.40359,0.02432 -0.80801,0.03748 -1.21077,0.07293 -0.0606,0.0054 -0.11502,0.04711 -0.17585,0.04911 -0.8004,0.02625 -1.60458,-0.04944 -2.40316,-0.08662 -1.53114,-0.126605 -3.05842,-0.247343 -4.593814,-0.310333 -2.056032,-0.190951 -4.108956,-0.397613 -6.179077,-0.279051 -2.248473,0.153821 -4.443664,0.741222 -6.539174,1.56192 -0.471115,0.210267 -0.949961,0.404001 -1.413337,0.630802 -2.865374,1.402478 -5.518443,3.204131 -8.190374,4.932858 -3.4506,2.474528 -6.783538,5.107367 -10.022151,7.853481 -2.96454,2.57842 -5.910974,5.21586 -8.369922,8.295772 -0.790094,1.04902 -1.179025,1.526077 -1.889738,2.623449 -1.181981,1.825029 -2.192484,3.755335 -3.218083,5.669847 -1.622228,3.034868 -3.00295,6.185654 -4.06687,9.462221 -0.8485,3.002255 -1.608474,6.036849 -1.76238,9.167627 -0.321626,3.227218 -0.555328,6.464138 -0.713039,9.703378 -0.135625,2.59561 -0.155625,5.18984 -0.134198,7.78895 -0.0053,2.34914 -0.0245,4.69818 -0.02601,7.0473 0.02085,3.03198 0.131778,6.06167 0.375492,9.08469 0.169742,2.94877 0.443288,5.89005 0.96486,8.79997 0.412258,2.26003 0.988695,4.50878 2.06274,6.55495 1.122357,2.07004 2.374882,4.07127 3.766003,5.9717 0.5777,0.72318 0.751832,0.98783 1.42652,1.63917 1.267034,1.22318 2.761493,2.20189 4.259532,3.1125 2.851084,1.55644 5.801128,2.92359 8.939342,3.80106 3.776299,1.0766 7.621556,1.86598 11.507415,2.43541 3.582268,0.55691 7.17349,1.06203 10.797186,1.25848 3.27478,0.28888 6.550991,0.5684 9.8303,0.79886 2.521407,0.16428 5.050687,0.27647 7.575707,0.34203 z" /><path
       style="fill:none;fill-opacity:0.743842;stroke:#000000;stroke-width:2.94378;stroke-dasharray:none;stroke-opacity:1;paint-order:stroke fill markers"
       id="path6"
       d="m 92.055314,57.520544 c 0.989571,-0.578994 2.068125,-0.913535 3.208891,-0.982698 0.113778,9.06e-4 0.454831,-0.0054 0.341352,0.003 -0.181017,0.01338 -0.364968,-0.01541 -0.544397,0.01199 -0.226804,0.03463 0.458217,0.02465 0.687444,0.03443 0.390305,0.01662 0.447023,0.01474 0.868516,0.02236 1.298391,-0.0426 2.580705,0.02704 3.86697,0.194152 0.68022,0.01259 1.32115,0.227197 1.98223,0.351496 0.4052,0.06734 0.80146,0.214932 1.1848,0.362788 0.69601,0.289102 1.41767,0.509345 2.11783,0.786688 0.77051,0.282073 1.57735,0.438196 2.36573,0.656298 0.91207,0.204101 1.84296,0.342957 2.77052,0.464465 1.32327,0.128487 2.65628,0.101148 3.98384,0.0857 0.75986,-0.04863 1.5352,0.06427 2.28527,-0.07734 0.66463,-0.200667 1.35408,-0.233028 2.04304,-0.242834 0.76296,-0.129959 1.52534,-0.224729 2.2742,-0.421065 0.63873,-0.11832 1.26825,-0.207011 1.88397,-0.423799 0.94029,-0.261998 1.8947,-0.458085 2.82135,-0.768319 1.22937,-0.474473 2.40679,-1.076996 3.55521,-1.720475 1.2714,-0.729681 2.56656,-1.415559 3.84484,-2.132877 0.98587,-0.607034 1.92843,-1.277855 2.87498,-1.941217 0.66223,-0.395395 -0.006,-0.265108 -0.7999,-0.266449 0,0 0.91081,0.129044 0.91081,0.129044 v 0 c -0.26107,-0.01514 -0.52484,-0.005 -0.78321,-0.04541 -0.0252,-0.0039 0.0458,-0.06762 0.021,-0.07355 -0.10003,-0.0239 -0.15163,0.254111 -0.25778,0.1696 -0.93114,0.674897 -1.877,1.330128 -2.85761,1.933141 -1.27869,0.716837 -2.57448,1.402106 -3.84562,2.132497 -1.15075,0.636098 -2.32554,1.241494 -3.55871,1.702895 -0.93128,0.302153 -1.88962,0.495302 -2.82921,0.768071 -0.61786,0.200867 -1.25017,0.285665 -1.88389,0.417143 -0.74583,0.191561 -1.50882,0.286903 -2.2698,0.399969 -0.69131,0.01481 -1.37837,0.06526 -2.04696,0.255912 -0.75243,0.110077 -1.52039,0.02275 -2.27867,0.06407 -0.15327,0.0015 -0.31294,-0.03892 -0.45981,0.0049 -0.13825,0.0413 0.57708,1.3e-4 0.43283,0.0031 -0.72188,0.01489 -1.44579,-0.02067 -2.16465,-0.08293 -0.9254,-0.11568 -1.85082,-0.264167 -2.76299,-0.451645 -0.7836,-0.231342 -1.59506,-0.368026 -2.36628,-0.646663 -0.69473,-0.284378 -1.41681,-0.496889 -2.10995,-0.786495 -0.3747,-0.168002 -0.79095,-0.297427 -1.18946,-0.382435 -0.66736,-0.111642 -1.30595,-0.352633 -1.99173,-0.354453 -1.2868,-0.166431 -2.567916,-0.2545 -3.867536,-0.204298 -1.049711,-0.01725 -2.097635,-0.0977 -3.148244,-0.06753 -1.142626,0.09196 -2.218983,0.446267 -3.212306,1.023378 z" /><path
       style="fill:none;fill-opacity:0.743842;stroke:#000000;stroke-width:2.94378;stroke-dasharray:none;stroke-opacity:1;paint-order:stroke fill markers"
       id="path7"
       d="m 115.33017,58.981434 c -0.0152,-1.751265 -0.009,-3.502626 -0.007,-5.253931 -0.0251,-1.294544 0.0658,-2.593496 -0.0517,-3.884027 -0.0952,-0.930504 -0.22977,-1.865788 -0.22771,-2.803446 9.1e-4,-0.383237 0.0738,-1.250261 0.10106,-1.613254 0.14426,-2.01091 0.15605,-4.024376 0.32274,-6.033686 0.21616,-1.60887 0.43075,-3.216702 0.71338,-4.81546 0.26235,-1.659704 0.6064,-3.304219 0.91599,-4.955674 0.21923,-0.834034 0.13231,-1.742744 0.48655,-2.540155 0.13863,-0.171155 1.26888,-0.73154 -0.8419,0.08135 -0.065,0.02503 0.0233,0.140063 0.0571,0.200973 0.10117,0.18246 0.30418,0.345653 0.45032,0.481542 0.60024,0.573427 1.34411,0.91274 2.10943,1.203774 0.60759,0.193568 1.2003,0.39544 1.83789,0.455082 0.49681,-0.01667 1.42406,0.228615 1.69924,-0.341484 0.24274,-0.35188 0.2257,-0.837382 0.24135,-1.247923 0.0148,-0.402345 0.0441,-0.776576 -0.13762,-1.140576 -0.27902,-0.596162 -0.91602,-0.79535 -1.47762,-1.043017 -0.83352,-0.401822 -1.69583,-0.71738 -2.62325,-0.773438 -0.56678,-0.322699 -1.00834,0.03879 -1.49966,0.06251 -0.0491,0.07884 -0.077,0.165205 -0.1006,0.253967 0,0 0.92196,0.02558 0.92196,0.02558 v 0 c 0.0178,-0.05803 0.0264,-0.123589 0.0917,-0.145094 0.29793,-0.05035 0.97459,-0.140909 -0.3159,-0.05842 0.92887,0.0326 1.79482,0.330979 2.62641,0.739319 0.54187,0.238487 1.17804,0.412925 1.45932,0.9816 0.19768,0.385591 0.14464,0.662432 0.14143,1.093966 -0.0164,0.403264 -0.005,0.859797 -0.24943,1.202248 -0.0485,0.06106 -0.11282,0.107475 -0.18209,0.143406 -0.0517,0.02684 -0.21712,0.05783 -0.16016,0.07025 0.17352,0.03785 1.12451,0.05679 0.46912,0.04145 -0.64028,-0.04464 -1.22948,-0.238871 -1.83864,-0.429651 -0.76197,-0.277953 -1.50591,-0.60542 -2.10447,-1.169102 -0.0829,-0.07453 -0.36807,-0.315277 -0.44157,-0.432561 -0.0331,-0.05282 0.001,-0.154679 -0.056,-0.178452 -0.7947,-0.327812 -0.79167,-0.47921 -0.99441,-0.11364 -0.32086,0.816117 -0.2583,1.71502 -0.46452,2.560034 -0.30486,1.652654 -0.64823,3.297104 -0.91487,4.95638 -0.28704,1.600739 -0.4934,3.212358 -0.70895,4.823963 -0.16211,2.009662 -0.16719,4.023945 -0.32517,6.034081 -0.0313,0.396764 -0.10414,1.211122 -0.10528,1.624195 -0.002,0.938636 0.12843,1.875866 0.22308,2.807493 0.11508,1.287834 0.0295,2.584227 0.0596,3.875913 10e-4,1.751304 0.008,3.502666 -0.007,5.253931 z" /><path
       style="fill:none;fill-opacity:0.743842;stroke:#000000;stroke-width:2.94378;stroke-dasharray:none;stroke-opacity:1;paint-order:stroke fill markers"
       id="path8"
       d="m 121.75745,27.190934 c -0.33295,0.932158 -0.89015,1.75876 -1.03463,2.749537 -0.16368,0.698917 -0.22958,1.409045 -0.3891,2.108151 -0.2126,0.752902 -0.34676,1.518088 -0.49563,2.284804 -0.17832,1.028989 -0.34446,2.0605 -0.54539,3.085375 -0.3215,1.482329 -0.44463,2.989031 -0.61094,4.492735 -0.16452,1.433509 -0.20453,2.873121 -0.36742,4.306162 -0.17595,1.209679 -0.0969,2.435744 -0.21152,3.64821 -0.15404,1.078393 -0.221,2.164229 -0.23394,3.25255 -2.9e-4,0.898504 0.0114,1.796942 0.0137,2.695435 6.1e-4,0.472658 -4e-5,0.945328 -0.002,1.41798 9.1e-4,0.324922 -0.002,0.649826 -3e-4,0.974745 -6e-4,0.290876 9.1e-4,0.581753 -0.001,0.872623 -10e-4,0.16253 -2e-5,0.325073 -8e-5,0.487607 9e-4,0.239004 0.002,0.478017 -6e-4,0.717019 -2e-4,0.01157 -3e-4,0.02315 -6.1e-4,0.0347 -1.4e-4,0.0041 -2.7e-4,0.0082 -3e-4,0.01236 0,0 0.92446,0 0.92446,0 v 0 c -1.3e-4,-0.0041 -2.7e-4,-0.0082 -2.9e-4,-0.01236 -2e-4,-0.01157 -3.1e-4,-0.02315 -6.1e-4,-0.0347 -0.002,-0.238999 -10e-4,-0.478015 -6e-4,-0.717019 -6e-5,-0.162534 10e-4,-0.32508 -7e-5,-0.487607 -0.002,-0.290874 -6.1e-4,-0.581752 -10e-4,-0.872628 10e-4,-0.324875 -0.001,-0.649733 3.1e-4,-0.97461 -0.001,-0.472869 -1.3e-4,-0.945748 -0.005,-1.418611 -0.007,-0.897937 -0.0211,-1.795852 -0.0195,-2.693835 0.0135,-1.085827 0.0762,-2.169314 0.23121,-3.245208 0.1127,-1.212051 0.0339,-2.437213 0.2089,-3.646406 0.16462,-1.433023 0.19247,-2.873245 0.36112,-4.306522 0.16731,-1.501635 0.29019,-3.006321 0.62021,-4.485118 0.2012,-1.025116 0.36946,-2.056423 0.54962,-3.085342 0.15082,-0.765543 0.28852,-1.529572 0.49898,-2.281996 0.15842,-0.701403 0.22799,-1.413639 0.38881,-2.115105 0.14743,-0.980117 0.69255,-1.806529 1.03213,-2.72613 z" /><path
       style="fill:none;fill-opacity:0.743842;stroke:#000000;stroke-width:2.94378;stroke-dasharray:none;stroke-opacity:1;paint-order:stroke fill markers"
       id="path9"
       d="m 114.06996,46.947644 c -1.21043,0.079 -2.40286,-0.103798 -3.59995,-0.242122 -1.21466,-0.169725 -2.37596,-0.541808 -3.52181,-0.966365 -1.75109,-0.629786 -3.40063,-1.494558 -5.0886,-2.270604 -2.206572,-1.123233 -4.388907,-2.285118 -6.650375,-3.29694 -2.380906,-1.040524 -4.77168,-2.058126 -7.148786,-3.107083 -2.617143,-1.08071 -5.261299,-2.093523 -7.944393,-2.999481 -2.499559,-0.824158 -5.098548,-1.215034 -7.690349,-1.608834 -1.970012,-0.302109 -3.965363,-0.26552 -5.951393,-0.256622 -1.225155,0.0217 -2.45041,0.03218 -3.675744,0.03427 -0.812592,0.04832 -1.58186,0.253781 -2.348536,0.506568 -0.524541,0.237258 -1.018131,0.533717 -1.538074,0.780099 -0.230248,0.160918 -0.501657,0.256201 -0.742509,0.39464 -0.150697,0.08662 -0.251017,0.219517 -0.398849,0.308741 -0.163006,0.139497 -0.357863,0.263842 -0.529424,0.408276 -0.0811,0.09275 -0.225575,0.156182 -0.277652,0.269371 0.33543,-0.02998 0.677984,-0.01489 1.006287,-0.08992 0.07462,-0.01704 0.484912,-0.948621 0.550806,-1.067742 0.35121,-0.580341 0.678453,-1.167338 0.992268,-1.771937 0.654413,-1.145443 1.495481,-2.151053 2.396031,-3.107502 1.051567,-1.303329 2.200104,-2.512672 3.390663,-3.689394 1.124375,-1.077022 2.488063,-1.839257 3.799955,-2.657755 1.22476,-0.75453 2.474129,-1.464415 3.750676,-2.127195 0.859462,-0.512773 1.797375,-0.867563 2.743214,-1.18381 0.507483,-0.0544 0.971848,-0.261476 1.457524,-0.392384 0.340796,-0.01108 0.651367,-0.275917 -0.530155,0.02983 -0.07452,0.01929 0.145099,0.05183 0.215635,0.08265 0.08556,0.03739 0.168162,0.08119 0.252244,0.12178 0.472077,0.25637 0.880516,0.603987 1.330037,0.894575 0.774839,0.428809 1.563486,-0.497361 2.070952,-0.932982 0.326463,-0.340264 1.330439,-0.825173 -0.180371,-0.492932 -0.04833,0.01062 0.06061,0.07862 0.08513,0.121591 0.06172,0.108182 0.115414,0.220748 0.173123,0.331121 0.596661,1.207987 0.842699,2.24584 2.543383,1.185412 0.666062,-0.601161 1.258419,-1.286957 1.796187,-2.004822 0.383725,0.141103 -0.321595,-0.136405 -0.63433,0.175497 -0.09841,0.09815 0.165165,0.223673 0.251972,0.332221 0.372663,0.465994 0.77304,0.838217 1.24169,1.205174 0.862095,0.580049 2.051307,0.554374 2.929813,0.02884 0.333703,-0.105191 1.177605,-0.696463 -0.34204,-0.198974 -0.0816,0.02672 0.137225,0.103306 0.203892,0.157412 0.109872,0.08918 0.217088,0.181581 0.325635,0.272371 0.497336,0.359547 0.974791,0.929789 1.597182,1.071958 0.392522,-0.02115 0.787909,-0.01162 1.177573,-0.06343 0.208175,-0.02768 0.751477,-0.300289 0.919318,-0.370744 0.456011,-0.191419 0.882792,-0.373938 1.312388,-0.620043 0.0669,-0.0445 0.125785,-0.104494 0.200718,-0.133495 0.04705,-0.01821 0.201744,-0.0046 0.151329,-0.0027 -0.270638,0.0099 -0.546397,-0.02599 -0.812001,0.02689 -0.06375,0.0127 0.113823,0.06343 0.166419,0.101627 0.07779,0.0565 0.149255,0.121232 0.223883,0.181847 0.08821,0.06348 0.176428,0.126954 0.264643,0.190431 0.35446,0.306103 0.781996,0.366969 1.216625,0.484678 0.343966,0.103649 0.690251,0.08292 0.983626,0.2989 0.200226,0.254808 0.413771,0.502444 0.659921,0.714366 0.397401,0.170025 0.06856,0.0407 1.143191,0.01005 0.936413,-0.02674 -1.114332,-0.386085 -0.380234,0.1235 0.471348,0.374285 0.808265,0.899938 1.286766,1.261954 0.482904,0.195725 1.039029,0.102838 1.542086,0.09551 0.084,-0.0013 0.94055,-0.09278 0.4209,-0.03564 -0.24678,0.02713 -0.49391,0.05095 -0.74086,0.07644 0.79076,1.06691 1.39579,2.275915 2.00241,3.457087 0.0472,0.09651 0.19517,0.44827 0.31338,0.546669 0.38292,0.318736 1.42418,-0.07451 1.93269,-0.22767 0.0909,-0.02536 0.36594,-0.06144 0.27271,-0.07608 -0.21593,-0.03393 -0.44302,-0.03517 -0.65555,0.01594 -0.0837,0.02013 0.17123,0.03787 0.24461,0.08289 0.36975,0.226927 0.62637,0.668118 0.86407,1.012763 0.75011,1.089238 0.85294,0.973857 2.22738,0.883694 0.5581,-0.0145 0.54125,-0.361552 -0.45001,0.0226 -0.0697,0.027 0.0811,0.125662 0.11999,0.189535 0.0726,0.119235 0.23102,0.392525 0.30349,0.516949 0.0957,0.388951 0.48558,0.3636 0.70793,0.59252 0.38176,0.638956 0.62313,1.365829 0.86571,2.06928 0.25244,0.390012 0.53465,0.753437 0.77338,1.156283 0.37883,1.002309 0.62959,2.042793 0.97908,3.056101 0.30044,0.614346 0.50194,1.273807 0.67991,1.935827 0.22511,1.006983 0.45675,2.011632 0.68357,3.018404 0.28302,0.832944 0.58204,1.65734 0.82903,2.502414 0.069,0.562525 0.30182,1.079405 0.43955,1.622899 0.0563,0.254944 0.0268,0.517417 0.0195,0.775833 -0.0402,0.302525 0.005,0.541427 0.12063,0.819435 0.0858,0.219872 0.18064,0.460665 0.17594,0.70181 -10e-4,-0.0018 -0.002,-0.0037 -0.003,-0.0054 0,0 0.92402,0.03055 0.92402,0.03055 v 0 c 0.001,-0.0085 0.002,-0.01695 0.003,-0.02544 -0.006,-0.252945 -0.0885,-0.505883 -0.18257,-0.737259 -0.10848,-0.267413 -0.16001,-0.487178 -0.11897,-0.780809 0.009,-0.266957 0.0405,-0.538068 -0.0202,-0.801139 -0.13405,-0.546228 -0.38634,-1.060166 -0.45129,-1.626225 -0.24616,-0.843289 -0.53357,-1.669546 -0.8274,-2.496871 -0.2293,-1.007868 -0.46373,-2.013294 -0.69073,-3.0214 -0.1713,-0.663319 -0.35417,-1.337313 -0.6676,-1.943763 -0.36989,-1.013469 -0.62407,-2.056676 -0.98355,-3.072877 -0.23048,-0.403413 -0.48658,-0.776273 -0.77005,-1.139049 -0.2521,-0.710901 -0.49802,-1.440294 -0.86033,-2.100979 -0.21041,-0.303082 -0.58415,-0.1639 -0.71232,-0.578432 -0.0352,-0.06001 -0.41387,-0.730606 -0.42005,-0.732493 -0.57114,-0.174224 -0.89175,-0.18358 -1.37631,-0.06317 0.23799,0.0181 0.4761,0.03474 0.71398,0.05432 0.13567,0.01119 -0.2328,0.02876 -0.43405,-0.08411 -0.31147,-0.174682 -0.46352,-0.540351 -0.69325,-0.793164 -0.70355,-1.044467 -1.07224,-1.563157 -2.53478,-1.097303 -0.42515,0.131736 -0.63289,0.194968 -0.62083,0.200399 0.20238,0.0912 0.44384,0.02776 0.66288,0.06376 0.0516,0.0084 -0.10955,0.04413 -0.15578,0.01959 -0.11843,-0.06286 -0.30043,-0.479917 -0.32603,-0.530048 -0.62567,-1.189442 -1.24458,-2.393086 -1.99123,-3.510321 -0.35954,-0.03862 -0.71808,-0.0882 -1.078624,-0.115849 -0.139572,-0.01073 -0.558696,0.02373 -0.418861,0.03011 1.337925,0.0611 0.560785,0.02453 0.27618,-0.04225 -0.504145,-0.321193 -0.820671,-0.884614 -1.286716,-1.257428 -0.05402,-0.04596 -0.0921,-0.126197 -0.162068,-0.13789 -0.340509,-0.05691 -0.688958,-0.04652 -1.033844,-0.062 -0.08246,-0.0037 -0.32869,0.0219 -0.24625,0.02593 0.249017,0.01217 0.498865,9.06e-4 0.747806,0.0146 0.02223,0.0013 -0.04182,0.01537 -0.06272,0.02305 -0.274724,-0.1681 -0.473516,-0.461517 -0.665551,-0.709819 -0.353014,-0.307721 -0.549461,-0.211631 -0.989668,-0.336371 -0.4295,-0.115315 -0.858579,-0.161136 -1.2156,-0.452321 -0.656041,-0.457435 -1.068974,-1.002408 -2.009556,-0.373274 -0.572636,0.324552 -1.179492,0.589533 -1.794816,0.822995 -0.143076,0.05429 -0.546691,0.03318 -0.437194,0.140092 0.152669,0.149053 0.425113,0.03709 0.637669,0.05563 -0.579157,-0.02595 -1.159021,-0.706921 -1.600542,-1.019802 -0.106606,-0.0904 -0.215807,-0.177824 -0.319814,-0.271201 -0.07012,-0.06296 -0.109541,-0.180773 -0.202283,-0.197538 -0.795167,-0.14374 -0.946323,-0.08803 -1.481052,0.221286 -0.196208,0.108708 -0.29731,0.179309 -0.524523,0.237285 -0.104083,0.02656 -0.422726,0.0182 -0.318962,0.046 0.176671,0.04731 0.377873,0.08141 0.548468,0.01547 0.274549,-0.106115 -1.300049,-0.01233 -0.825186,-0.314331 -0.439926,-0.333878 -0.506206,-0.355398 -0.891363,-0.768186 -0.475011,-0.509091 -0.797108,-1.404716 -1.784177,-0.920554 -0.519509,0.716507 -1.106907,1.396038 -1.782202,1.968963 -0.135802,0.07496 -1.130065,0.516928 0.190754,0.313345 0.09324,-0.01436 -0.17777,-0.07701 -0.242853,-0.145302 -0.343428,-0.360341 -0.402719,-0.90055 -0.678733,-1.302376 -0.05546,-0.110705 -0.113767,-0.220023 -0.166387,-0.332106 -0.03357,-0.07152 -0.01417,-0.205105 -0.09204,-0.218405 -0.955159,-0.16313 -1.063459,0.04633 -1.634216,0.555565 -0.219007,0.187043 -0.44114,0.370455 -0.657884,0.560113 -0.08871,0.07763 -0.354044,0.164051 -0.26193,0.237612 0.310529,0.247988 1.036494,0.262654 0.668767,0.120604 -0.461537,-0.27933 -0.866969,-0.635046 -1.33634,-0.902492 -0.531792,-0.278118 -1.165773,-0.430544 -1.758522,-0.250677 -0.47767,0.158574 -0.952947,0.301438 -1.448594,0.39677 -0.942271,0.325143 -1.876538,0.683338 -2.734114,1.198781 -1.275685,0.666275 -2.524867,1.37895 -3.750086,2.134349 -1.313294,0.82219 -2.677539,1.590274 -3.796824,2.677956 -1.190498,1.179283 -2.334868,2.394745 -3.395744,3.692247 -0.90483,0.963911 -1.746206,1.980771 -2.407323,3.131503 -0.317085,0.603015 -0.653023,1.187025 -0.999925,1.770534 -0.122384,0.234651 -0.203858,0.481749 -0.33886,0.709714 -0.125517,0.211951 -0.243583,0.33859 -0.215133,0.351346 0.259906,0.116539 0.556775,0.120541 0.835162,0.180812 0.0533,-0.03459 0.194459,-0.165872 0.269905,-0.225632 0.17855,-0.132041 0.348247,-0.275108 0.528442,-0.400964 0.359582,-0.26302 0.72715,-0.49839 1.133588,-0.691413 0.514384,-0.253217 1.010037,-0.543495 1.538297,-0.768288 0.758208,-0.255886 1.529839,-0.435807 2.333359,-0.479334 1.223506,-0.0027 2.446911,-0.01474 3.670248,-0.03583 -0.350697,-0.01395 -0.498496,-0.01764 0.573207,-0.0063 0.886172,0.0094 1.771495,0.04441 2.653582,0.133744 0.320288,0.03244 0.639261,0.07678 0.958891,0.115173 2.596465,0.393108 5.203194,0.766588 7.708253,1.591 2.680565,0.900463 5.317436,1.917907 7.932248,2.992967 2.377704,1.049277 4.769888,2.065417 7.151378,3.106433 2.262163,1.005856 4.44148,2.168839 6.643586,3.296663 1.68456,0.77676 3.32888,1.644959 5.07537,2.278828 1.14369,0.429867 2.30141,0.8092 3.51408,0.989685 1.19736,0.13207 2.38837,0.332706 3.59893,0.252618 z" /><path
       style="fill:none;fill-opacity:0.743842;stroke:#000000;stroke-width:2.94378;stroke-dasharray:none;stroke-opacity:1;paint-order:stroke fill markers"
       id="path10"
       d="m 93.352268,38.671592 c -1.16131,-0.814993 -2.411956,-1.461967 -3.685925,-2.076372 -1.872494,-0.992889 -3.752797,-1.96616 -5.558874,-3.076683 -1.800245,-1.119928 -3.579616,-2.282408 -5.278483,-3.552603 -1.365042,-1.04696 -2.671154,-2.163643 -4.026361,-3.223684 -1.034569,-0.779753 -2.179753,-1.380562 -3.294778,-2.030175 -0.228303,-0.251432 -0.567905,-0.262713 -0.838185,-0.41869 -0.476543,-0.261926 -0.750147,-0.152009 -1.400312,-0.152893 -0.347929,-0.0099 -1.650141,0.06368 -0.156518,-0.03351 -0.476305,-0.156176 -0.959334,-0.240103 -1.458891,-0.261349 -0.317082,0.0676 -0.487154,-0.166077 -0.750708,-0.254729 -0.761099,-0.110203 -1.397856,0.143371 -2.112848,0.285548 0,0 0.912267,0.125357 0.912267,0.125357 v 0 c 0.387712,-0.0844 1.879453,-0.367392 0.288919,-0.288435 0.286129,0.04001 0.428755,0.3505 0.756222,0.272656 0.498768,0.01238 0.983202,0.07618 1.456829,0.242276 0.659824,0.03878 1.314213,0.0904 1.974369,0.05326 -1.38903,-0.01568 -0.799883,-0.07294 -0.425726,0.102518 0.260235,0.193292 0.616728,0.149229 0.850101,0.422627 1.11534,0.651772 2.272469,1.235524 3.308977,2.016472 1.355591,1.061845 2.667867,2.173091 4.030597,3.225232 1.700527,1.27409 3.485756,2.43427 5.286522,3.559888 1.802771,1.111417 3.68006,2.084751 5.544754,3.087247 1.266806,0.615496 2.524962,1.238081 3.672562,2.065315 z" /><path
       style="fill:none;fill-opacity:0.743842;stroke:#000000;stroke-width:2.94378;stroke-dasharray:none;stroke-opacity:1;paint-order:stroke fill markers"
       id="path11"
       d="m 84.029002,32.600397 c 1.464413,-0.213037 2.949613,-0.158809 4.417835,-0.305747 1.165386,-0.175304 2.340544,-0.221226 3.516969,-0.229338 -0.08284,3.01e-4 -0.330726,-0.0091 -0.248543,0.0013 1.103237,0.140626 2.22708,0.229707 3.337426,0.29587 1.133185,0.132227 2.261178,0.309487 3.3749,0.55727 1.347856,0.345365 2.574071,0.987666 3.739941,1.730821 0.74757,0.522711 1.57697,0.915931 2.33298,1.425796 0.23581,0.159025 0.84693,0.640922 1.07463,0.818229 0.94979,0.820512 1.80712,1.723693 2.622,2.675671 0.14661,0.25182 0.44586,0.429575 0.5491,0.708421 0,0 0.92073,-0.02855 0.92073,-0.02855 v 0 c -0.0861,-0.301302 -0.40851,-0.483346 -0.56793,-0.743928 -0.82085,-0.954093 -1.67657,-1.865758 -2.62766,-2.69327 -0.1628,-0.127013 -0.91373,-0.716807 -1.07738,-0.828224 -0.75334,-0.512883 -1.58399,-0.902826 -2.33158,-1.424072 -1.16741,-0.749547 -2.39205,-1.403314 -3.741303,-1.762071 -1.113682,-0.256603 -2.243466,-0.428798 -3.377024,-0.57202 -1.626456,-0.09014 -3.236898,-0.388263 -4.870958,-0.301569 -1.176676,0.01062 -2.350906,0.06617 -3.516786,0.237346 -1.472196,0.134669 -2.958444,0.09943 -4.425966,0.307188 z" /><path
       style="fill:none;fill-opacity:0.743842;stroke:#000000;stroke-width:2.94378;stroke-dasharray:none;stroke-opacity:1;paint-order:stroke fill markers"
       id="path12"
       d="m 99.991952,57.913721 c -4.968549,-0.08852 -9.926339,0.177069 -14.871204,0.637216 -2.181147,0.306272 -4.461296,0.642862 -6.431359,1.702922 -0.618716,0.332919 -0.973407,0.646418 -1.518131,1.073111 -1.335053,1.13799 -2.657688,2.292245 -3.939552,3.490345 -0.452518,0.43247 -0.906532,0.863637 -1.346925,1.308533 0,0 0.915229,0.07058 0.915229,0.07058 v 0 c 0.426167,-0.449579 0.873994,-0.878033 1.321627,-1.306024 1.280875,-1.195822 2.601021,-2.349767 3.937573,-3.482521 0.545291,-0.422948 0.887758,-0.723961 1.506022,-1.05357 1.955346,-1.04243 4.209382,-1.381132 6.371484,-1.681891 4.375788,-0.407589 8.766928,-0.698779 13.164368,-0.617598 z" /><path
       style="fill:none;fill-opacity:0.743842;stroke:#000000;stroke-width:2.94378;stroke-dasharray:none;stroke-opacity:1;paint-order:stroke fill markers"
       id="path13"
       d="m 102.22008,57.973297 c -3.13709,0.324693 -6.29847,0.436611 -9.39286,1.097034 -0.622646,0.132889 -1.234017,0.313994 -1.851027,0.47099 -3.015648,0.875815 -4.210114,2.358996 -5.853919,4.852489 -0.83162,1.2375 -1.381392,2.608119 -1.911058,3.989886 -0.04341,0.325029 -0.31191,0.651839 -0.301909,0.990048 0,0 0.924182,-0.0113 0.924182,-0.0113 v 0 c 0.04417,-0.320264 0.190201,-0.635373 0.282011,-0.945944 0.516402,-1.377789 1.070549,-2.737126 1.890266,-3.971107 1.636108,-2.481057 2.817694,-3.922454 5.816564,-4.791511 0.613557,-0.15537 1.221494,-0.334931 1.840672,-0.466111 3.111899,-0.659292 6.291858,-0.76615 9.446938,-1.081081 z" /><path
       style="fill:none;fill-opacity:0.743842;stroke:#000000;stroke-width:2.94378;stroke-dasharray:none;stroke-opacity:1;paint-order:stroke fill markers"
       id="path14"
       d="m 105.61196,59.71948 c -1.55835,1.150661 -3.0802,2.355891 -4.43095,3.750286 -0.92768,0.957658 -1.33448,1.514781 -2.160177,2.546611 -1.372742,1.834273 -2.394085,3.794641 -3.120055,5.959087 -0.181096,0.846329 -0.404577,1.692134 -0.537693,2.548827 -0.0054,0.02722 -0.01062,0.05445 -0.01592,0.08168 0,0 0.921676,0.01514 0.921676,0.01514 v 0 c 0.0038,-0.02768 0.0075,-0.05531 0.01142,-0.08297 0.126597,-0.8514 0.331814,-1.694429 0.514911,-2.533856 0.70645,-2.128322 1.735363,-4.133782 3.087562,-5.929634 0.821226,-1.02556 1.230076,-1.585692 2.154616,-2.535479 1.36004,-1.397188 2.8966,-2.598396 4.47482,-3.735972 z" /><path
       style="fill:none;fill-opacity:0.743842;stroke:#000000;stroke-width:2.94378;stroke-dasharray:none;stroke-opacity:1;paint-order:stroke fill markers"
       id="path15"
       d="m 111.67158,59.659892 c -1.72503,1.205466 -3.06874,2.795751 -4.32072,4.463094 -0.86948,1.336494 -1.24461,2.824458 -1.36329,4.393579 -0.0533,0.717215 0.0255,1.431732 0.0572,2.147165 0.0141,0.446254 0.0116,0.892824 0.005,1.339189 -0.002,0.110728 -9.1e-4,0.0623 -0.003,0.145297 0,0 0.92298,0.0013 0.92298,0.0013 v 0 c -7e-5,-0.08335 -8e-5,-0.03475 1.1e-4,-0.14578 0.001,-0.447936 0.002,-0.895901 -0.0109,-1.343712 -0.0263,-0.712305 -0.12356,-1.422412 -0.0726,-2.136755 0.11451,-1.552179 0.49094,-3.022796 1.35244,-4.343105 1.24625,-1.666183 2.59012,-3.254162 4.3335,-4.428799 z" /><path
       style="fill:none;fill-opacity:0.743842;stroke:#000000;stroke-width:2.94378;stroke-dasharray:none;stroke-opacity:1;paint-order:stroke fill markers"
       id="path16"
       d="m 130.25431,55.913957 c 2.81783,-0.645999 5.65792,-1.141829 8.53123,-1.456371 2.47873,-0.284154 4.95512,-0.240651 7.40414,0.230464 1.9114,0.439554 2.88163,1.51704 4.12322,2.954651 0.6261,0.761504 1.16793,1.586281 1.70304,2.412564 0.18267,0.282053 0.48094,0.646829 0.56079,0.990202 0,0 0.91849,-0.02166 0.91849,-0.02166 v 0 c -0.0903,-0.366207 -0.38676,-0.714834 -0.58819,-1.020653 -0.54391,-0.825726 -1.08525,-1.655688 -1.71078,-2.423237 -0.77086,-0.902868 -1.58724,-1.888949 -2.64078,-2.482575 -0.47899,-0.269887 -0.96299,-0.37576 -1.48773,-0.531109 -3.00609,-0.592179 -6.09226,-0.510245 -9.13279,-0.23382 -2.88828,0.320197 -5.74198,0.825578 -8.57805,1.459452 z" /><path
       style="fill:none;fill-opacity:0.743842;stroke:#000000;stroke-width:2.94378;stroke-dasharray:none;stroke-opacity:1;paint-order:stroke fill markers"
       id="path17"
       d="m 127.0489,57.240199 c 1.76564,0.172048 3.56761,0.158347 5.29477,0.618161 0.30717,0.08178 0.60239,0.203218 0.90357,0.304828 1.64733,0.751555 3.00636,1.933464 4.29879,3.175665 0.8801,0.840171 1.75941,1.681145 2.63251,2.528575 0,0 0.89926,-0.07265 0.89926,-0.07265 v 0 c -0.88571,-0.839835 -1.77021,-1.680954 -2.65025,-2.52673 -1.28932,-1.257723 -2.65126,-2.443992 -4.2981,-3.21491 -0.30294,-0.105145 -0.59948,-0.231004 -0.90884,-0.315447 -1.71868,-0.469138 -3.51615,-0.457313 -5.27531,-0.629313 z" /><path
       style="fill:none;fill-opacity:0.743842;stroke:#000000;stroke-width:2.94378;stroke-dasharray:none;stroke-opacity:1;paint-order:stroke fill markers"
       id="path18"
       d="m 135.71903,138.87707 c -0.12815,1.01231 -0.2221,2.05163 -0.55425,3.02235 -0.21461,0.58663 -0.3529,1.19508 -0.53502,1.79291 -0.48423,1.07966 -1.01709,2.14344 -1.58586,3.18135 -0.9604,1.56414 -1.94226,3.12117 -3.08232,4.56133 -1.46,1.78317 -2.92515,3.56901 -4.61194,5.14307 -1.88129,1.76115 -3.95557,3.28132 -6.01308,4.82451 -2.13689,1.69836 -4.53702,3.01668 -6.92778,4.31671 -1.23587,0.73325 -2.57256,1.2406 -3.91285,1.74079 -0.44736,0.0899 -0.83669,0.34185 -1.28406,0.4276 -0.40129,0.005 1.14194,0.023 0.66268,-0.0161 0,0 -0.91171,0.13568 -0.91171,0.13568 v 0 c 0.38466,0.0406 0.78466,0.0955 1.16216,0.005 0.436,-0.11373 0.83287,-0.33823 1.27286,-0.44188 1.32999,-0.50893 2.65837,-1.01778 3.8838,-1.75656 2.38813,-1.30937 4.78934,-2.62797 6.92684,-4.32945 2.06029,-1.54383 4.13399,-3.06949 6.01568,-4.83391 1.68515,-1.58359 3.16065,-3.36851 4.62507,-5.15534 1.14047,-1.44653 2.12247,-3.01034 3.09063,-4.57583 0.57184,-1.04439 1.11833,-2.10988 1.59867,-3.19917 0.18509,-0.59635 0.32859,-1.20268 0.53713,-1.79074 0.31795,-0.98098 0.41349,-2.02172 0.55343,-3.03872 z" /><path
       style="fill:none;fill-opacity:0.743842;stroke:#000000;stroke-width:2.94378;stroke-dasharray:none;stroke-opacity:1;paint-order:stroke fill markers"
       id="path19"
       d="m 145.24265,137.49076 c -0.30165,2.09903 -0.83574,4.1612 -1.50097,6.17233 -0.60527,1.86361 -1.41577,3.64587 -2.46968,5.29701 -1.08566,1.57735 -2.4624,2.9362 -3.80417,4.29529 -1.32165,1.24583 -2.84048,2.25486 -4.27895,3.35923 -1.20576,0.97225 -2.40521,1.95055 -3.73185,2.75414 -1.21162,0.61734 -2.45605,1.16424 -3.67725,1.76166 -1.06626,0.55858 -2.13118,1.11939 -3.20431,1.66478 -0.8908,0.57126 -1.91157,0.85239 -2.87704,1.25744 -0.79902,0.35631 -1.57067,0.7726 -2.39214,1.0764 -0.55035,0.23484 -1.00196,0.62314 -1.51218,0.92498 -0.10483,-0.0694 -0.32291,0.24824 -0.3955,0.25817 -0.0537,0.007 -0.10597,-0.023 -0.1589,-0.0344 0,0 0.90753,0.14324 0.90753,0.14324 v 0 c 0.20685,-0.044 0.3659,-0.17619 0.55774,-0.27309 0.50012,-0.30785 0.95575,-0.68432 1.50479,-0.90909 0.81657,-0.31445 1.58872,-0.72704 2.3889,-1.07969 0.96902,-0.39604 1.97984,-0.69906 2.87244,-1.26504 1.07311,-0.54564 2.13777,-1.1072 3.20554,-1.66314 1.22308,-0.59483 2.4665,-1.14635 3.67535,-1.77038 1.32113,-0.81221 2.51743,-1.79469 3.7251,-2.76441 1.4404,-1.10459 2.96084,-2.11556 4.2759,-3.37178 1.34446,-1.36471 2.72591,-2.72714 3.80922,-4.31392 1.04957,-1.6607 1.85827,-3.44845 2.4607,-5.31929 0.66655,-2.01917 1.19178,-4.08814 1.52777,-6.18917 z" /><path
       style="fill:none;fill-opacity:0.743842;stroke:#000000;stroke-width:2.94378;stroke-dasharray:none;stroke-opacity:1;paint-order:stroke fill markers"
       id="path21"
       d="m 60.516313,134.61642 c 0.24601,2.24574 0.556546,4.48356 0.930379,6.71164 0.369265,1.92519 0.781183,3.86939 1.621451,5.65406 0.168549,0.35799 0.366594,0.70135 0.549893,1.05202 1.13527,1.99118 2.535107,3.82402 4.037331,5.55062 1.202327,1.4439 2.56336,2.74095 4.005803,3.94121 1.138737,0.98906 2.501178,1.66604 3.817991,2.3828 2.140452,1.26711 4.342314,2.43276 6.588733,3.50014 1.270072,0.46163 2.459443,1.18795 3.77055,1.542 0,0 0.912756,-0.12593 0.912756,-0.12593 v 0 c -0.281056,-0.0389 -0.58541,-0.1711 -0.841769,-0.26887 -1.005241,-0.3834 -1.982522,-0.83311 -2.975954,-1.24529 -2.241704,-1.05859 -4.435635,-2.22412 -6.56269,-3.49811 -1.315161,-0.71264 -2.676919,-1.38638 -3.818678,-2.36532 -1.448268,-1.19073 -2.809926,-2.48628 -4.014256,-3.92611 -1.50569,-1.71659 -2.902088,-3.54654 -4.040231,-5.52956 -0.182248,-0.3482 -0.3791,-0.68912 -0.546746,-1.04457 -0.838729,-1.77833 -1.26037,-3.71506 -1.633118,-5.63352 -0.370892,-2.22564 -0.675747,-4.46269 -0.893414,-6.7085 z" /><path
       style="fill:none;fill-opacity:0.743842;stroke:#000000;stroke-width:2.94378;stroke-dasharray:none;stroke-opacity:1;paint-order:stroke fill markers"
       id="path22"
       d="m 77.999487,135.55108 c 0.75204,1.60392 1.335314,3.27058 1.837889,4.9662 0.426923,1.34159 0.830291,2.69262 1.304486,4.01851 0.383406,1.2277 1.178215,2.22237 1.89369,3.26476 0.790184,1.19866 1.74427,2.26409 2.672147,3.35373 1.224718,1.52243 2.67962,2.82491 4.114384,4.14174 1.810115,1.67435 3.624464,3.3414 5.549256,4.88334 1.390299,1.13039 2.695336,2.36119 4.243241,3.27764 -0.0061,0.22485 1.96233,0.67517 1.63906,0.10346 0,0 -0.92077,0.0537 -0.92077,0.0537 v 0 c 0.23439,0.29748 0.0338,0.0686 0.99371,0.0661 0.0439,-1.2e-4 -0.0882,-0.007 -0.13036,-0.0196 -0.0893,-0.0262 -0.17706,-0.0582 -0.26247,-0.0951 -0.14378,-0.0622 -0.28289,-0.13472 -0.42434,-0.20208 -1.563301,-0.89636 -2.86441,-2.13466 -4.258751,-3.26307 -1.929966,-1.53356 -3.743583,-3.19795 -5.547456,-4.8774 -1.431866,-1.31227 -2.881545,-2.61198 -4.101376,-4.13167 -0.924176,-1.08799 -1.879514,-2.14767 -2.665852,-3.34477 -0.709819,-1.03811 -1.511747,-2.01989 -1.894085,-3.24166 -0.477353,-1.32334 -0.881341,-2.67284 -1.306577,-4.01353 -0.510445,-1.69628 -1.105296,-3.3605 -1.832244,-4.97794 z" /><path
       style="fill:none;fill-opacity:0.743842;stroke:#000000;stroke-width:2.94378;stroke-dasharray:none;stroke-opacity:1;paint-order:stroke fill markers"
       id="path23"
       d="m 148.58427,72.869238 c 0.2787,1.295459 0.53224,2.595613 0.80688,3.891786 0.26119,1.132197 0.48998,2.268851 0.67808,3.4164 0.16777,1.480462 0.43643,2.946498 0.63856,4.42222 0.0494,0.432424 0.10311,0.865972 0.10071,1.301858 0,0 0.91914,-2.53e-4 0.91914,-2.53e-4 v 0 c -0.005,-0.440371 -0.0725,-0.877151 -0.12081,-1.314101 -0.21063,-1.475103 -0.47154,-2.94289 -0.63739,-4.424171 -0.18379,-1.14973 -0.41095,-2.288094 -0.67542,-3.420899 -0.27747,-1.29643 -0.54301,-2.594765 -0.80232,-3.895074 z" /><path
       style="fill:none;fill-opacity:0.743842;stroke:#000000;stroke-width:2.94378;stroke-dasharray:none;stroke-opacity:1;paint-order:stroke fill markers"
       id="path24"
       d="m 151.64771,93.401861 c 0.0227,2.686646 0.0209,5.373427 0.018,8.060149 -0.0605,2.85175 -0.38738,5.68615 -0.55052,8.53221 -0.18517,1.5748 -0.25717,3.16038 -0.48333,4.72974 0.0384,0.31535 -0.18708,0.62953 -0.16602,0.93978 0,0 0.92361,-0.008 0.92361,-0.008 v 0 c -0.003,-0.30537 0.15961,-0.61122 0.14483,-0.91934 0.2159,-1.57256 0.29178,-3.15905 0.45846,-4.7375 0.15196,-2.8483 0.4828,-5.68374 0.54301,-8.53706 -0.002,-2.686723 -0.005,-5.373504 0.018,-8.06015 z" /><path
       style="fill:none;fill-opacity:0.743842;stroke:#000000;stroke-width:2.94378;stroke-dasharray:none;stroke-opacity:1;paint-order:stroke fill markers"
       id="path25"
       d="m 151.01394,120.46551 c -0.20079,1.33239 -0.39606,2.65774 -0.74744,3.95935 -0.0403,0.11464 -0.0588,0.23719 -0.10551,0.34986 0,0 0.92322,0.0301 0.92322,0.0301 v 0 c 0.0323,-0.11855 0.0625,-0.23769 0.0933,-0.35665 0.33316,-1.3093 0.51596,-2.64086 0.74452,-3.97142 z" /><path
       style="fill:none;fill-opacity:0.743842;stroke:#000000;stroke-width:2.94378;stroke-dasharray:none;stroke-opacity:1;paint-order:stroke fill markers"
       id="path26"
       d="m 154.12316,66.237422 c 0.62105,1.490097 1.20882,2.996575 1.6623,4.546922 0.34222,0.983806 0.49382,2.009677 0.66049,3.032331 0.20681,1.573252 0.45039,3.14118 0.66816,4.71336 0.3354,2.557836 0.36166,5.140206 0.35367,7.715514 -0.0114,1.378295 -0.0434,2.756232 -0.05,4.13457 0.002,0.421058 -0.008,0.842107 -0.007,1.263147 0,0 0.92124,-6.04e-4 0.92124,-6.04e-4 v 0 c -0.003,-0.420735 -0.0137,-0.841458 -0.009,-1.262265 0.005,-1.378314 0.022,-2.756543 0.0273,-4.134864 -0.003,-2.579132 -0.0319,-5.16461 -0.35432,-7.727485 -0.20861,-1.573166 -0.44323,-3.141958 -0.64303,-4.715851 -0.16104,-1.028316 -0.32798,-2.055728 -0.67158,-3.043504 -0.45519,-1.551062 -1.04923,-3.055298 -1.65193,-4.55391 z" /><path
       style="fill:none;fill-opacity:0.743842;stroke:#000000;stroke-width:2.94378;stroke-dasharray:none;stroke-opacity:1;paint-order:stroke fill markers"
       id="path27"
       d="m 158.91555,102.24238 c 0.32805,3.20996 0.27453,6.45001 0.28744,9.67324 0.017,4.70727 0.0233,9.41254 -0.15049,14.11691 -0.0759,1.76029 -0.14342,3.52092 -0.21245,5.28148 0,0 0.91261,0.002 0.91261,0.002 v 0 c 0.003,-1.76094 0.0937,-3.52057 0.14568,-5.28035 0.16037,-4.70568 0.14977,-9.41203 0.14138,-14.12018 -0.007,-3.2273 0.0601,-6.46782 -0.21409,-9.6859 z" /></g></svg>
