<?xml version="1.0" encoding="UTF-8" standalone="no"?>
<!-- Created with Inkscape (http://www.inkscape.org/) -->

<svg
   width="210mm"
   height="210mm"
   viewBox="0 0 210 210"
   version="1.1"
   id="svg1"
   xml:space="preserve"
   inkscape:version="1.3.2 (091e20e, 2023-11-25)"
   sodipodi:docname="banana.svg"
   xmlns:inkscape="http://www.inkscape.org/namespaces/inkscape"
   xmlns:sodipodi="http://sodipodi.sourceforge.net/DTD/sodipodi-0.dtd"
   xmlns="http://www.w3.org/2000/svg"
   xmlns:svg="http://www.w3.org/2000/svg"><sodipodi:namedview
     id="namedview1"
     pagecolor="#e5d0ca"
     bordercolor="#999999"
     borderopacity="1"
     inkscape:showpageshadow="2"
     inkscape:pageopacity="0"
     inkscape:pagecheckerboard="0"
     inkscape:deskcolor="#d1d1d1"
     inkscape:document-units="mm"
     inkscape:zoom="0.74033516"
     inkscape:cx="261.36811"
     inkscape:cy="124.26804"
     inkscape:window-width="1920"
     inkscape:window-height="1027"
     inkscape:window-x="1440"
     inkscape:window-y="25"
     inkscape:window-maximized="1"
     inkscape:current-layer="layer1" /><defs
     id="defs1"><inkscape:path-effect
       effect="simplify"
       id="path-effect3"
       is_visible="true"
       lpeversion="1.3"
       threshold="8.51064"
       steps="1"
       smooth_angles="360"
       helper_size="0"
       simplify_individual_paths="false"
       simplify_just_coalesce="false" /><inkscape:path-effect
       effect="simplify"
       id="path-effect1"
       is_visible="true"
       lpeversion="1.3"
       threshold="8.51064"
       steps="1"
       smooth_angles="360"
       helper_size="0"
       simplify_individual_paths="false"
       simplify_just_coalesce="false" /></defs><g
     inkscape:label="Layer 1"
     inkscape:groupmode="layer"
     id="layer1"><path
       style="font-variation-settings:normal;opacity:1;vector-effect:none;fill:#d38d5f;fill-opacity:1;stroke:none;stroke-width:0.264583px;stroke-linecap:butt;stroke-linejoin:miter;stroke-miterlimit:4;stroke-dasharray:none;stroke-dashoffset:0;stroke-opacity:1;-inkscape-stroke:none;stop-color:#000000;stop-opacity:1"
       d="M 95.063925,27.161122 C 83.547134,24.404454 72.691879,19.040174 60.845221,17.680236 c -5.410882,-0.621143 -11.041223,-0.38731 -16.188164,1.501202 -3.297008,1.209735 -5.959867,3.987889 -6.908802,7.39354 -1.354161,4.859972 -0.457027,10.013034 0.898129,14.754492 1.023368,3.580585 2.213672,7.121455 2.826252,10.80919 0.894409,5.384343 0.952146,11.278336 -1.796952,16.165617 -1.147949,2.040796 -2.399349,5.068025 -4.738257,5.091208 -4.764689,0.04723 -9.577434,1.287984 -13.650708,3.776856 -2.585953,1.580083 -5.045697,4.119222 -5.100363,7.321252 -0.03302,1.934034 0.449102,4.078009 1.82373,5.417443 5.250213,5.115791 10.560168,10.532234 13.419028,17.423054 1.118347,2.69559 1.492022,5.60537 1.805065,8.49253 1.144412,10.55476 -0.958581,21.06649 -2.607273,31.44837 -0.934719,5.88596 -0.14871,12.0344 -1.736117,17.79052 -2.082228,7.55039 -2.654229,15.64752 -0.830541,23.31181 1.372955,5.77002 4.732433,11.02705 9.533308,14.64969 1.407265,1.0619 3.062493,1.67854 4.754295,2.12997 6.445383,1.71986 13.237544,0.54185 19.468292,-1.47083 4.640969,-1.49914 9.273393,-3.1109 13.638205,-5.275 12.143416,-6.02079 26.104082,-11.53389 33.391442,-23.01815 7.73228,-12.18541 13.82643,-26.15824 25.10367,-35.29785 1.00077,-0.81107 1.4526,-1.95071 2.08963,-3.04196 2.61722,-4.48334 7.14865,-7.9303 12.28436,-8.93676 3.41785,-0.66981 6.83065,0.76809 9.48741,3.07434 1.02015,0.88557 1.07869,2.30674 1.4839,3.51845 1.31949,3.9457 2.88451,7.99276 5.8231,11.04449 1.67212,1.7365 4.22725,2.65039 6.61119,1.99452 1.66548,-0.45822 3.15604,-1.40039 4.33307,-2.69665 5.99043,-6.59723 9.23893,-15.1939 10.95693,-23.83328 1.32197,-6.64787 1.58803,-13.4379 1.8047,-20.19559 0.50706,-15.814532 2.03921,-32.216313 -2.74097,-47.360021 -5.88601,-18.647011 -13.51594,-36.978574 -24.89908,-52.98606065 -1.92174,-2.70243565 -3.4223,-5.88656795 -6.07831,-7.87215145 -5.71229,-4.2704059 -13.16422,-5.8027529 -20.17123,-4.8099539 -10.33158,1.463845 -19.82103,7.6433386 -25.62597,16.3194121 -0.84817,1.2676686 -1.28399,2.7996637 -2.21894,3.9918173 -3.91629,4.9936166 -4.75183,11.7825176 -9.099774,16.4846726 -0.855086,0.924746 -1.839648,1.731328 -2.925551,2.370697 z"
       id="path3"
       inkscape:path-effect="#path-effect3"
       inkscape:original-d="m 95.063925,27.161122 c -15.977586,-3.802635 -32.27357,-13.247429 -49.01381,-8.460373 -12.497192,3.716247 -9.174347,17.494256 -6.157799,26.767678 2.770646,9.257752 4.29392,21.672993 -4.954889,27.927058 -8.425979,-0.09374 -23.833617,5.730256 -17.094443,16.353216 7.126107,6.920273 14.731968,14.605879 15.300004,25.288159 2.075536,16.85547 -4.254232,33.23799 -4.252199,50.02865 -3.750366,13.28021 -2.918988,31.80353 10.676243,39.16755 11.801151,4.75223 24.484929,-1.18321 35.456305,-5.60938 12.264336,-6.02686 24.153974,-13.6319 33.822453,-23.23068 8.04441,-12.6769 15.68038,-25.843 26.33911,-36.56539 3.40036,-8.53534 16.40131,-15.65777 23.28912,-6.85807 2.00795,7.14591 6.70979,20.86362 16.48709,14.24697 10.72061,-10.85757 13.37015,-27.13567 13.74479,-41.8223 0.63336,-16.904793 0.69999,-34.112538 -2.62312,-50.731521 C 179.21499,31.89244 169.89275,10.430121 155.10539,-7.1955231 139.03172,-18.996924 114.97481,-8.8413735 107.19924,8.167755 c -4.7258,5.863091 -5.23925,14.92137 -12.135315,18.993367 z"
       transform="matrix(1,0,0,0.77405806,-0.75812263,31.371548)" /><path
       style="fill:none;fill-opacity:0.743842;stroke:#000000;stroke-width:2.578;stroke-dasharray:none;stroke-opacity:1;paint-order:stroke fill markers"
       id="path27"
       d="m 90.381571,25.437301 c -0.346848,1.408641 -0.769205,2.812811 -0.882042,4.26531 -0.293404,0.548008 -0.323638,1.187752 -0.560826,1.745631 -0.272513,0.518941 -0.403072,1.055984 -0.42291,1.637425 0.08292,0.436753 -0.217602,0.656709 -0.398529,1.018701 -0.175183,0.272851 -0.0072,0.618209 -0.186798,0.869241 -0.313069,0.167751 -0.211006,0.80478 -0.516703,0.894294 -0.295002,0.02323 -0.352126,0.389345 -0.509124,0.590584 -0.409982,0.47071 -1.00593,0.697638 -1.560811,0.962025 -1.089388,0.477073 -2.175444,0.952493 -3.269166,1.420514 -1.160203,0.388001 -2.205103,1.045099 -3.362949,1.432629 -1.014352,0.437451 -2.09269,0.621199 -3.087478,1.112406 -0.998556,0.418153 -2.01712,0.751771 -2.935301,1.336506 -0.944825,0.459266 -1.741514,1.187635 -2.698792,1.611254 -0.577705,0.349173 -1.156777,0.655026 -1.663772,1.10644 -0.827177,0.650568 -1.525365,1.429131 -2.237105,2.203365 -0.886735,0.924253 -1.594614,2.002068 -2.281997,3.077747 -0.753419,1.06144 -1.450329,2.164136 -1.897591,3.390437 -0.525719,1.311627 -0.935646,2.662722 -1.142524,4.062188 -0.268039,1.541235 -0.7424,3.029458 -0.984575,4.575868 -0.378876,1.574368 -0.639202,3.173558 -1.01781,4.74876 -0.470633,1.756053 -0.590092,3.556468 -0.592117,5.364649 0.03052,1.740704 0.05441,3.481337 0.06315,5.222301 0.0072,2.787346 0.0036,5.57471 7.94e-4,8.362061 -0.103772,2.719027 0.267121,5.417142 0.433578,8.12601 0.151283,3.330242 0.376783,6.658833 0.806278,9.965293 0.222245,2.62135 0.840862,5.1773 1.376823,7.7447 0.757531,3.15529 1.671608,6.27342 2.599356,9.38263 1.171208,3.87648 2.62291,7.64694 4.471699,11.24901 1.189297,2.55466 2.763158,4.88652 4.234556,7.27801 0.863844,1.40402 1.687587,2.83233 2.537323,4.24494 2.328518,3.88102 5.082775,7.49102 8.162538,10.8021 2.530369,2.80561 5.384387,5.30237 8.418092,7.54746 1.90097,1.17075 3.661082,2.65814 5.726935,3.53979 1.548297,0.45023 3.045797,0.99871 4.516257,1.66405 1.61863,0.7316 3.39277,0.92353 5.0859,1.41212 1.82792,0.44761 3.68008,0.78999 5.55521,0.95987 2.08337,0.13167 4.14467,0.43774 6.23249,0.52968 2.53815,0.11294 5.06014,0.4046 7.60222,0.49728 3.17912,-0.0879 6.33864,-0.42549 9.51876,-0.50993 2.98579,-0.2641 5.97435,-0.45331 8.95718,-0.74825 2.53505,-0.21541 5.05611,-0.57708 7.56225,-1.00973 1.99109,-0.30818 3.97458,-0.6631 5.95877,-1.01569 1.85333,-0.17459 3.67821,-0.54213 5.53091,-0.72259 1.68133,-0.24613 3.33431,-0.63324 5.00811,-0.91827 1.32441,-0.27012 2.61869,-0.60725 3.90132,-1.02949 0.73387,-0.1694 1.38895,-0.56479 2.07504,-0.8639 0.74577,-0.42346 1.41417,-0.9034 2.10664,-1.40615 0.78814,-0.48467 1.49824,-1.06026 2.22383,-1.62811 0.53521,-0.57801 1.07774,-1.14277 1.60582,-1.7286 0.52693,-0.71777 1.08919,-1.4059 1.63512,-2.10896 0.25188,-0.30356 0.39119,-0.62993 0.32286,-1.02478 -0.084,-0.44776 -0.0538,-0.92128 -0.0554,-1.37672 0.002,-0.38581 0.003,-0.77164 0.007,-1.15744 0.001,-0.13487 -2.6e-4,-0.26978 -1.3e-4,-0.40467 0.001,-0.15055 -2.7e-4,-0.30108 -1.4e-4,-0.45163 -0.033,-0.49958 -0.98029,-0.24929 -1.30744,-0.22071 1.45669,0.0535 -0.1198,-0.52978 -0.50088,-0.71645 -0.90224,-0.3246 -1.84872,-0.56281 -2.79376,-0.743 -1.31298,-0.22857 -2.61369,-0.53188 -3.92729,-0.76837 -2.20694,-0.42545 -4.38225,-0.98719 -6.56972,-1.4983 -2.18784,-0.39265 -4.38709,-0.70146 -6.57953,-1.06489 -2.29916,-0.22294 -4.52923,-0.78087 -6.76309,-1.33681 -2.47995,-0.73868 -5.04497,-1.11559 -7.54719,-1.76271 -2.11154,-0.57177 -4.24998,-1.05874 -6.34506,-1.68891 -1.68179,-0.48265 -3.37096,-0.95056 -5.03256,-1.49863 -1.74603,-0.44732 -3.43012,-1.08329 -5.13929,-1.64407 -1.77733,-0.65561 -3.48239,-1.49988 -5.1781,-2.34113 -1.55319,-0.74417 -2.96393,-1.72215 -4.47203,-2.54555 -1.0288,-0.4046 -1.89475,-1.08667 -2.80348,-1.69315 -0.96539,-0.69109 -1.89837,-1.42005 -2.86781,-2.10755 -0.78861,-0.5042 -1.44091,-1.16489 -2.17519,-1.74053 -0.8441,-0.64062 -1.48079,-1.48926 -2.13592,-2.3107 -0.79058,-0.99476 -1.50396,-2.03703 -2.35152,-2.98846 -0.84289,-0.85939 -1.65427,-1.74604 -2.38521,-2.70278 -0.72451,-0.98808 -1.45169,-1.99069 -2.05137,-3.0617 -0.63055,-1.22181 -1.58424,-2.228 -2.17926,-3.46687 -0.52665,-0.99619 -0.95608,-2.05364 -1.568495,-3.0022 -0.39565,-0.68635 -0.638554,-1.43056 -0.97503,-2.14494 -0.460285,-1.04314 -0.704003,-2.15079 -1.109315,-3.21489 -0.613508,-1.93046 -1.219169,-3.86348 -1.796757,-5.80511 -0.654949,-1.828897 -0.961109,-3.749537 -1.4146,-5.631492 -0.471553,-1.925923 -0.854493,-3.867991 -1.258858,-5.80872 -0.216501,-1.755214 -0.421122,-3.510452 -0.620247,-5.269151 -0.06034,-1.87285 -0.273246,-3.721068 -0.48832,-5.58048 -0.175049,-1.50127 -0.174943,-3.013298 -0.160687,-4.522066 0.0223,-1.514043 0.02315,-3.028256 0.02302,-4.542427 -0.0016,-2.024491 -0.0027,-4.048982 -0.003,-6.073473 -1.48e-4,-2.028082 3.4e-5,-4.056163 9.8e-5,-6.084245 -0.220387,-1.730332 -0.457235,-3.45082 -0.522981,-5.195575 -0.140875,-1.733185 0.112945,-3.427465 0.357264,-5.135211 0.1582,-1.028467 0.216152,-2.062723 0.198634,-3.101546 -0.0052,-0.221879 -0.02506,-0.441087 -0.02748,-0.662723 -0.0024,-0.701262 2.36e-4,-1.402532 7.94e-4,-2.103795 0.256296,-0.713658 0.455136,-1.410186 0.524452,-2.169025 -0.07483,-0.734126 0.231719,-1.376516 0.418946,-2.068486 0.05955,-0.770469 0.358042,-1.479449 0.612767,-2.20505 0.395796,-1.095478 0.723326,-2.209361 1.264896,-3.244628 0.680808,-1.140561 1.185934,-2.359213 1.725742,-3.568147 0.495343,-1.143982 1.009653,-2.274648 1.501093,-3.420191 0.679947,-1.20595 1.238573,-2.474018 1.765895,-3.752266 0.531989,-0.987585 0.812119,-2.076795 1.286169,-3.089766 0.17253,-0.4809 0.44628,-0.940946 0.56288,-1.440556 -1.03795,-0.01364 -2.067576,0.07433 -3.107153,0.07915 0.04828,-2.13e-4 0.193127,-3.7e-4 0.144846,-6.35e-4 -0.967931,-0.0055 -1.935906,-0.0082 -2.90385,-0.01042 -1.514951,-0.0019 -3.029907,-5.03e-4 -4.544861,5.4e-5 -0.922751,-0.06462 -1.864805,0.08372 -2.785901,3.44e-4 -0.05019,-0.0045 -0.06986,-0.08189 -0.118936,-0.09335 -0.474104,-0.110623 -0.961805,-0.152474 -1.440222,-0.242635 -0.924825,-0.203159 -0.760648,-0.03743 -0.361942,-0.778528 0.574913,-1.073696 0.946602,-2.245225 1.499827,-3.327749 0.712698,-0.839222 1.762694,-1.187961 2.803467,-1.423222 1.106416,-0.393811 2.241127,-0.595172 3.410892,-0.628496 -0.09718,6.61e-4 -0.388644,-0.0014 -0.291526,0.002 1.124297,0.03927 2.220547,0.03753 3.341219,-0.0625 -0.03948,-0.070948 0.757071,-0.3479475 0.604959,-0.3409738 -0.990541,0.045411 -0.708742,0.093695 -0.338246,0.3348798 0.311807,0.359547 0.651603,0.681018 0.941502,1.062071 0.243334,0.500395 0.567983,0.972201 0.73284,1.510315 0.216003,0.370346 0.520959,0.582106 0.571431,1.022012 0.0094,0.495687 -0.0218,0.991142 -0.03069,1.486784 -0.0057,0.332759 -0.0062,0.665564 -0.0053,0.998358 0,0 0.808464,-5.82e-4 0.808464,-5.82e-4 v 0 c -0.004,-0.332074 -0.004,-0.664193 0.002,-0.996253 0.0101,-0.499013 0.0405,-0.997942 0.0319,-1.497003 -0.0469,-0.459214 -0.31523,-0.674838 -0.57313,-1.036709 -0.160946,-0.550918 -0.494774,-1.025049 -0.734354,-1.538192 -0.286702,-0.397079 -0.645581,-0.709128 -0.941689,-1.0915747 -0.621168,-0.3882822 -1.2695,-0.4615559 -1.865691,-0.018111 0.149186,0.027601 0.480359,-0.065326 0.447556,0.082803 -0.0013,0.0058 -3.480043,-0.087546 -3.491894,-0.03999 -1.169654,0.04306 -2.30128,0.261801 -3.410217,0.644384 -1.0521,0.250903 -2.118215,0.614683 -2.8131,1.492478 -0.544201,1.086434 -0.918594,2.255861 -1.501643,3.325205 -0.421862,0.764121 -0.55749,0.747495 0.37324,0.92864 1.956596,0.372951 3.934055,0.388832 5.920507,0.349864 1.413378,-3e-6 1.88713,-5.82e-4 2.969564,6.35e-4 1.446152,0.0029 2.892282,0.0134 4.338444,0.0106 0.117957,-6.88e-4 3.337257,-0.01853 1.508337,-0.202746 -0.13459,0.483099 -0.3685,0.939157 -0.55214,1.404785 -0.469805,1.015624 -0.756436,2.103152 -1.284494,3.093359 -0.527571,1.277956 -1.088586,2.543708 -1.765157,3.751211 -0.49063,1.145409 -1.010423,2.273692 -1.501119,3.419078 -0.536774,1.208744 -1.050269,2.421536 -1.725229,3.563319 -0.538274,1.040413 -0.874109,2.155999 -1.26818,3.255713 -0.257696,0.726305 -0.555728,1.438402 -0.617013,2.211004 -0.187053,0.695534 -0.494136,1.344258 -0.418608,2.082438 -0.06786,0.761486 -0.283586,1.455777 -0.524555,2.176192 -5.29e-4,0.701405 -0.0011,1.402808 -0.0037,2.104208 -5.29e-4,0.241294 0.01812,0.407633 0.03019,0.663929 0.02267,1.034029 -0.03533,2.064565 -0.188513,3.088704 -0.24521,1.712187 -0.498636,3.411913 -0.357531,5.14945 0.0642,1.743964 0.300434,3.463713 0.525751,5.192617 -4.3e-5,2.02809 -1.51e-4,4.056176 2.19e-4,6.084263 5.29e-4,2.02447 0.0019,4.048938 7.94e-4,6.073405 -0.0021,1.51393 -0.0058,3.027889 -0.02783,4.541689 -0.01574,1.512102 -0.0075,3.027542 0.166687,4.53195 0.213797,1.859357 0.427562,3.707574 0.488127,5.580279 0.197644,1.76126 0.401704,3.519059 0.619469,5.276562 0.405371,1.941399 0.791475,3.883678 1.260211,5.811136 0.453845,1.883439 0.758386,3.805986 1.416648,5.635581 0.576918,1.94333 1.184693,3.87703 1.791224,5.81123 0.40554,1.0659 0.645109,2.17539 1.102643,3.22123 0.337354,0.71813 0.584999,1.46251 0.974693,2.15616 0.622006,0.93958 1.04771,1.9977 1.573743,2.99107 0.58611,1.24654 1.54642,2.24942 2.18068,3.47197 0.59646,1.07591 1.3238,2.08172 2.04746,3.07337 0.73076,0.96017 1.54314,1.84862 2.38942,2.70869 0.84896,0.94851 1.56268,1.98778 2.34851,2.98423 0.65838,0.82538 1.29238,1.68114 2.13677,2.32935 0.73667,0.57624 1.38657,1.23816 2.17547,1.74444 0.97252,0.68516 1.90716,1.41137 2.86829,2.11003 0.91609,0.59935 1.77061,1.30646 2.80929,1.69933 1.50988,0.8228 2.92268,1.79684 4.47347,2.54844 1.69648,0.84509 3.40634,1.68528 5.18158,2.35237 1.71018,0.55475 3.38887,1.206 5.13709,1.64391 1.65976,0.55535 3.3524,1.0166 5.03439,1.50055 2.09522,0.63826 4.23953,1.11567 6.35266,1.69106 2.50043,0.65337 5.06631,1.02381 7.54553,1.7638 2.23382,0.55361 4.46048,1.12784 6.76066,1.34346 2.19238,0.36199 4.39022,0.676 6.57923,1.05979 2.18855,0.50675 4.36255,1.07421 6.56903,1.50251 1.31108,0.23295 2.60835,0.54087 3.9171,0.76915 0.94454,0.17339 1.88431,0.41675 2.78941,0.72232 0.80533,0.37845 1.12303,0.74801 2.09788,0.7468 0.31342,-0.02 0.14706,-0.007 -0.5199,-0.0152 -0.0736,-0.001 0.1497,-0.044 0.21991,-0.0217 0.0436,0.0138 -0.0672,0.14128 5.3e-4,0.13722 1.5e-4,0.15056 -10e-4,0.3011 -2.6e-4,0.45165 2.6e-4,0.13475 -5.3e-4,0.26951 2e-5,0.40425 5.3e-4,0.38603 -0.003,0.77204 -0.002,1.15807 7.9e-4,0.46061 -0.0253,0.94025 0.0504,1.39168 0.0777,0.37056 -0.0869,0.67297 -0.31566,0.95625 -0.5517,0.69693 -1.09414,1.39778 -1.63364,2.10315 -0.53136,0.57815 -1.06027,1.15141 -1.60579,1.71557 -0.71808,0.57694 -1.44368,1.12941 -2.22215,1.62526 -0.68382,0.50714 -1.36294,0.96861 -2.10527,1.38878 -0.68207,0.30502 -1.3423,0.68295 -2.07392,0.85619 -1.27807,0.42258 -2.57245,0.75052 -3.89254,1.01871 -1.67213,0.29033 -3.32568,0.67303 -5.00734,0.91264 -1.85093,0.18687 -3.67685,0.54713 -5.52834,0.72917 -1.98346,0.35424 -3.96752,0.70415 -5.95775,1.01542 -2.50257,0.43299 -5.02105,0.78815 -7.55225,1.00542 -2.98304,0.29455 -5.97221,0.48388 -8.95858,0.74238 -2.66316,0.0734 -5.31945,0.25689 -7.97154,0.51066 -2.54037,-0.0899 -5.06017,-0.37948 -7.59576,-0.49771 -2.0877,-0.0876 -4.14795,-0.39263 -6.23037,-0.52636 -1.87327,-0.16293 -3.72112,-0.50494 -5.54795,-0.94521 -1.6909,-0.49986 -3.46756,-0.67615 -5.08992,-1.40027 -1.46686,-0.66918 -2.957232,-1.23345 -4.50928,-1.6673 -2.080482,-0.85132 -3.836726,-2.36073 -5.745414,-3.51879 -3.035451,-2.24016 -5.893803,-4.73106 -8.426436,-7.53243 -3.080176,-3.30554 -5.833343,-6.91247 -8.166487,-10.78587 -0.848714,-1.41294 -1.67028,-2.84223 -2.531956,-4.24729 -1.466758,-2.39172 -3.042801,-4.7201 -4.234847,-7.27081 -1.84952,-3.59625 -3.289109,-7.36467 -4.462013,-11.23513 -0.927692,-3.10655 -1.8327,-6.22428 -2.593133,-9.37617 -0.532802,-2.56596 -1.147776,-5.1204 -1.375095,-7.73888 -0.439275,-3.30383 -0.667266,-6.630294 -0.808276,-9.959822 -0.164695,-2.707349 -0.530669,-5.403921 -0.431565,-8.121197 -5e-6,-2.787457 0.0039,-5.574914 0.0038,-8.362371 -0.0033,-1.740889 -0.02358,-3.48135 -0.05794,-5.221909 0.0033,-1.801672 0.117745,-3.596571 0.588976,-5.346078 0.380336,-1.577411 0.647454,-3.177384 1.023443,-4.755126 0.240175,-1.546905 0.716603,-3.035096 0.985054,-4.576514 0.205409,-1.394629 0.619668,-2.738567 1.142508,-4.045865 0.448985,-1.220195 1.15099,-2.313583 1.897795,-3.373067 0.684978,-1.072629 1.394937,-2.144004 2.280619,-3.063796 0.71175,-0.772461 1.415298,-1.543793 2.241767,-2.194369 0.507838,-0.437737 1.085432,-0.742995 1.659974,-1.083411 0.947026,-0.447968 1.75667,-1.151932 2.696792,-1.622044 0.922875,-0.571185 1.943653,-0.900054 2.935608,-1.327676 0.997617,-0.474329 2.07409,-0.668486 3.086253,-1.102776 1.151457,-0.403233 2.202876,-1.045292 3.360468,-1.438751 1.097187,-0.464251 2.182088,-0.947446 3.274155,-1.422995 0.563809,-0.262673 1.163156,-0.51276 1.569458,-1.001771 0.147889,-0.216937 0.21245,-0.499234 0.507275,-0.556509 0.271846,-0.228438 0.21857,-0.701032 0.519081,-0.935048 0.146727,-0.277312 0.03665,-0.58915 0.186759,-0.875379 0.186925,-0.36273 0.489016,-0.609211 0.398655,-1.053909 0.01802,-0.572119 0.154959,-1.097913 0.420646,-1.608707 0.227745,-0.57178 0.285051,-1.208182 0.561117,-1.771094 0.100288,-1.447729 0.520026,-2.848925 0.874766,-4.249039 z" /><path
       style="fill:none;fill-opacity:0.743842;stroke:#000000;stroke-width:2.578;stroke-dasharray:none;stroke-opacity:1;paint-order:stroke fill markers"
       id="path28"
       d="m 91.18029,40.207969 c 0.342246,2.805912 0.42001,5.634083 0.444299,8.457761 0.05645,2.378768 0.221247,4.78205 0.557011,7.140302 0.254569,2.098853 0.548913,4.191236 0.803473,6.290324 0.08533,1.95273 0.249796,3.884347 0.488059,5.824013 0.250822,1.592509 0.439782,3.20729 0.749546,4.79039 0.257879,1.503992 0.684945,2.965754 1.096423,4.433218 0.417716,1.592522 0.755864,3.210729 1.29386,4.768532 0.468725,1.55158 0.926129,3.104319 1.473234,4.632955 0.54801,1.612847 1.187868,3.194275 1.711685,4.815969 0.63064,2.12239 1.58615,4.120955 2.56531,6.099244 0.86902,1.807528 1.94534,3.503953 3.08228,5.152453 0.98326,1.60298 2.16503,3.04888 3.37459,4.4825 0.76437,1.36804 1.69276,2.6156 2.59469,3.89014 0.89021,1.21302 1.84056,2.38399 2.80883,3.53623 1.19965,1.6075 2.44022,3.17319 3.72535,4.71329 1.36667,1.26999 2.54702,2.71462 3.80974,4.08035 0.94835,0.97175 1.95918,1.87891 2.93516,2.82233 1.18144,0.72043 2.3395,1.47441 3.50068,2.22755 1.3552,1.19931 2.94855,2.03893 4.43116,3.06427 1.07564,0.95152 2.3655,1.55048 3.59764,2.25304 1.28705,0.80805 0.64297,0.42381 1.93094,1.15491 1.7763,0.99215 3.39749,2.21495 5.2042,3.15317 1.27866,0.74185 2.658,1.27941 4.03199,1.81339 1.17433,0.3724 2.33082,0.80345 3.48936,1.22352 1.21795,0.42919 2.42814,0.87709 3.64242,1.31769 1.06858,0.26318 2.14889,0.37552 3.20336,0.71139 1.36869,0.34302 2.69631,0.81788 4.09503,1.02485 1.1287,0.19551 2.19879,0.58852 3.29592,0.89754 1.40014,0.27038 2.78956,0.59361 4.18887,0.87431 1.5684,0.41936 3.12199,0.88481 4.67477,1.35632 1.03968,0.50664 2.21664,0.6514 3.22309,1.21432 0.47203,0.12026 0.82498,0.41998 1.22631,0.67578 0.31134,0.3442 0.78785,0.42196 1.06765,0.78751 0.24779,0.19734 0.46059,0.46026 0.57019,0.76092 -0.0572,0.13772 -0.0561,0.30168 -0.0507,0.45227 0.0203,0.14824 0.0175,0.2984 0.0164,0.44774 0.001,0.0342 -0.002,0.0683 -0.003,0.10245 0,0 0.80973,0.005 0.80973,0.005 v 0 c 7.9e-4,-0.0357 0.003,-0.0714 0.002,-0.10715 2.7e-4,-0.15028 0.006,-0.30302 -0.0158,-0.45148 -0.008,-0.16186 0.0113,-0.32192 0.0503,-0.47591 -0.10132,-0.30549 -0.31128,-0.6033 -0.57376,-0.78466 -0.27784,-0.39956 -0.74277,-0.45887 -1.06957,-0.81819 -0.4098,-0.25303 -0.74602,-0.57449 -1.22979,-0.67927 -1.00994,-0.5721 -2.18471,-0.72027 -3.23263,-1.23055 -1.55191,-0.48025 -3.11328,-0.92774 -4.67901,-1.3638 -1.39715,-0.27768 -2.7825,-0.6088 -4.18105,-0.86949 -1.10201,-0.29998 -2.16937,-0.70802 -3.30019,-0.90723 -1.40046,-0.19532 -2.7238,-0.67184 -4.09298,-1.0113 -1.05171,-0.34939 -2.12658,-0.4684 -3.20088,-0.70915 -1.21715,-0.43648 -2.4261,-0.89012 -3.64632,-1.31695 -1.15616,-0.4235 -2.31239,-0.85505 -3.48677,-1.22232 -1.37632,-0.52729 -2.75617,-1.06619 -4.03648,-1.80416 -1.8114,-0.93187 -3.43268,-2.15285 -5.20713,-3.14988 -1.29067,-0.72676 -0.64589,-0.34176 -1.93264,-1.15785 -1.22855,-0.70259 -2.52466,-1.28624 -3.59379,-2.24307 -1.48085,-1.02728 -3.07625,-1.86046 -4.42444,-3.0673 -1.15745,-0.75301 -2.30859,-1.51165 -3.499,-2.21223 -0.97485,-0.94492 -1.98709,-1.8505 -2.94026,-2.81763 -1.26582,-1.3613 -2.43635,-2.81473 -3.8105,-4.07619 -1.28712,-1.53879 -2.52924,-3.1029 -3.72526,-4.71354 -0.96687,-1.14971 -1.90869,-2.32318 -2.80221,-3.52996 -0.90109,-1.27832 -1.84677,-2.51838 -2.6012,-3.8966 -1.20973,-1.43062 -2.39179,-2.87305 -3.37276,-4.47496 -1.13922,-1.64353 -2.21613,-3.337021 -3.08633,-5.140741 -0.9785,-1.974209 -1.93453,-3.968373 -2.56216,-6.087561 -0.52048,-1.623603 -1.157899,-3.206658 -1.710317,-4.818587 -0.547251,-1.528371 -1.002112,-3.081382 -1.471401,-4.632277 -0.543636,-1.554554 -0.874326,-3.17314 -1.294082,-4.76368 -0.411334,-1.465442 -0.834588,-2.925823 -1.095438,-4.426955 -0.313296,-1.58038 -0.496287,-3.194662 -0.751515,-4.784641 -0.23931,-1.939647 -0.407096,-3.870751 -0.490612,-5.823841 C 93.521156,59.98711 93.224971,57.894373 92.97145,55.794737 92.628899,53.440993 92.472049,51.039969 92.409634,48.665 92.381562,45.838398 92.296726,43.008917 91.975529,40.198077 Z" /><path
       style="fill:none;fill-opacity:0.743842;stroke:#000000;stroke-width:2.578;stroke-dasharray:none;stroke-opacity:1;paint-order:stroke fill markers"
       id="path29"
       d="m 176.80772,148.75884 c -0.49381,2.10875 -1.06403,4.19871 -1.3089,6.35464 -0.13972,2.08172 0.20652,4.17952 0.68739,6.20094 0.13682,0.38963 0.17371,0.82509 0.3543,1.20131 0,0 0.80788,-0.0419 0.80788,-0.0419 v 0 c -0.16267,-0.37584 -0.26739,-0.77967 -0.36861,-1.17805 -0.48671,-2.0113 -0.83093,-4.09996 -0.69011,-6.1733 0.24426,-2.15152 0.80743,-4.24035 1.31444,-6.34142 z" /><path
       style="fill:none;fill-opacity:0.743842;stroke:#000000;stroke-width:2.578;stroke-dasharray:none;stroke-opacity:1;paint-order:stroke fill markers"
       id="path30"
       d="m 105.83646,155.8514 c 0.122,1.7495 0.43817,3.45569 0.86994,5.15089 0.15208,0.71417 0.27052,0.45488 1.27373,0.4007 0.33044,-0.0179 0.65938,-0.0577 0.98959,-0.0795 0.58834,-0.20233 1.28725,-0.22471 1.85601,-0.48862 0.16465,-0.0764 0.28959,-0.21894 0.43602,-0.3262 0.61169,-0.4913 0.3873,-1.56673 0.37683,-2.26179 -0.0224,-1.16819 -0.18175,-2.39383 -0.76677,-3.42231 -0.41015,-0.52227 -0.89217,-0.99029 -1.51612,-1.23418 -0.73492,-0.23357 -1.46098,-0.10538 -2.10654,0.23422 -0.38772,0.19883 -0.7389,0.3099 -0.99906,0.67798 -0.10965,0.18811 -0.0369,0.41442 -0.0248,0.62158 0.0169,0.34361 0.0198,0.68772 0.0158,1.03166 -0.003,0.28983 -0.001,0.57972 -0.002,0.86957 -0.002,0.28349 5.3e-4,0.56698 5.3e-4,0.85047 -9e-5,0.11355 -5.3e-4,0.22711 -0.001,0.34065 0,0 0.8088,0 0.8088,0 v 0 c -8e-4,-0.11355 -0.001,-0.2271 -0.001,-0.34066 -6e-5,-0.28348 0.002,-0.56695 1.9e-4,-0.85043 -5.3e-4,-0.28969 -1e-5,-0.57939 0.003,-0.86907 5.3e-4,-0.34558 2e-5,-0.69132 -0.0179,-1.03655 -0.009,-0.18721 -0.0822,-0.40025 0.0244,-0.56621 0.25809,-0.33903 0.63197,-0.44033 0.99306,-0.64143 0.0812,-0.0419 0.38635,-0.20786 0.49201,-0.23186 0.0891,-0.0202 0.36384,-0.006 0.27336,-0.0179 -1.09415,-0.14956 -0.48138,0.002 -0.25771,0.0257 0.62567,0.21704 1.09728,0.67191 1.51346,1.17859 0.59662,1.008 0.75032,2.2268 0.76996,3.38128 0.009,0.6789 0.23057,1.71444 -0.37962,2.18505 -0.6616,0.48136 -1.49341,0.59291 -2.28137,0.77066 -0.67804,0.0476 -1.00603,0.0681 -0.99533,0.086 0.088,0.14729 0.34214,0.0285 0.512,0.0526 0.0328,0.005 -0.0747,0.0283 -0.0992,0.006 -0.0927,-0.0847 0.078,-0.32197 -0.088,-0.36629 -0.4424,-1.69063 -0.77384,-3.39095 -0.87499,-5.14193 z" /><path
       style="fill:none;fill-opacity:0.743842;stroke:#000000;stroke-width:2.578;stroke-dasharray:none;stroke-opacity:1;paint-order:stroke fill markers"
       id="path31"
       d="m 94.016747,145.73177 c -0.01847,1.06819 -0.344466,2.71938 0.959112,3.13259 1.239883,0.10595 1.505699,-0.19029 1.875973,-1.18431 0.05901,-0.8416 0.232402,-1.62428 0.448543,-2.43768 0.185171,-0.8166 0.247086,-1.30508 -0.06131,-2.08067 -0.624559,-0.90964 -1.299098,-1.86432 -2.202563,-2.51841 -0.612495,-0.36144 -1.229355,-0.36205 -1.940452,-0.17763 -0.101764,0.0264 -0.554561,0.45845 -0.629933,0.52767 -0.350319,0.41579 -0.911437,0.75497 -0.965644,1.33127 0.0027,0.0406 0.0053,0.0813 0.008,0.12196 0,0 0.807815,-0.006 0.807815,-0.006 v 0 c -0.0029,-0.0361 -0.0058,-0.0722 -0.0087,-0.10833 0.05435,-0.54528 0.639202,-0.87589 0.958292,-1.27213 0.09854,-0.088 0.191921,-0.18219 0.295619,-0.26407 0.106227,-0.0839 0.40041,-0.11494 0.333028,-0.23233 -0.08742,-0.15231 -0.348943,-0.047 -0.518853,-0.0914 -0.353412,-0.0923 1.051123,0.11128 0.862539,0.24755 0.910765,0.62194 1.570098,1.58338 2.198227,2.47215 0.303141,0.75961 0.248502,1.2251 0.06205,2.02931 -0.217188,0.8099 -0.382513,1.59298 -0.450061,2.42937 -0.114917,0.29527 -0.252161,0.55333 -0.435229,0.81345 -0.0415,0.059 -0.195985,0.13002 -0.135213,0.16881 0.167018,0.1066 0.400675,0.0388 0.582806,0.11685 0.08832,0.0378 -0.192061,0.006 -0.288094,0.009 -1.324724,-0.28401 -0.975741,-2.01381 -0.958911,-3.01623 z" /><path
       style="fill:none;fill-opacity:0.743842;stroke:#000000;stroke-width:2.578;stroke-dasharray:none;stroke-opacity:1;paint-order:stroke fill markers"
       id="path32"
       d="m 76.443911,114.78185 c -1.409737,1.48177 -2.442107,3.1675 -2.721962,5.20635 -0.04959,0.86248 -0.04239,1.80391 0.596464,2.4641 0.937998,0.10692 2.123916,0.039 3.065975,-0.18815 0.807662,-0.1638 1.483612,-0.65838 1.8307,-1.40727 0.482973,-0.84345 0.550336,-1.80096 0.577903,-2.74979 0.06514,-0.93866 -0.02289,-1.79296 -0.383,-2.65903 -0.404215,-0.64502 -0.726538,-1.32744 -1.373854,-1.75982 -0.83588,-0.30276 -1.817754,-0.11796 -2.700806,-0.0773 0,0 0.79095,0.12158 0.79095,0.12158 v 0 c 0.334196,-0.0151 0.679805,0.0449 1.00271,-0.0426 0.122838,-0.0333 -0.254751,-0.017 -0.381703,-0.008 -0.164913,0.0116 0.553685,-0.0223 0.488291,0.0868 0.660043,0.40413 0.962673,1.07877 1.370967,1.71147 0.365448,0.85419 0.451652,1.69477 0.386192,2.62461 -0.02773,0.93965 -0.09788,1.8834 -0.580938,2.7163 -0.35909,0.72854 -1.027102,1.18089 -1.820781,1.33554 -0.464711,0.0991 -0.901549,0.11809 -1.372843,0.16076 -0.127244,0.0115 -0.466371,-0.0556 -0.381238,0.0396 0.101187,0.11323 0.30267,0.0254 0.453673,0.0414 0.05574,0.006 -0.111861,-0.007 -0.167788,-0.0111 -0.670785,-0.59496 -0.640488,-1.57012 -0.60397,-2.38834 0.274309,-2.02747 1.312958,-3.69526 2.718866,-5.1619 z" /><path
       style="fill:none;fill-opacity:0.743842;stroke:#000000;stroke-width:2.578;stroke-dasharray:none;stroke-opacity:1;paint-order:stroke fill markers"
       id="path33"
       d="m 74.696584,129.58022 c 0.522264,0.66279 1.355209,3.23889 2.06528,3.50657 1.225499,0.033 1.429202,-0.33545 2.248217,-0.99011 0.563414,-0.40228 -0.189698,-1.44341 -0.382572,-1.91947 -0.462571,-0.58365 -0.522938,-1.73472 -1.294196,-1.98569 -0.615487,0.0476 -1.533215,-0.19646 -2.070986,0.23805 -0.299569,0.31305 -0.721172,0.27333 -0.890799,0.69456 -0.05282,0.24187 0.0059,0.49147 0.01831,0.73672 0.0068,0.16394 0.0095,0.32799 0.01103,0.49205 0,0 0.807842,-0.001 0.807842,-0.001 v 0 c -0.0029,-0.16495 -0.0066,-0.32987 -0.01283,-0.49473 -0.01003,-0.23286 -0.06574,-0.47155 -0.01781,-0.70012 0.17059,-0.36759 0.632743,-0.34234 0.88692,-0.65067 0.324327,-0.19853 1.259094,-0.11059 0.227277,-0.20544 -0.08066,-0.007 0.161981,-0.002 0.242973,-0.003 0.781404,0.13449 0.843224,1.37055 1.294505,1.9096 0.127283,0.32178 0.649589,1.20774 0.613693,1.56251 -0.01119,0.11073 -0.164901,0.20113 -0.235275,0.25497 -0.218821,0.17924 -0.418515,0.41385 -0.646102,0.57695 -0.314343,0.22526 -1.144188,0.31682 -0.0011,0.37777 -0.0653,-0.007 -0.142812,0.017 -0.195914,-0.0217 -0.235574,-0.17164 -0.412041,-0.61869 -0.524105,-0.8378 -0.440867,-0.86197 -0.884616,-1.72264 -1.348907,-2.5723 z" /><path
       style="fill:none;fill-opacity:0.743842;stroke:#000000;stroke-width:2.578;stroke-dasharray:none;stroke-opacity:1;paint-order:stroke fill markers"
       id="path34"
       d="m 89.468002,127.03137 c 0.05901,0.57855 -0.235551,2.69872 0.179403,3.11775 1.51017,-0.16892 1.197131,-0.37533 2.035048,-1.13146 0.214879,-0.12642 0.389009,-0.28741 0.569013,-0.46193 0.199094,-0.24959 0.347906,-0.54404 0.502825,-0.842 0.292965,-0.65461 0.05501,-1.18712 -0.181161,-1.80887 -0.230063,-0.84905 -0.565668,-1.06098 -1.58307,-0.45463 -0.426567,0.22244 -0.854914,0.36994 -1.336416,0.37208 0,0 0.797703,0.12424 0.797703,0.12424 v 0 c 0.481303,-0.0226 0.914379,-0.18676 1.33908,-0.4117 0.07984,-0.0433 0.315711,-0.0804 0.239522,-0.12984 -0.162401,-0.10536 -0.382352,-0.0611 -0.574162,-0.0873 -0.03748,-0.005 0.0836,-0.002 0.110892,0.0241 0.130588,0.12534 0.05606,0.47951 0.203568,0.59207 0.226407,0.60213 0.475657,1.10712 0.179472,1.74102 -0.149638,0.28382 -0.295518,0.58177 -0.502766,0.81596 -0.178404,0.17032 -0.370766,0.31408 -0.568005,0.4606 -0.229121,0.21905 -0.385686,0.48033 -0.634833,0.67408 -0.09155,0.0712 -0.324567,0.10667 -0.275932,0.21196 0.07515,0.1627 0.321977,0.1575 0.482968,0.23626 -0.369483,-0.17062 -0.168354,-2.61989 -0.18615,-3.03107 z" /><path
       style="fill:none;fill-opacity:0.743842;stroke:#000000;stroke-width:2.578;stroke-dasharray:none;stroke-opacity:1;paint-order:stroke fill markers"
       id="path35"
       d="m 66.919419,65.887332 c 0.362434,0.960067 0.316945,2.509665 1.30415,3.112259 0.218887,0.112316 0.442619,0.214718 0.666477,0.316561 0.872684,-0.13095 0.878108,-0.422614 1.245407,-1.044064 0.101992,-0.230929 0.03035,-0.564806 0.02394,-0.814324 -0.04157,-0.354119 0.08435,-0.761109 -0.108386,-1.071198 -0.28379,-0.232452 -0.587349,-0.44065 -0.871334,-0.675232 -0.49017,-0.279054 -1.139682,-0.115517 -1.695622,-0.08371 -0.03785,0.0026 -0.0757,0.0053 -0.113559,0.0079 0,0 0.798753,0.121082 0.798753,0.121082 v 0 c 0.03748,-0.0024 0.07496,-0.0047 0.112448,-0.0071 1.152924,-0.05989 -0.863386,-0.12337 0.0936,0.03282 0.280646,0.231892 0.566615,0.456171 0.870407,0.655233 0.220904,0.246303 0.048,0.714216 0.109376,1.022011 0.0046,0.238163 0.07195,0.548492 -0.02643,0.769869 -0.449556,0.780722 -0.833003,0.857875 0.365043,0.988359 -0.229936,-0.08358 -0.446545,-0.202475 -0.668297,-0.305215 -0.942499,-0.429993 -1.003554,-2.194999 -1.309003,-3.036562 z" /><path
       style="fill:none;fill-opacity:0.743842;stroke:#000000;stroke-width:2.578;stroke-dasharray:none;stroke-opacity:1;paint-order:stroke fill markers"
       id="path36"
       d="m 67.783895,79.18076 c -0.03082,0.693817 -0.02588,1.593496 0.696791,1.955882 0.114384,0.05736 0.243734,0.07803 0.365601,0.117047 0.816475,0.03681 1.969614,0.217852 2.740909,-0.188423 0.274476,-0.178702 0.332774,-0.438809 0.355306,-0.745458 0.0083,-0.380993 -0.174874,-0.735394 -0.432792,-1.003946 -0.314074,-0.29696 -0.631378,-0.554551 -1.033526,-0.717277 -0.642808,-0.186886 -1.323573,-0.108178 -1.984804,-0.0835 -0.203949,-0.01749 -0.355446,0.05212 -0.456213,0.226357 0,0 0.805865,0.04755 0.805865,0.04755 v 0 c 0.111123,-0.138211 0.27141,-0.158279 0.442558,-0.151408 0.2677,-0.0096 1.086541,-0.02082 -0.178935,-0.01781 -0.05793,1.38e-4 0.115975,1.3e-4 0.173728,0.0047 0.162484,0.0127 0.237355,0.03509 0.40235,0.07029 0.43162,0.158219 0.692314,0.378802 1.029141,0.683938 0.253471,0.244805 0.437304,0.572918 0.428303,0.935267 -0.02074,0.283734 -0.08393,0.51421 -0.348999,0.662372 -0.164018,0.07621 -0.213476,0.110064 -0.406903,0.144642 -0.09736,0.01741 -0.196707,0.02109 -0.29533,0.02844 -0.129392,0.0097 -0.301789,-0.0738 -0.388597,0.02265 -0.01476,0.0164 1.090211,0.0095 -0.06286,-0.0208 -0.120628,-0.03062 -0.247401,-0.04306 -0.361889,-0.09187 -0.729869,-0.311147 -0.732253,-1.199131 -0.692703,-1.867286 z" /><path
       style="fill:none;fill-opacity:0.743842;stroke:#000000;stroke-width:2.578;stroke-dasharray:none;stroke-opacity:1;paint-order:stroke fill markers"
       id="path37"
       d="m 76.269921,92.085611 c 0.242631,0.510855 0.545039,1.441527 0.993878,1.811364 0.311462,-0.0059 0.624242,0.01146 0.934384,-0.01778 0.225785,-0.02127 0.866198,-0.53204 1.02166,-0.678328 0.415676,-0.404836 0.599728,-0.960109 0.759206,-1.504188 0.0054,-0.517491 -0.425395,-0.818568 -0.828821,-1.063342 -0.515744,-0.317463 -1.082228,-0.494697 -1.684679,-0.522904 -0.313952,0.0019 -0.627954,1.48e-4 -0.941858,0.0059 -0.115964,0.0021 -0.198409,0.02724 -0.144119,0.152821 0,0 0.802897,-0.103352 0.802897,-0.103352 v 0 c -0.0098,0.02907 -0.01932,0.05044 -0.01463,0.08444 0.0046,0.03366 0.162557,-0.06394 0.150886,-0.01114 -0.215376,-0.0019 -0.430752,-0.0037 -0.646128,-0.0055 0.600646,0.007 1.169471,0.167319 1.684475,0.482835 0.372181,0.206452 0.809252,0.489072 0.820573,0.957543 -0.15331,0.53327 -0.339495,1.07157 -0.753721,1.460627 -0.219763,0.195188 -0.437848,0.341598 -0.695214,0.482955 -0.10596,0.0582 -0.445746,0.126351 -0.328157,0.1544 0.216024,0.05153 0.443071,0.03122 0.664609,0.04682 -0.404603,-0.218694 -0.814345,-1.347398 -0.998849,-1.755391 z" /><path
       style="fill:none;fill-opacity:0.743842;stroke:#000000;stroke-width:2.578;stroke-dasharray:none;stroke-opacity:1;paint-order:stroke fill markers"
       id="path38"
       d="m 107.80933,156.01532 c 0.24616,0.91767 0.2822,1.88323 0.5929,2.78222 0.0745,0.20733 0.16181,0.33963 0.28701,0.51683 0.17794,0.20148 0.39862,0.35121 0.62482,0.49119 0.26625,-0.0712 0.5615,-0.0733 0.79875,-0.21357 0.0725,-0.0428 -0.008,-0.16816 -0.0107,-0.25227 -0.0194,-0.50229 -0.0361,-0.99306 0.0187,-1.49339 0.0444,-0.36824 0.1977,-0.71169 0.22559,-1.0816 0.0183,-0.18955 -0.10335,-0.33516 -0.26308,-0.41903 0,0 -0.80187,0.1055 -0.80187,0.1055 v 0 c 0.15306,2.6e-4 0.27756,0.16437 0.25845,0.30772 -0.0252,0.36759 -0.17824,0.71171 -0.21328,1.07884 -0.054,0.50421 -0.0398,0.99866 -0.0251,1.50483 0.002,0.0839 -0.0696,0.21794 0.007,0.25158 0.24863,0.10882 0.53826,0.07 0.80739,0.105 -0.24254,-0.0623 -0.43757,-0.27705 -0.62548,-0.4345 -0.1153,-0.16023 -0.21371,-0.31135 -0.28856,-0.49443 -0.32441,-0.88954 -0.36901,-1.84966 -0.5958,-2.76623 z" /><path
       style="fill:none;fill-opacity:0.743842;stroke:#000000;stroke-width:2.578;stroke-dasharray:none;stroke-opacity:1;paint-order:stroke fill markers"
       id="path39"
       d="m 132.67308,162.34348 c 0.42726,0.93179 1.0365,1.43968 1.99966,1.7434 0.74898,0.14003 1.37189,0.28636 1.62557,-0.45723 0.0549,-0.25005 0.26497,-0.3766 0.31921,-0.631 0.0272,-0.30695 0.006,-0.61545 -0.002,-0.92286 0.0232,-0.37362 -0.2773,-0.50997 -0.58777,-0.60747 -0.61948,-0.10242 -1.22515,-0.25327 -1.85238,-0.30431 -0.73715,-0.003 -1.57155,-0.16767 -2.20283,0.28592 -0.11292,0.10578 -0.25645,0.16757 -0.19842,0.32716 0,0 0.80555,-0.0672 0.80555,-0.0672 v 0 c -0.089,0.0837 0.16236,-0.18821 0.1924,-0.18114 0.15308,-0.094 0.13143,-0.0927 0.30096,-0.14976 0.0704,-0.0237 0.28417,-0.0409 0.21352,-0.0639 -0.17279,-0.0562 -0.36468,-0.0107 -0.54341,-0.0434 -0.21099,-0.0387 0.87271,0.041 0.64342,0.0113 0.62652,0.0419 1.2278,0.19462 1.84573,0.28901 0.28034,0.07 0.60039,0.16205 0.57976,0.50559 0.006,0.30064 0.0296,0.60266 3e-5,0.9026 -0.0611,0.2367 -0.28346,0.37221 -0.31686,0.62169 -0.0416,0.10902 -0.0837,0.25219 -0.18943,0.32189 -0.0398,0.0262 -0.17527,0.0518 -0.12876,0.0623 0.093,0.0209 1.07009,0.0781 0.28601,-7.9e-4 -0.95863,-0.2727 -1.57421,-0.74891 -1.99439,-1.67398 z" /><path
       style="fill:none;fill-opacity:0.743842;stroke:#000000;stroke-width:2.578;stroke-dasharray:none;stroke-opacity:1;paint-order:stroke fill markers"
       id="path40"
       d="m 156.48442,150.94985 c -0.10551,0.89726 -0.18503,1.79761 -0.22218,2.70037 0.14159,0.48402 1.17879,0.10506 1.65169,0.0645 0.41957,-0.12785 0.55746,-0.16402 0.77843,-0.53254 0.18057,-0.28412 0.19625,-0.45169 0.0628,-0.74838 -0.0846,-0.26387 -0.19694,-0.4884 -0.34563,-0.72061 -0.23173,-0.16697 -0.47696,-0.32451 -0.72032,-0.47815 -0.32277,-0.23074 -0.64321,-0.42167 -1.0418,-0.46075 -0.20046,-0.0298 -0.39155,-0.0967 -0.57545,-0.1796 0,0 -0.80157,0.0908 -0.80157,0.0908 v 0 c 0.18542,0.0922 0.38098,0.16118 0.58258,0.20913 0.40077,0.0148 0.71939,0.181 1.03788,0.42253 0.24239,0.14138 0.45353,0.33184 0.71416,0.4419 0.15166,0.23694 0.26596,0.43361 0.34672,0.70869 0.1318,0.29376 0.11669,0.37867 -0.0629,0.67041 -0.18054,0.29131 -0.43037,0.38979 -0.76774,0.45875 -0.19368,0.0204 -0.24264,0.0209 -0.42879,0.0579 -0.0575,0.0115 -0.22893,0.0302 -0.17119,0.0403 1.31062,0.22896 0.65409,0.15287 0.54323,-0.0425 0.0162,-0.90048 0.0997,-1.79885 0.21702,-2.69143 z" /><path
       style="fill:none;fill-opacity:0.743842;stroke:#000000;stroke-width:2.578;stroke-dasharray:none;stroke-opacity:1;paint-order:stroke fill markers"
       id="path41"
       d="m 121.64869,130.95086 c 0.71367,0.67417 0.76231,1.71266 1.79306,1.75798 0.81841,-0.005 1.31365,0.0808 1.34215,-0.76287 -0.0235,-0.32658 -0.24219,-0.64692 -0.4601,-0.88195 -0.33004,-0.32472 -0.72725,-0.48597 -1.18195,-0.51627 -0.56594,-0.0387 -1.12761,0.021 -1.69163,0.0411 l 0.79709,0.12301 v 0 c 0.31619,-0.0138 1.45598,-0.0666 0.10026,-0.042 0.4485,0.0101 0.84508,0.13731 1.17646,0.45616 0.21413,0.20649 0.42289,0.51757 0.45558,0.81695 -0.0309,0.78655 -0.87683,0.57073 0.25176,0.64156 -1.02648,0.0243 -1.87983,-0.75856 -2.59135,-1.41252 z"
       sodipodi:nodetypes="cccccccscccccc" /><path
       style="fill:none;fill-opacity:0.743842;stroke:#000000;stroke-width:2.578;stroke-dasharray:none;stroke-opacity:1;paint-order:stroke fill markers"
       id="path42"
       d="m 77.290014,117.58193 c -0.516827,0.9875 -0.89526,2.03761 -1.450843,3.00475 -0.116562,0.1603 -0.128982,0.45252 -0.349573,0.50536 0,0 0.80201,0.0913 0.80201,0.0913 v 0 c 0.190678,-0.13181 0.228796,-0.36303 0.342263,-0.55582 0.540797,-0.97768 0.924068,-2.02834 1.451573,-3.01336 z" /><path
       style="fill:none;fill-opacity:0.743842;stroke:#000000;stroke-width:2.578;stroke-dasharray:none;stroke-opacity:1;paint-order:stroke fill markers"
       id="path43"
       d="m 93.456322,143.09035 c -0.503436,0.80308 -1.076359,1.63122 -1.184476,2.59431 -0.05269,0.40348 0.269592,0.63867 0.398217,0.96919 -0.03467,0.26946 0.0083,0.50409 0.128399,0.74939 0.09548,0.17074 0.02883,0.0719 0.228423,0.27518 0.04668,0.034 0.527185,-0.62609 0.480512,-0.66007 v 0 c 0.111962,0.16249 0.123587,0.18783 0.0533,0.0644 -0.02304,-0.0422 -0.08128,-0.071 -0.08142,-0.11911 -5.3e-4,-0.18618 0.05186,-0.36859 -0.01757,-0.55273 -0.08782,-0.24272 -0.249034,-0.41562 -0.347033,-0.64181 0.110858,-0.83531 0.75733,-1.52609 1.09619,-2.27253 0.02873,-0.0534 -0.725802,-0.45962 -0.754531,-0.40627 z" /><path
       style="fill:none;fill-opacity:0.743842;stroke:#000000;stroke-width:2.578;stroke-dasharray:none;stroke-opacity:1;paint-order:stroke fill markers"
       id="path44"
       d="m 92.713743,142.18273 c -0.331751,0.92768 -0.817113,1.80379 -1.106591,2.74604 -0.165306,0.38919 0.167661,0.60877 0.250021,0.93266 0.0236,0.38175 0.119655,0.76044 0.275915,1.10919 0.01945,0.0552 0.799629,-0.21979 0.780185,-0.27496 v 0 c -0.130821,-0.33567 -0.19122,-0.69656 -0.24883,-1.05032 -0.07367,-0.21104 -0.06324,-0.23077 -0.183528,-0.40477 -0.127098,-0.18386 -0.05791,0.21112 -0.05592,-0.0801 0.347094,-0.90337 0.837428,-1.75223 1.099101,-2.69096 0.02027,-0.0573 -0.790075,-0.34405 -0.81035,-0.28675 z" /><path
       style="fill:none;fill-opacity:0.743842;stroke:#000000;stroke-width:2.578;stroke-dasharray:none;stroke-opacity:1;paint-order:stroke fill markers"
       id="path45"
       d="m 154.35458,149.81081 c -0.77347,0.84632 -1.61564,1.66519 -2.04014,2.7484 -0.14271,0.85838 0.24252,1.08976 1.00472,1.08545 0.11714,0.17634 0.41243,-0.53262 0.35911,-0.37166 -0.11771,0.35534 -0.31699,0.2454 0.22045,0.3356 0.74398,0.13042 1.49058,0.25944 2.24729,0.262 0.0874,-0.2084 0.17472,-0.41679 0.26208,-0.62519 -0.014,-0.057 -0.81992,0.14096 -0.80593,0.19795 v 0 c 0.11237,-0.12359 0.22474,-0.24717 0.3371,-0.37075 0.0477,5.3e-4 0.18638,0.0217 0.1431,0.002 -0.0558,-0.0258 -0.12244,-0.0116 -0.18329,-0.0203 -0.56067,-0.0802 -1.11853,-0.18168 -1.68032,-0.25482 -0.26285,-0.0353 -0.76312,-0.12429 -1.00598,-0.0458 -0.0815,0.0263 -0.54044,0.48674 -0.15435,0.10953 0.48922,0.0354 0.11121,-0.008 0.0888,0.0427 -0.0122,0.0278 -0.0458,0.28403 -0.0113,-0.0658 0.42845,-0.96626 1.2638,-1.67385 1.89512,-2.50431 0.0371,-0.0478 -0.63931,-0.5725 -0.6764,-0.52467 z" /></g></svg>
