<?xml version="1.0" encoding="UTF-8" standalone="no"?>
<!-- Created with Inkscape (http://www.inkscape.org/) -->

<svg
   width="210mm"
   height="210mm"
   viewBox="0 0 210 210"
   version="1.1"
   id="svg1"
   xml:space="preserve"
   inkscape:version="1.3.2 (091e20e, 2023-11-25)"
   sodipodi:docname="daisy.svg"
   inkscape:export-filename="daisy.png"
   inkscape:export-xdpi="700"
   inkscape:export-ydpi="700"
   xmlns:inkscape="http://www.inkscape.org/namespaces/inkscape"
   xmlns:sodipodi="http://sodipodi.sourceforge.net/DTD/sodipodi-0.dtd"
   xmlns="http://www.w3.org/2000/svg"
   xmlns:svg="http://www.w3.org/2000/svg"><sodipodi:namedview
     id="namedview1"
     pagecolor="#e5d0ca"
     bordercolor="#999999"
     borderopacity="1"
     inkscape:showpageshadow="2"
     inkscape:pageopacity="0"
     inkscape:pagecheckerboard="0"
     inkscape:deskcolor="#d1d1d1"
     inkscape:document-units="mm"
     inkscape:zoom="0.35742608"
     inkscape:cx="181.85578"
     inkscape:cy="456.03835"
     inkscape:window-width="1312"
     inkscape:window-height="449"
     inkscape:window-x="0"
     inkscape:window-y="25"
     inkscape:window-maximized="0"
     inkscape:current-layer="layer1"
     inkscape:export-bgcolor="#fdeed7ff" /><defs
     id="defs1"><inkscape:path-effect
       effect="simplify"
       id="path-effect5"
       is_visible="true"
       lpeversion="1.3"
       threshold="8.51064"
       steps="1"
       smooth_angles="360"
       helper_size="0"
       simplify_individual_paths="false"
       simplify_just_coalesce="false" /><inkscape:path-effect
       effect="simplify"
       id="path-effect1"
       is_visible="true"
       lpeversion="1.3"
       threshold="8.51064"
       steps="1"
       smooth_angles="360"
       helper_size="0"
       simplify_individual_paths="false"
       simplify_just_coalesce="false" /></defs><g
     inkscape:label="Layer 1"
     inkscape:groupmode="layer"
     id="layer1"><path
       style="font-variation-settings:normal;opacity:1;vector-effect:none;fill:#aca793;fill-opacity:1;stroke:none;stroke-width:0.264583px;stroke-linecap:butt;stroke-linejoin:miter;stroke-miterlimit:4;stroke-dasharray:none;stroke-dashoffset:0;stroke-opacity:1;-inkscape-stroke:none;stop-color:#000000;stop-opacity:1"
       d="m 40.26591,46.15848 c -4.320833,-0.520422 -8.626356,1.467222 -11.605389,4.537627 -3.197052,3.29511 -5.137853,8.05075 -4.340031,12.660903 0.29732,1.718037 1.392797,3.150766 1.99827,4.784771 3.187697,8.602723 8.683535,16.22434 11.111419,25.127377 0.708895,2.599515 2.181602,5.500474 1.129455,7.984232 -2.612764,6.16784 -4.651662,12.72905 -4.719274,19.48302 -0.04903,4.89816 1.250915,9.92445 4.299106,13.82475 2.110209,2.7001 4.611592,5.10767 7.507396,6.96196 5.731796,3.6703 13.098586,5.82784 19.615333,3.64209 0.761955,-0.25557 1.515235,-0.29588 2.329045,-0.18279 3.031336,0.42126 5.782925,2.19674 7.55215,4.68031 2.494408,3.50155 3.454715,7.83559 3.83913,12.05044 0.227352,2.49276 -0.027,4.99648 0.0069,7.49493 0.05454,4.01774 2.221443,7.79276 5.336589,10.26515 4.022222,3.19231 9.440372,3.51823 14.576108,2.7723 9.388324,-1.36359 19.015484,-1.58685 28.126414,-4.46724 5.67293,-1.79347 11.17469,-4.76272 14.98419,-9.39007 2.37905,-2.8898 3.10363,-6.69336 3.52903,-10.3154 0.48251,-4.1083 0.56017,-8.38999 2.32958,-12.21562 1.05499,-2.281 2.93129,-4.0595 5.03557,-5.39856 4.5662,-2.90572 10.04161,-3.74877 15.32891,-4.29497 5.91786,-0.61134 12.04938,-0.77011 17.5913,-3.15723 2.4228,-1.04359 5.00912,-2.25381 6.52231,-4.42151 3.32446,-4.76243 4.65664,-10.61857 4.89951,-16.34999 0.2156,-5.08775 0.11099,-10.25661 -1.07317,-15.197332 -1.45793,-6.082975 -5.08992,-11.379237 -9.29272,-15.914487 -6.48614,-6.999216 -14.42638,-12.648056 -19.98004,-20.495595 -1.8913,-2.672489 -4.648,-5.434566 -4.47658,-8.709056 0.31978,-6.108722 -1.28689,-12.45968 -5.19504,-17.284145 -1.57035,-1.938538 -3.63802,-3.361326 -5.72201,-4.697988 -1.639,-1.051247 -3.49851,-2.250829 -3.98451,-4.283782 -0.23406,-0.979106 0.5863,-2.187716 -0.0127,-2.98666 -2.51273,-3.351483 -5.99498,-6.122559 -10.09647,-7.213668 -2.86053,-0.760976 -6.03965,-0.132509 -8.36422,1.764774 -1.38003,1.126356 -2.17814,2.759595 -3.21734,4.179188 -3.3135,4.526367 -7.98943,8.23374 -13.51378,9.59542 -3.21987,0.793657 -6.52476,-0.09692 -9.83368,-0.09973 -2.854588,-0.0024 -5.472209,1.483019 -7.497496,3.415483 -3.214664,3.067329 -5.317551,7.100116 -8.603843,10.102784 -1.697809,1.551277 -4.026919,2.410348 -6.353056,2.119202 -0.957764,-0.119876 -0.76959,-1.567278 -0.973166,-2.37391 -1.483115,-5.876568 -4.334387,-11.691523 -9.21039,-15.44933 -1.258708,-0.970053 -2.577863,-1.86986 -3.968945,-2.634893 -4.861141,-2.67341 -10.914832,-3.25497 -16.132146,-1.268242 -3.484993,1.327069 -6.183636,4.205916 -7.747932,7.608214 -1.961853,4.266972 -2.449435,9.129899 -1.733806,13.747272 z"
       id="path5"
       inkscape:path-effect="#path-effect5"
       inkscape:original-d="M 40.26591,46.15848 C 29.312006,44.905344 19.682421,58.720554 26.31876,68.141781 c 4.072615,11.010246 12.205864,20.895899 12.240874,33.111609 -4.605281,10.77025 -8.090713,25.04099 0.74187,34.69495 6.384155,7.69842 17.351412,11.84952 27.109395,8.90396 11.530585,0.76808 13.328626,14.99892 12.575171,24.12737 0.05871,9.7722 11.034482,16.27792 19.916066,13.26588 14.471784,-2.10635 31.140394,-1.53799 42.166674,-12.82367 7.93184,-7.76394 1.24205,-21.64399 10.84762,-28.29477 11.92422,-8.56547 29.45674,-1.58664 40.35886,-12.43574 6.35548,-9.06951 5.43608,-21.17946 3.90049,-31.653742 -4.75405,-19.285345 -27.5922,-26.499799 -33.74934,-45.119138 0.3935,-7.553883 -2.03312,-15.667313 -8.55939,-20.428292 -4.118,-2.888771 -7.20732,-3.670541 -6.35487,-8.824283 C 141.9868,15.201818 131.27902,10.953512 125.96901,21.21197 120.23566,29.102182 111.84492,33.242826 102.48669,30.8919 91.520554,31.075129 89.542905,48.41897 79.570635,46.451132 78.115371,38.919989 74.49938,31.228946 67.53698,27.120032 59.56622,21.411494 46.026191,22.333064 41.999716,32.411208 40.038331,36.675609 39.55005,41.543421 40.26591,46.15848 Z"
       transform="matrix(1.1068671,0,0,0.99115995,-12.94563,17.899674)" /><path
       style="fill:#000000;stroke:#000000;stroke-width:2.549;stroke-dasharray:none;stroke-opacity:1"
       d="m 113.42405,169.60128 c -1.02943,-5.74633 -2.46966,-19.34056 -4.75347,-6.76935 -1.00863,10.42712 -10.179283,13.52282 -17.679906,7.79506 -3.753794,-7.21096 -3.162933,-19.21156 -4.470026,-24.68266 -4.804064,8.82038 -10.052722,18.18489 -17.917185,24.48379 -7.623101,-3.00502 -4.808771,-13.44779 -4.755957,-20.27141 -0.997925,-4.72521 7.606986,-21.17709 -0.46931,-12.19277 -6.734739,3.69697 -15.211482,16.25789 -22.689694,11.67603 -2.182411,-10.46331 5.171373,-21.09316 11.455601,-29.12244 2.808929,-4.58463 12.195927,-9.94071 13.040247,-12.09914 -11.208191,1.60903 -21.990418,5.12653 -32.823988,8.19123 -9.296032,-2.75399 -0.497559,-14.42719 5.5799,-17.445972 3.7319,-4.46498 18.08222,-7.12425 16.33267,-9.295581 -5.685302,-2.51006 -19.52202,-5.40854 -17.210745,-12.84587 -1.760249,-8.362943 9.221408,-9.435363 15.814335,-8.690133 8.230746,-0.0807 16.282487,1.92229 23.9857,4.65535 -11.387776,-9.18311 -20.826875,-22.89886 -19.533069,-38.10126 5.15863,-6.70227 14.230426,-3.08628 19.364505,2.621 4.802451,2.71524 10.897221,16.91916 9.323334,4.98573 -0.337218,-9.05328 0.486407,-18.77557 5.567532,-26.50022 10.187546,-6.97496 13.982226,7.63669 15.414236,15.34122 0.63677,5.71356 1.0206,8.97057 3.49819,1.6241 4.33722,-7.4245 9.02223,-15.4508 15.74446,-20.75219 8.30595,2.04179 10.92396,10.38449 9.09558,18.67018 0.25282,5.33084 -5.84355,15.8981 -4.60524,17.15943 8.19696,-7.24976 17.58366,-14.70071 28.59927,-16.61317 6.06465,4.17519 4.40939,10.89212 -0.84353,16.84561 -2.85984,6.07092 -15.12315,16.3982 -14.32369,17.81379 9.80639,-3.67685 20.91344,-3.85386 30.96375,-1.10157 4.4143,6.0268 -1.32658,13.549993 -8.33953,16.625903 -4.22213,3.31599 -12.10153,5.44995 -15.42993,7.63418 10.35816,1.841801 21.28451,5.999631 27.87476,14.492103 -0.46543,5.62031 -3.14706,14.24882 -11.40938,12.11909 -4.57483,-0.5852 -9.74961,-2.00512 -3.1262,2.51629 7.21926,4.59338 10.1039,13.50044 4.31174,18.97451 -5.18626,6.27181 -16.60372,-0.2107 -23.7163,-1.62323 -5.74686,-1.45182 -16.58258,-10.53048 -9.54883,0.30516 3.92629,9.20478 5.85728,19.52004 4.45307,29.44869 -7.31992,5.32402 -17.54393,0.51538 -21.59337,-8.54678 -1.54611,-3.47372 -1.40241,2.59651 -2.95668,-3.39914 -1.94178,-5.87767 -4.9848,-12.66642 -4.34212,-2.26407 0.67285,6.06674 1.57431,12.20208 2.11927,18.33851 z m -9.71083,1.05731 c 9.91403,-18.03979 8.06618,-40.38956 0.45261,-58.91424 -7.275323,-0.32354 -10.616103,3.72839 -11.876398,11.05628 -4.980482,15.15628 -5.649278,32.18034 -0.05158,47.238 3.586955,1.93603 8.691228,1.67575 11.475368,0.61996 z m -2.29273,-28.64799 c -0.47906,-5.85595 -0.0591,-21.29764 0.97055,-21.11293 -0.42029,6.56214 -0.48606,16.79769 -0.97055,21.11293 z m -6.436133,-9.76751 c -1.11677,-4.7872 5.845113,-23.12918 1.98253,-9.58116 -0.85352,1.3456 -2.32547,17.23194 -1.98253,9.58116 z m -25.972483,36.83055 c 7.777348,-8.00137 14.399086,-17.59007 18.272927,-28.07064 0.532864,-9.67278 3.629069,-18.98763 7.221156,-27.86949 -5.424901,-2.11043 -8.324785,-3.96091 -11.189854,3.18442 -4.237867,5.98305 -10.276661,10.75983 -14.179084,16.85854 -3.787486,10.09242 -5.947265,21.45881 -4.080517,32.07298 1.231272,0.17324 1.762402,4.08094 3.955372,3.82419 z m 10.084797,-35.27855 c 1.189271,-5.48327 7.648397,-15.95598 9.636618,-16.89294 -3.637568,5.39046 -6.669856,11.12139 -9.636618,16.89294 z m 51.786529,32.46642 c 3.01064,0.5089 4.84218,-2.96786 8.16873,-1.31614 1.39206,-13.11566 -2.20651,-26.89621 -9.7115,-37.7247 -7.30792,-5.68819 -13.67522,-12.54828 -18.64263,-20.35296 -8.73412,4.50603 -1.45948,11.94857 -0.62143,19.41861 0.80583,12.33103 3.91082,24.59934 12.72818,33.87624 2.14083,1.58752 5.22418,7.32332 8.07865,6.09895 z m -3.3082,-27.49139 c -2.21595,-6.42622 -7.99667,-14.682 -10.94945,-18.3383 5.12142,4.37855 10.72446,14.53523 10.94945,18.3383 z m -82.391611,10.82532 c 17.049651,-10.19179 30.885903,-24.99964 42.107495,-41.19522 -3.149625,-4.34543 -2.306472,-8.412932 -8.982093,-4.15824 -17.51746,6.23304 -32.88638,21.39774 -36.595252,39.59809 -0.383205,1.74988 0.289864,7.116 3.46985,5.75537 z m 16.897134,-27.42209 c 3.375243,-6.60479 16.367196,-13.40822 19.399208,-13.49687 -7.327887,3.15952 -13.853785,7.7926 -19.399208,13.49687 z m 10.382901,-2.61795 c 2.360275,-4.8443 16.840478,-13.43006 6.182272,-5.55038 -1.337919,0.5795 -7.132343,7.54855 -6.182272,5.55038 z m 94.605706,18.82497 c 1.09189,-3.38618 6.60845,-9.29197 1.73355,-13.68948 -12.81049,-15.19693 -32.48167,-23.80363 -52.21255,-24.726462 -3.49662,4.651032 -7.20296,6.990492 -0.74682,11.959832 11.96975,15.7795 31.1826,26.73503 51.22582,26.45611 z m -24.48821,-14.31944 c -6.72868,-5.26175 -19.17642,-11.29382 -23.6378,-13.81537 8.4284,2.97519 19.88988,9.86161 23.6378,13.81537 z m -2.87454,-12.67509 c -5.29801,-2.94925 -15.13318,-4.95797 -18.49553,-6.42514 6.03263,0.79651 15.11712,3.60914 18.49553,6.42514 z m -20.27523,-6.66962 c 0.85731,-0.28371 0.0786,0.38579 0,0 z m -85.589501,10.52542 c 11.945928,-4.35293 24.497937,-6.57399 36.871233,-9.21559 5.89238,-2.45827 19.01908,-5.2075 12.408948,-12.621002 -8.788096,0.3209 -17.524936,-1.84469 -26.174171,-1.80533 -10.488257,2.66896 -20.429372,8.33641 -27.202018,16.858492 3.214244,0.19338 -5.130284,9.98153 4.096008,6.78343 z m 13.796395,-12.02397 c 1.045637,-0.59615 -0.475816,0.61684 0,0 z m 1.709921,-0.77152 c 6.708765,-4.048002 22.169043,-4.666952 25.161193,-3.734742 -7.97142,-0.50823 -20.317457,2.100802 -25.161193,3.734742 z m 123.082055,12.25751 c 4.55818,-1.72821 2.93097,-6.78086 6.23195,-9.5378 -6.26909,-9.400282 -18.32055,-13.351542 -29.07732,-15.033593 -9.75264,0.868961 -19.65141,2.954171 -29.54118,1.524351 -3.32735,4.90187 -3.5862,9.997962 4.40046,7.7807 12.84797,1.475832 24.61944,7.403372 35.39002,14.134802 4.12618,0.78079 8.38138,1.65797 12.59607,1.13154 z M 130.2929,96.400648 c -14.08882,-0.99816 18.18727,-0.18956 4.01199,0.0882 l -1.96604,-0.0434 -2.04595,-0.0447 z M 98.840797,111.47435 c 5.397523,0.45488 9.173323,-2.87577 11.634723,-6.53858 5.08133,-2.95788 6.06546,-8.166072 7.80848,-13.326432 1.06032,-3.708981 -0.60809,-7.356991 -2.32763,-10.867101 -1.70611,-3.26652 -7.21702,-5.62132 -11.46607,-3.76888 -4.528683,0.32797 -8.781803,1.29116 -11.614693,5.02656 -3.78615,2.67144 -6.360626,8.490111 -6.743578,12.085241 -0.519952,3.49003 -0.655697,8.056532 0.567117,11.476892 2.253682,3.67147 5.963351,6.85026 10.532591,5.93747 l 0.41279,0.39358 1.19577,-0.41889 z m -4.33921,-4.29144 c 0.67195,-3.11904 4.62927,-1.03942 0,0 z m -5.916466,-2.46338 c -4.695956,-8.838322 4.549066,2.41014 0,0 z m 15.185759,-0.30313 c 1.2631,-3.13352 1.89843,-0.13964 0,0 z m -9.708163,-6.352172 c -1.584749,-3.9929 3.24247,-1.21032 0,0 z m -5.210667,-1.65566 c 2.155679,-7.246281 4.802027,-5.05344 0,0 z m 5.875907,-13.462041 c -0.27204,-2.02342 3.04547,-1.60791 0,0 z m 14.792323,-0.75471 c 0.53504,-1.70578 2.65551,0.37188 0,0 z m -7.99198,-2.11887 c 5.61164,-2.5405 3.57765,1.4572 0,0 z M 85.143162,91.024798 C 88.580325,85.856447 92.923087,79.676827 83.676414,77.543907 70.671943,70.599224 55.200733,67.540784 40.65638,70.452934 c 0.78904,2.40367 -7.802929,8.178243 -0.21792,11.869583 13.073934,8.603561 29.316601,10.085911 44.60329,9.742841 l 0.0572,-0.58694 z m -5.66028,-3.331761 c -5.22258,-2.04611 -20.656497,-3.44544 -6.911079,-2.48364 0.850545,-0.37476 11.385049,3.6451 6.911079,2.48364 z m 3.023244,-3.22059 c -7.378693,-4.28036 -18.421712,-6.56508 -25.156926,-7.33083 9.823296,-0.18338 19.692288,2.83088 27.66958,8.55044 l -0.674624,-0.27928 -1.83803,-0.94071 z m 50.029824,6.078171 c 15.67495,-0.351351 31.49776,-6.378161 42.73208,-17.347334 -2.58785,-3.13025 3.4744,-8.28873 -5.28682,-8.10026 -10.2559,-1.44747 -21.25384,-0.39656 -30.58337,4.06887 -5.24283,6.221163 -17.58164,9.079343 -20.18575,14.659373 -1.40891,7.995611 5.06965,7.601861 11.71879,6.781931 l 1.6049,-0.0627 z m -3.90357,-5.937401 c 4.77092,-1.76812 20.9973,-2.17819 7.12185,-0.6303 -0.72901,-0.037 -11.12649,1.71657 -7.12185,0.6303 z m -3.41073,-2.07717 c 8.2325,-4.8819 17.56166,-8.269673 27.15069,-8.959383 -9.35841,1.975543 -18.42399,5.085693 -27.15069,8.959383 z m -3.74166,-3.02035 c 17.43253,-8.848143 32.49685,-23.106813 41.18098,-40.642753 -2.62413,-1.77393 -1.80547,-9.4331 -8.94319,-4.93266 -18.3554,8.14953 -33.80614,23.53964 -40.2953,42.669313 5.48186,0.89259 1.68464,7.59406 8.05751,2.9061 z m -1.72023,-7.186693 c 3.94222,-6.65628 9.06934,-12.52458 14.26579,-18.22597 -4.62357,5.5748 -11.33932,14.49924 -14.26579,18.22597 z m 8.87523,-5.42222 c 3.54982,-4.08632 16.92425,-13.23753 5.69067,-4.53909 -0.9868,0.58213 -6.34319,5.59302 -5.69067,4.53909 z M 92.485715,80.163447 c 7.546185,-4.2695 -3.855674,-11.824183 -3.473885,-18.126243 -1.554449,-8.79969 -5.004035,-17.21976 -12.224373,-22.95126 -4.752941,-6.27109 -14.958103,-9.37453 -18.358283,-3.15507 -1.057135,19.34078 14.504644,35.04461 30.553506,43.405123 0.957246,0.30545 2.459742,2.38887 3.503035,0.82745 z m -1.299953,-6.134163 c -5.247398,-4.31352 -12.645362,-12.81142 -14.449728,-16.4987 4.702921,5.44759 12.116987,13.51007 14.449728,16.4987 z m -5.144659,-10.81326 c -1.655236,-3.98168 -11.394473,-13.93268 -9.465816,-13.01132 3.765105,2.99546 9.072522,10.34483 9.465816,13.01132 z m 13.013194,13.554123 c 11.207503,-0.83635 0.68574,-15.888663 4.952253,-23.247973 0.7531,-7.15696 4.83751,-13.82355 2.1039,-21.06857 -1.91805,-6.44444 -3.01363,-19.49632 -11.633483,-16.58865 -6.366927,3.92386 -7.108175,14.47945 -7.463866,22.05839 -0.705236,13.52105 2.675824,27.25531 9.867636,38.753023 0.6401,0.0751 1.64471,0.80099 2.17356,0.0938 z m 1.334133,-8.317713 c -2.176903,-7.88499 -1.530823,-20.97187 0.2604,-25.87923 -1.225743,8.33033 -0.63596,20.62619 -0.2604,25.87923 z m -3.998853,-2.02954 c -3.05818,-2.7642 -3.28616,-18.93484 -2.88219,-16.29702 -0.74459,3.27638 4.60141,20.77423 2.88219,16.29702 z m 13.853943,9.005923 c 6.79626,-3.343973 7.90543,-16.522903 15.24186,-21.892733 6.44494,-10.23166 10.88202,-23.02408 8.07988,-35.16381 -4.44609,-4.66417 -9.82075,-6.24792 -13.56842,2.22227 -12.4548,14.8328 -18.09802,35.13593 -14.59613,54.092653 1.79708,-0.576493 3.30069,0.99533 4.84281,0.74162 z m 1.24264,-7.950003 c 0.28402,-0.5347 0.0857,0.86762 0,0 z m 0.19505,-0.55384 c 1.2467,-6.78799 6.27133,-21.63288 7.76108,-23.14327 -3.27699,7.47224 -5.30742,15.39453 -7.76108,23.14327 z"
       id="path2"
       sodipodi:nodetypes="cccccccccccccccccccccccccccccccccccccccccccccccccccccccccccccccccccccccccccccccccccccccccccccccccccccccccccccccccccccccccccccccccccccccccccccccccccccccccccccccccccccccccccccccccccccccccccccccccccccccccccccccccccccccccccccccscs" /></g></svg>
