<?xml version="1.0" encoding="UTF-8" standalone="no"?>
<!-- Created with Inkscape (http://www.inkscape.org/) -->

<svg
   width="210mm"
   height="210mm"
   viewBox="0 0 210 210"
   version="1.1"
   id="svg1"
   xml:space="preserve"
   inkscape:version="1.3.2 (091e20e, 2023-11-25)"
   sodipodi:docname="leaf.svg"
   inkscape:export-filename="leaf.png"
   inkscape:export-xdpi="700"
   inkscape:export-ydpi="700"
   xmlns:inkscape="http://www.inkscape.org/namespaces/inkscape"
   xmlns:sodipodi="http://sodipodi.sourceforge.net/DTD/sodipodi-0.dtd"
   xmlns="http://www.w3.org/2000/svg"
   xmlns:svg="http://www.w3.org/2000/svg"><sodipodi:namedview
     id="namedview1"
     pagecolor="#e5d0ca"
     bordercolor="#999999"
     borderopacity="1"
     inkscape:showpageshadow="2"
     inkscape:pageopacity="0"
     inkscape:pagecheckerboard="0"
     inkscape:deskcolor="#d1d1d1"
     inkscape:document-units="mm"
     inkscape:zoom="0.5713473"
     inkscape:cx="503.19657"
     inkscape:cy="447.1886"
     inkscape:window-width="1280"
     inkscape:window-height="692"
     inkscape:window-x="0"
     inkscape:window-y="928"
     inkscape:window-maximized="0"
     inkscape:current-layer="layer1"
     inkscape:export-bgcolor="#fdeed7ff" /><defs
     id="defs1"><inkscape:path-effect
       effect="simplify"
       id="path-effect1"
       is_visible="true"
       lpeversion="1.3"
       threshold="8.51064"
       steps="1"
       smooth_angles="360"
       helper_size="0"
       simplify_individual_paths="false"
       simplify_just_coalesce="false" /></defs><g
     inkscape:label="Layer 1"
     inkscape:groupmode="layer"
     id="layer1"><path
       style="font-variation-settings:normal;opacity:1;fill:#aca793;fill-opacity:1;stroke:none;stroke-width:0.617038;stroke-linecap:butt;stroke-linejoin:miter;stroke-miterlimit:4;stroke-dasharray:none;stroke-dashoffset:0;stroke-opacity:1;stop-color:#000000;stop-opacity:1"
       d="m 103.25862,34.878465 c -7.053163,-2.8408 -14.989016,-3.670418 -22.411353,-1.799412 -8.508393,2.144777 -15.870921,7.708607 -21.086378,14.666414 -6.916025,9.22649 -10.6553,20.913404 -9.922537,32.449955 0.346626,5.457241 8.066826,11.665183 4.358858,15.700136 -8.807049,9.583692 -15.258121,21.513302 -17.626065,34.362392 -1.663809,9.02827 -1.073278,18.63844 2.720831,27.09058 3.183276,7.0914 8.787914,12.93921 15.453387,16.88353 4.507696,2.66745 9.307912,5.67922 14.535096,5.7822 9.09242,0.17912 18.057625,-2.168 26.369173,-5.73497 14.608818,-6.2695 27.608878,-15.83207 42.610708,-21.25973 7.76214,-2.80834 16.67638,-0.65072 24.32251,-3.8199 4.88405,-2.02434 9.7766,-4.4846 13.44744,-8.38494 2.27508,-2.41731 3.79078,-5.69563 3.54304,-9.07145 -0.29496,-4.01914 -2.58518,-7.58531 -5.26697,-10.45583 -4.56428,-4.88551 -10.28092,-8.56124 -16.25657,-11.46995 -6.00892,-2.9249 -14.06039,-1.78634 -18.97807,-6.33371 -3.38686,-3.13182 -5.77872,-7.404835 -6.28171,-12.031597 -0.61963,-5.699579 1.11901,-11.335785 3.27041,-16.542255 3.93843,-9.53115 9.68928,-18.258674 12.93583,-28.080131 1.63709,-4.952547 2.50291,-10.403905 0.9983,-15.512172 -1.47484,-5.007246 -5.62891,-8.489355 -9.48702,-11.854143 -1.23382,-1.076061 -2.71948,-1.488857 -4.33593,-1.635604 -6.24274,-0.566738 -12.4906,1.282335 -17.90287,4.316774 -5.75915,3.228912 -10.77714,7.690748 -15.01011,12.733813 z"
       id="path1"
       inkscape:path-effect="#path-effect1"
       inkscape:original-d="M 103.25862,34.878465 C 65.742849,20.028099 38.704693,67.034023 54.19721,95.895558 28.6712,123.5683 25.867202,169.27667 69.280459,180.01426 c 35.119351,0.52714 56.781101,-32.72519 93.302391,-30.8146 39.93296,-16.20161 0.17084,-41.87988 -23.51113,-45.71588 -25.77447,-24.428937 37.01537,-62.821676 -0.65805,-85.358753 -13.70352,-2.435874 -26.79552,6.747818 -35.15505,16.753438 z"
       transform="matrix(0.40652823,1.1079231,-1.026706,0.37672738,166.35965,-56.572697)" /><path
       style="fill:#1a1a1a;stroke-width:0.365001;paint-order:stroke fill markers"
       id="path2"
       d="m 30.269698,177.80862 c 1.916319,-0.57224 3.635304,-1.66553 5.336127,-2.68769 4.840843,-3.00892 9.379175,-6.47916 13.91284,-9.92564 3.952245,-3.01315 7.804221,-6.15553 11.65512,-9.29635 1.010714,-0.82435 1.926942,-1.77963 3.02977,-2.47594 1.227461,-0.77501 2.609636,-1.2724 3.914455,-1.9086 4.318207,-3.78653 8.755602,-7.44282 13.035994,-11.27259 1.74007,-1.55688 5.028475,-4.66912 6.720303,-6.25999 6.784322,-6.26309 12.961653,-13.11155 19.053113,-20.03545 5.64922,-6.31653 10.53357,-13.24568 15.14347,-20.339579 4.16262,-6.4872 7.79762,-13.286729 11.2814,-20.155633 2.93623,-5.830371 5.32844,-11.906165 7.66347,-17.994886 1.75764,-4.777161 3.44199,-9.580671 5.10942,-14.389886 0.7487,-2.120643 1.48255,-4.219514 1.66826,-6.4755 0.0518,-0.629002 0.0284,-1.26194 0.0427,-1.892913 0.0472,-0.184785 -2.56602,-0.852779 -2.61326,-0.667994 v 0 c -0.76087,1.170027 -1.43029,2.11854 -2.03159,3.394684 -0.4035,0.856347 -1.33262,3.457029 -1.64369,4.306194 -1.68389,4.727942 -3.30994,9.484468 -5.40811,14.050459 -2.62769,5.854171 -5.42848,11.625009 -8.4101,17.307843 -3.45186,6.669913 -7.02733,13.287108 -11.2302,19.521985 -1.69903,2.490906 -2.70006,4.008821 -4.49577,6.438286 -3.33158,4.5074 -6.99802,8.75348 -10.65671,12.99477 -6.054585,6.74636 -12.305769,13.31993 -18.860704,19.5841 -6.237507,6.03651 -12.535128,12.01235 -19.076424,17.721 -0.738965,1.11552 -1.33101,2.34374 -2.216891,3.34658 -0.857671,0.97091 -1.971572,1.68108 -2.962034,2.51609 -3.77213,3.18009 -7.556794,6.34563 -11.295308,9.56542 -4.2764,3.60577 -8.524484,7.25304 -12.593495,11.09296 -1.381265,1.28297 -2.825226,2.50569 -4.167666,3.82606 -0.0079,0.007 0.08759,0.11896 0.09553,0.11221 z" /><path
       style="fill:#1a1a1a;stroke-width:0.365001;paint-order:stroke fill markers"
       id="path3"
       d="m 57.305595,157.25967 c -0.09607,-0.2587 -0.899734,-1.68149 -1.034706,-1.70726 -2.003104,0.25298 -1.058359,0.34975 -2.842445,-0.19408 -2.582188,-2.85991 -4.873638,-5.94743 -6.986018,-9.16481 -2.835429,-4.46547 -4.933236,-9.36158 -6.501527,-14.40563 -0.381511,-1.22704 -0.699704,-2.47287 -1.049557,-3.70931 0.0037,-1.38774 0.13449,-2.78097 0.01114,-4.16323 -0.123762,-1.38682 -0.539885,-2.73274 -0.749369,-4.10922 -0.218091,-1.43306 -0.387638,-2.87364 -0.532826,-4.31591 -0.456845,-4.5382 -0.465092,-9.04107 -0.422328,-13.59554 0.225764,-8.716543 1.983986,-17.264553 3.995402,-25.714832 1.139028,-4.439361 2.264801,-8.906054 3.896764,-13.196009 0.106246,-0.263159 0.212313,-0.526391 0.318736,-0.789479 0.59762,-1.477402 0.152458,0.04099 -1.099346,-0.694576 0.528505,0.960527 1.372626,1.729446 2.157028,2.477481 2.323817,2.217298 4.693158,4.383559 6.991321,6.627839 2.671115,2.599764 5.082117,5.462918 7.008487,8.661929 0.416248,0.69124 0.784799,1.410102 1.177198,2.115153 2.009084,3.933291 3.350098,8.189058 4.098189,12.539313 0.160695,0.934461 0.260493,1.878375 0.390739,2.817564 0.770332,6.007977 0.388747,12.040977 -0.221361,18.038877 -0.616397,5.80721 -1.753854,11.53198 -3.198212,17.1845 -0.917485,3.56502 -2.022358,7.07338 -3.351569,10.50628 -0.328589,0.84863 -0.841616,1.64005 -1.019704,2.53248 -0.185031,0.92721 -0.03441,1.89067 -0.05161,2.83601 -0.141131,0.29138 -2.05441,4.28069 -2.281171,4.5974 -0.470644,0.65733 -1.134153,1.1524 -1.701231,1.72861 -0.116256,0.2491 3.406642,1.89322 3.5229,1.64411 v 0 c 0.201142,-0.76608 0.298757,-1.56713 0.60343,-2.29823 0.681606,-1.63559 2.007045,-2.953 2.562074,-4.65762 0.748536,-0.73798 1.653691,-1.34529 2.245612,-2.21394 0.539279,-0.7914 0.735721,-1.76869 1.077796,-2.66319 1.366864,-3.57424 2.474579,-7.24429 3.542927,-10.91614 1.491413,-5.86384 2.814574,-11.78615 3.554282,-17.79734 0.683961,-6.37948 0.941782,-12.82366 0.02302,-19.199093 -0.168651,-1.023765 -0.30957,-2.052486 -0.505949,-3.071296 -0.921597,-4.781246 -2.499821,-9.417378 -4.84273,-13.693084 -0.45752,-0.773047 -0.891244,-1.560682 -1.372558,-2.319142 -2.177171,-3.43081 -4.856289,-6.519807 -7.886898,-9.221454 -2.555814,-2.156431 -5.217335,-4.18728 -8.045638,-5.976985 -0.911709,-0.586235 -1.920914,-1.071922 -2.688166,-1.848088 -0.204423,-0.144881 -0.366454,-0.391504 -0.61327,-0.434644 -1.611403,-0.281655 -2.635208,0.990594 -3.526391,2.085964 -2.893052,4.034422 -5.061021,8.502171 -6.695574,13.189669 -0.424561,1.287844 -0.886892,2.563845 -1.273681,3.863531 -2.242108,7.533947 -3.366817,15.368386 -3.634179,23.214882 -0.0095,1.62092 -0.0681,3.2423 -0.02853,4.86277 0.11608,4.75336 0.635598,9.48787 1.541499,14.15432 0.283221,1.45891 0.444842,2.95982 0.959832,4.35388 0.510931,1.38308 1.392608,2.59931 2.088914,3.89897 1.0941,3.15716 1.423562,4.32275 2.756874,7.34669 1.730087,3.92382 3.919561,7.62758 6.484535,11.06238 2.507327,3.11899 5.181817,6.10694 8.325633,8.60623 0.594974,1.65686 0.474184,0.78468 0.307055,2.62361 0.06782,0.19639 1.48723,0.68427 1.825378,0.58609 0.14753,0.1902 2.837302,-1.89621 2.689771,-2.0864 z" /><path
       style="fill:#1a1a1a;stroke-width:0.365001;paint-order:stroke fill markers"
       id="path4"
       d="m 88.366768,126.66132 c 0.01932,-0.17676 0.102172,-0.67933 -0.04472,-0.79976 -0.273958,-0.22461 -0.709277,-0.17119 -0.989404,-0.38805 -0.748599,-0.57952 -1.23616,-2.74994 -1.525461,-3.62022 -1.482788,-4.65425 -2.629474,-9.41008 -3.686868,-14.17655 C 80.608819,101.02072 79.385174,94.302431 78.536777,87.530367 78.05736,82.764301 77.5714,77.98972 77.432137,73.198518 c -0.08805,-3.029061 -0.03065,-4.109656 0.02777,-7.136233 0.237228,-4.705099 0.718063,-9.428229 1.827051,-14.017186 0.665446,-2.753582 1.205738,-4.162369 2.109126,-6.843929 0.463563,-2.356906 2.111544,-4.274267 2.756326,-6.555287 0.320088,-1.132356 0.112808,-2.377213 0.468154,-3.499004 0.333944,-1.054229 1.031951,-1.956358 1.566568,-2.924397 1.335826,-2.418802 1.614139,-2.822318 3.016404,-5.122667 1.80217,-2.545712 3.230417,-5.617632 5.452067,-7.843918 0.143595,-0.0839 0.274863,-0.193849 0.430787,-0.251705 0.839084,-0.311349 1.30197,2.02751 1.41709,2.391717 0.95971,3.343575 1.81579,6.716501 2.584741,10.108697 -0.196906,0.851091 -0.573037,1.67988 -0.590719,2.553272 -0.01651,0.815015 0.342831,1.594152 0.490524,2.395839 0.154644,0.839414 0.296947,1.681401 0.416314,2.526554 0.3898,2.759937 0.589994,5.527561 0.74099,8.30844 0.37638,6.371783 -0.317662,12.725202 -1.190972,19.026172 -1.053801,7.127684 -2.536159,14.179259 -3.940945,21.243075 -1.218264,6.641111 -2.711339,13.224132 -4.582943,19.710972 -1.746097,5.83636 -4.235741,11.39897 -6.105406,17.19167 -0.09418,0.21675 2.971162,1.54868 3.065346,1.33193 v 0 c 1.528376,-1.99911 2.191856,-2.72192 3.437517,-4.96579 2.140275,-3.85537 3.441798,-8.12427 4.786159,-12.29832 1.941205,-6.58844 3.554719,-13.255839 5.079934,-19.952081 1.64463,-7.155971 3.14191,-14.35287 4.08083,-21.640283 0.77149,-6.631737 1.27025,-13.300591 0.69372,-19.97488 -0.26908,-2.948578 -0.57232,-5.862566 -1.14135,-8.771729 -0.0481,-0.246023 -1.02747,-4.807064 -1.18618,-5.112162 -0.42182,-0.810888 -1.178,-1.397927 -1.767,-2.09689 -1.09371,-3.383245 -2.25721,-6.764829 -3.859868,-9.946479 -0.449347,-0.810923 -1.038423,-2.185846 -2.040181,-2.498713 -0.560435,-0.175034 -0.865737,-0.02405 -1.401939,0.105868 -3.112146,1.536581 -5.312942,4.436577 -7.526028,7.009912 -1.669412,2.248141 -2.046938,2.665352 -3.564573,5.097947 -0.609978,0.977725 -1.048935,2.068288 -1.757338,2.977235 -0.802802,1.030067 -1.997496,1.725141 -2.743147,2.797304 -0.743728,1.06939 -2.554362,5.884408 -3.010154,7.043817 -0.403879,1.235072 -0.850265,2.457048 -1.211633,3.70522 -1.759027,6.075714 -2.529941,12.39539 -2.819659,18.698114 -0.126313,7.427312 0.146404,14.868131 1.142068,22.237081 1.013894,6.959645 2.200167,13.903409 4.244311,20.647879 1.514822,4.86183 3.044291,9.75896 5.50305,14.24505 0.255889,0.47226 0.505077,0.94821 0.767673,1.41678 0.421166,0.7515 0.963663,1.37157 0.959511,2.28952 -0.0016,0.36092 -0.318323,0.68762 -0.278537,1.04635 0.02233,0.20134 0.69038,0.68817 0.855988,0.81813 0.142134,0.26398 3.875325,-1.74611 3.733191,-2.01009 z" /><path
       style="fill:#1a1a1a;stroke-width:0.365001;paint-order:stroke fill markers"
       id="path5"
       d="m 118.59549,87.686622 c 0.002,-2.490493 -0.63081,-4.984109 -1.13474,-7.413953 -1.41505,-6.563108 -2.37522,-13.206396 -3.20185,-19.865488 -0.90701,-8.198709 -0.93344,-16.445544 -0.37746,-24.665056 -0.0756,-2.472875 0.77845,-4.845843 0.91958,-7.29154 0.0664,-1.151517 -0.24006,-2.31085 -0.12143,-3.458165 0.11226,-1.085747 0.50652,-2.12425 0.80712,-3.173578 0.71051,-2.480238 1.13189,-3.457101 2.03119,-5.846866 1.61727,-4.121166 3.75798,-7.9971013 6.18121,-11.6919938 0.48883,-0.5108969 1.53379,-2.5434094 2.27883,-2.7463709 0.0372,0.026689 0.0961,0.036981 0.11162,0.080066 0.15372,0.4270959 0.13254,1.4509386 0.16974,1.8733742 0.16278,1.8480892 0.0516,0.7770783 0.29872,2.8373522 0.68479,5.1169483 1.51772,10.2099223 2.08592,15.3421383 0.10382,1.100651 0.35683,2.197347 0.31147,3.301954 -0.0476,1.158882 -0.50012,2.273022 -0.58786,3.429556 -0.0872,1.149979 0.0774,2.306013 0.0653,3.459231 -0.0388,3.675385 -0.42829,7.305757 -0.87052,10.948993 -1.06738,7.433815 -2.98467,14.717873 -4.94804,21.957013 -1.28961,4.043387 -1.99019,8.225708 -3.04343,12.326612 -0.0692,0.226677 3.13656,1.204685 3.20571,0.978009 v 0 c 0.42253,-0.873194 0.83479,-1.751423 1.26757,-2.619579 0.48244,-0.967782 1.03049,-1.903428 1.47791,-2.887893 1.03766,-2.283195 1.59994,-4.12928 2.41006,-6.505905 2.31517,-7.43602 4.36212,-14.972885 5.30968,-22.723369 0.39365,-3.952851 0.66758,-7.662079 0.54219,-11.642307 -0.0384,-1.217874 0.0275,-2.453068 -0.20115,-3.649893 -0.22568,-1.181097 -0.86774,-2.25035 -1.14962,-3.419313 -0.26532,-1.100311 -0.3235,-2.24046 -0.48525,-3.36069 -0.94291,-5.151773 -2.09431,-10.270782 -3.768,-15.2406794 -0.45693,-1.3636847 -1.05672,-3.6850938 -2.14412,-4.7076647 -1.45884,-0.1168814 -2.64137,1.2881804 -3.67612,2.0964754 -3.3382,3.3271161 -5.98039,7.2391907 -7.91491,11.5432157 -1.22562,2.874205 -1.38326,3.069297 -2.36132,6.084111 -0.35297,1.088042 -0.55882,2.225109 -0.97924,3.288911 -0.45803,1.158978 -1.25076,2.174751 -1.64697,3.356296 -0.40493,1.207587 -1.14285,6.472081 -1.32168,7.655618 -0.13798,1.376537 -0.31058,2.750042 -0.41395,4.129611 -0.54107,7.221329 -0.25578,14.485858 0.86883,21.639924 0.22913,1.357424 0.42919,2.720078 0.68739,4.072274 1.04316,5.463108 2.5971,10.84095 4.66847,16.002452 0.9779,2.347354 1.9182,4.819578 3.53537,6.815698 0.0218,0.07876 1.13563,-0.229822 1.11381,-0.308581 z" /><circle
       id="path6"
       style="fill:#1a1a1a;stroke:#000000;stroke-width:0.264583"
       cx="127.34884"
       cy="83.355598"
       r="0.12766168" /><path
       style="fill:#1a1a1a;stroke-width:0.365001;paint-order:stroke fill markers"
       id="path7"
       d="m 130.58284,80.183984 c 0.1011,-0.0436 0.20817,-0.07539 0.30332,-0.130808 0.61657,-0.359108 0.94432,-0.664554 1.53849,-1.125942 1.83544,-1.425265 3.61194,-2.889414 5.37162,-4.408659 5.59358,-4.936435 11.37985,-9.638036 17.3094,-14.162643 1.00037,-0.730573 1.99465,-1.469557 3.0011,-2.191716 2.27965,-1.63571 3.21667,-2.276745 5.53229,-3.783116 0.81796,-0.532098 1.63936,-1.059058 2.46827,-1.573929 0.73358,-0.455666 1.55094,-0.790001 2.21883,-1.337442 0.59814,-0.490268 1.02349,-1.159738 1.53524,-1.739607 2.32226,-1.241449 4.65213,-2.528858 7.15042,-3.387793 0.64606,-0.253612 1.2698,-0.216086 1.91353,0.0019 0.19611,0.0806 0.39926,0.158287 0.46265,0.370877 -0.0362,0.279831 -0.16945,0.530693 -0.27056,0.790543 -0.34114,1.125294 -0.76276,2.209816 -1.28574,3.263209 -1.24563,2.510899 -3.33225,4.364681 -5.47411,6.09794 -0.55816,0.409442 -1.04943,0.930841 -1.67448,1.228325 -0.77136,0.367117 -1.67696,0.383193 -2.45458,0.736846 -0.74149,0.337222 -1.37021,0.881314 -2.05914,1.31594 -0.72348,0.456417 -1.44646,0.913818 -2.17804,1.357143 -1.8219,1.104048 -2.89046,1.69232 -4.75287,2.749103 -5.11163,2.883259 -10.39221,5.446019 -15.68095,7.983188 -4.64612,2.322824 -9.60154,3.999788 -14.19041,6.428555 -0.59253,0.288078 -1.18506,0.576156 -1.77759,0.864235 -0.18314,0.106672 1.32542,2.696665 1.50856,2.589995 v 0 c 0.68525,-0.147714 1.37051,-0.295426 2.05576,-0.443137 0.77235,-0.15843 1.55541,-0.271497 2.31705,-0.475292 0.80255,-0.214742 1.58367,-0.503553 2.36773,-0.77823 3.57105,-1.251024 7.0524,-2.750696 10.47619,-4.356986 5.40419,-2.545848 10.75141,-5.223214 15.86088,-8.327769 2.35675,-1.453512 4.72664,-2.895692 6.95221,-4.548486 0.67662,-0.502483 1.4301,-0.931722 1.98493,-1.566127 0.52216,-0.597053 0.7006,-1.435976 1.18792,-2.061795 0.4349,-0.558498 1.03257,-0.96852 1.54886,-1.452779 2.00067,-2.082893 3.91818,-4.267602 4.8477,-7.060221 0.33798,-1.138174 0.60973,-2.29711 0.69756,-3.484843 0.0363,-0.288922 0.0534,-0.579501 0.11222,-0.864158 -0.04,-0.240893 -0.25963,-0.414504 -0.44162,-0.553432 -0.71877,-0.428855 -1.53045,-0.512942 -2.35781,-0.509712 -2.87707,0.168865 -5.63126,1.053913 -8.30023,2.104584 -0.90594,0.109246 -1.84036,0.07726 -2.71781,0.327734 -0.89238,0.254743 -1.69401,0.759454 -2.5266,1.169355 -4.1935,2.064533 -8.17035,4.546999 -11.97745,7.252589 -1.07622,0.79644 -2.1723,1.566722 -3.22866,2.389325 -4.97298,3.872547 -9.56709,8.266461 -13.58539,13.122497 -1.5202,2.003459 -1.72668,2.165739 -2.97328,4.190172 -0.68873,1.118465 -1.4713,2.322417 -1.62933,3.65647 -0.0236,0.05755 0.79029,0.391604 0.81392,0.334052 z" /><path
       style="fill:#1a1a1a;stroke-width:0.365001;paint-order:stroke fill markers"
       id="path8"
       d="m 109.82741,113.31725 c 1.39634,1.64534 3.33851,2.7224 5.17695,3.79099 4.27473,2.2329 8.9049,3.78544 13.66455,4.58215 1.22229,0.2046 2.45833,0.31626 3.6875,0.47438 6.31678,0.51298 12.2142,-0.37486 18.13423,-2.57072 3.4682,-1.28642 4.84357,-2.08673 8.13346,-3.73468 5.80173,-3.09267 11.15458,-6.93332 15.95511,-11.41532 1.31376,-1.43169 3.01902,-2.86905 3.40954,-4.870921 0.006,-1.50331 -0.82897,-1.530324 -1.92575,-1.779529 -1.15186,-0.367221 -2.16368,-1.062996 -3.21937,-1.636194 -2.38127,-1.442633 -4.93083,-2.522326 -7.56169,-3.410778 -4.26156,-1.346126 -8.69877,-1.269445 -13.09554,-0.831242 -5.01777,0.502886 -9.76752,2.16734 -14.4346,3.980921 -4.8922,1.972876 -9.58698,4.384583 -14.03954,7.206613 -2.53346,1.54444 -4.64774,3.57086 -6.65565,5.72588 -0.11782,0.11865 1.56011,1.78477 1.67792,1.66612 v 0 c 2.61795,-1.30572 5.23408,-2.61326 7.76308,-4.08766 4.45738,-2.45349 9.00043,-4.73677 13.70499,-6.684962 4.30885,-1.760489 8.72494,-3.282809 13.37217,-3.843019 0.9941,-0.104397 1.98263,-0.269087 2.98014,-0.333166 2.3284,-0.149577 4.67201,-0.02981 6.95562,0.464584 2.58243,0.67836 5.07812,1.595025 7.53309,2.644463 1.32917,0.549153 2.66587,1.119277 4.07639,1.42501 0.10112,0.0134 0.96034,0.20606 1.05618,0.0419 0.0745,-0.127487 -0.72796,-0.925158 -0.39954,-1.261213 -0.17075,-0.114022 -0.82102,0.41148 -0.88413,0.451443 -1.12237,0.71063 -2.2546,1.40557 -3.39792,2.08207 -5.49157,3.2273 -11.05624,6.33581 -16.7395,9.214 -2.94499,1.41736 -4.4228,2.20737 -7.47921,3.36539 -3.06805,1.16243 -4.24995,1.44407 -7.41499,2.15544 -0.70116,0.15759 -1.40061,0.34496 -2.11605,0.41289 -1.17933,0.11197 -2.36781,0.0835 -3.55171,0.12525 -1.14601,-0.0435 -2.29416,-0.0479 -3.43803,-0.13037 -4.60238,-0.33177 -9.12089,-1.33488 -13.53206,-2.65638 -2.10869,-0.66328 -4.16387,-1.5342 -6.33007,-1.99219 -0.10104,-0.0754 -1.16661,1.35346 -1.06557,1.42881 z" /><path
       style="fill:#1a1a1a;stroke-width:0.365001;paint-order:stroke fill markers"
       id="path9"
       d="m 74.621341,156.23607 c 1.477966,-0.70973 2.908687,-1.52402 4.375402,-2.26317 4.210497,-1.92126 8.634743,-3.27998 13.077877,-4.54073 5.810766,-1.65382 11.73772,-2.74549 17.71928,-3.53921 1.95878,-0.52263 4.03935,-0.11456 6.00815,-0.52054 0.9464,-0.19516 1.78066,-0.80049 2.73213,-0.9692 0.99549,-0.17651 2.02161,-0.0439 3.03258,-0.053 2.29834,-0.0207 2.72656,0.0221 5.22551,0.10126 5.46498,0.27456 10.91626,0.77483 16.37131,1.19894 2.40499,0.21453 4.82045,0.26936 7.22733,0.45102 0.98169,0.0692 -1.10366,1.03609 -1.23917,1.11521 -2.17827,1.36736 -4.3317,2.76262 -6.58482,4.00578 -3.92375,2.2778 -8.21885,3.7296 -12.49416,5.17871 -2.77997,0.92448 -5.59889,1.72403 -8.41149,2.54124 -1.00712,0.29262 -1.98399,0.7228 -3.0211,0.87869 -8.69758,1.30731 1.37887,-1.29266 -6.61866,0.98914 -5.85744,1.74651 -11.8029,3.12696 -17.792163,4.32774 -3.297044,0.58297 -6.633215,1.05325 -9.989624,1.00565 -0.704601,-0.01 -2.917547,-0.29221 -3.26504,-0.3322 -2.031447,-0.3167 -4.042619,-0.80004 -5.983795,-1.48185 -0.586666,-0.20605 -1.122278,-0.58127 -1.735577,-0.68374 -3.821742,-0.63851 -0.704839,0.91588 -3.54733,-0.80795 -1.062064,-0.63441 -1.927354,-1.48138 -2.755863,-2.38311 -0.03964,-0.0677 -0.996381,0.49289 -0.956746,0.56054 v 0 c 0.683694,1.16553 1.444987,2.2315 2.505125,3.09947 1.950993,1.50008 1.0926,0.56869 2.476968,2.88158 0.524772,0.47568 1.266746,0.63635 1.919296,0.91174 2.108234,0.88973 4.326847,1.46596 6.56912,1.8978 0.78908,0.11546 1.573143,0.27298 2.367243,0.34638 4.770929,0.44097 9.571098,0.17098 14.292995,-0.60206 6.172551,-1.06533 12.278431,-2.48627 18.305181,-4.19492 7.65493,-2.23754 -1.17871,0.677 5.78264,-2.65847 0.94625,-0.45339 2.00038,-0.63443 2.99701,-0.96259 2.79734,-0.92109 5.57204,-1.90884 8.32967,-2.94246 4.24045,-1.72151 8.43312,-3.60825 12.20018,-6.2414 2.07801,-1.48452 4.08781,-3.05678 5.93604,-4.82387 0.52246,-0.51614 1.62586,-1.29149 0.97458,-2.06693 -1.94351,-1.30591 -4.45387,-1.53708 -6.64402,-2.19433 -5.38705,-1.10546 -10.84529,-1.82328 -16.34266,-2.07277 -2.95977,-0.0931 -3.82799,-0.14731 -6.95055,-0.11788 -1.03139,0.01 -2.06597,0.1803 -3.0931,0.0862 -1.13743,-0.10417 -2.21908,-0.60494 -3.35898,-0.67715 -0.5971,-0.0378 -5.63685,0.54463 -6.2269,0.60979 -6.1788,0.86505 -12.339394,2.03914 -18.236435,4.12555 -4.47811,1.64607 -8.971129,3.44878 -12.742666,6.44538 -1.279136,1.08094 -2.688048,2.23471 -3.344151,3.82586 -0.03859,0.0643 0.870791,0.61009 0.909383,0.54579 z" /><path
       style="fill:#1a1a1a;stroke-width:0.365001;paint-order:stroke fill markers"
       id="path10"
       d="m 48.114479,66.342696 c -0.364689,1.442881 -0.503656,2.957017 -0.687018,4.436761 -0.440885,4.119424 -0.533574,8.261487 -0.64648,12.399345 -0.163552,5.397418 -0.08215,10.799993 0.03281,16.197652 0.09731,5.284786 0.473215,10.557626 0.830202,15.829426 0.342548,4.76848 0.936061,9.51124 1.510802,14.25548 0.406578,2.94996 0.81107,5.90243 1.355908,8.83089 0.130572,0.70182 0.194503,1.42247 0.418383,2.10032 0.228708,0.69246 0.619628,1.32033 0.929441,1.9805 0.504442,2.69341 0.235927,1.36072 0.803881,3.9984 0.02387,0.14493 2.073463,-0.19271 2.04959,-0.33764 v 0 c -0.46781,-2.62439 -0.232032,-1.29988 -0.7073,-3.97352 0.0719,-0.7072 0.225343,-1.41081 0.215701,-2.12159 -0.0096,-0.70583 -0.17789,-1.40055 -0.272968,-2.10001 -0.395755,-2.91142 -0.889579,-5.80969 -1.197618,-8.73278 -0.537646,-4.69365 -0.939866,-9.40102 -1.232188,-14.11642 -0.34113,-5.2215 -0.542663,-10.44852 -0.637042,-15.68047 -0.09772,-5.377645 -0.281255,-10.753341 -0.413362,-16.130238 -0.112903,-4.137858 -0.205592,-8.279921 -0.646477,-12.399345 -0.183362,-1.479744 -0.322329,-2.99388 -0.687017,-4.436761 0,-0.07207 -1.019249,-0.07207 -1.019249,0 z" /><path
       style="fill:#1a1a1a;stroke-width:0.365001;paint-order:stroke fill markers"
       id="path13"
       d="m 53.78124,150.38188 c 0.524594,-1.5274 1.165706,-3.00087 1.899414,-4.43887 0.212625,-0.4534 0.346856,-0.95265 0.637871,-1.36019 0.350136,-0.49033 0.897448,-0.8149 1.259321,-1.29663 0.362577,-0.48267 0.594429,-1.05092 0.896687,-1.57349 0.993132,-1.71699 1.987248,-3.43304 3.004994,-5.13556 0.159835,-0.26773 1.82639,-3.0906 2.049772,-3.34136 0.442331,-0.49657 1.101849,-0.76526 1.54826,-1.25816 0.277542,-0.30645 1.460815,-2.37772 1.64062,-2.82505 0.177798,-0.44233 0.251796,-0.9196 0.377693,-1.3794 0.145521,-0.3739 0.291042,-0.7478 0.436562,-1.1217 0.08247,-0.14467 -1.963364,-1.311 -2.045837,-1.16633 v 0 c -0.319413,0.28172 -0.638824,0.56345 -0.958236,0.84517 -0.411073,0.3093 -0.859502,0.57436 -1.233215,0.9279 -0.450115,0.4258 -1.831957,2.16213 -2.07191,2.7025 -0.260131,0.58581 -0.218591,1.27509 -0.470585,1.86445 -0.523788,1.22503 -1.59367,2.16538 -2.107907,3.39591 -1.017172,1.76102 -2.007772,3.52007 -2.879513,5.35907 -0.269068,0.56762 -0.615577,1.10927 -0.779724,1.7156 -0.154925,0.57227 -0.03869,1.19158 -0.16418,1.77101 -0.108712,0.50194 -0.355012,0.96386 -0.532521,1.44579 -0.390623,1.56384 -0.954545,3.24461 -0.633934,4.86934 0,0.009 0.126368,0.009 0.126368,0 z" /><path
       style="fill:#1a1a1a;stroke-width:0.365001;paint-order:stroke fill markers"
       id="path14"
       d="m 52.72646,129.92746 c 0.380222,-0.23687 0.864034,-0.63226 1.066056,-1.03691 0.133567,-0.26752 0.09531,-0.60415 0.245208,-0.86288 0.05416,-0.0935 1.597649,-1.76299 1.608352,-1.77463 2.316837,-2.49973 4.68521,-4.95126 7.028323,-7.4264 1.525135,-1.52357 2.948297,-3.1223 4.195794,-4.87927 0.07935,-0.10234 -1.367922,-1.22458 -1.447276,-1.12224 v 0 c -1.790949,1.29375 -3.422084,2.75955 -4.916279,4.39177 -2.388727,2.49935 -4.733856,5.05719 -6.68451,7.92204 -0.232399,0.3685 -0.468868,0.73445 -0.697198,1.10549 -0.189087,0.30726 -0.313931,0.66079 -0.554963,0.92924 -0.221441,0.24663 -0.574652,0.34569 -0.804321,0.58467 -0.32772,0.34102 -0.498953,0.95255 -0.615129,1.40015 -0.05438,0.11144 1.521568,0.8804 1.575943,0.76897 z" /><path
       style="fill:#1a1a1a;stroke-width:0.365001;paint-order:stroke fill markers"
       id="path15"
       d="m 52.760866,117.21495 c 1.418799,-1.19868 2.674371,-2.57376 3.939405,-3.92908 2.64623,-2.88833 5.331262,-5.74049 7.984249,-8.62259 1.650627,-1.905 0.889672,-0.9382 2.295046,-2.89078 0.101537,-0.13549 -1.814494,-1.57144 -1.91603,-1.43595 v 0 c -1.957885,1.54898 -1.000599,0.71492 -2.862953,2.51237 -2.725375,2.8794 -5.371566,5.84547 -7.624638,9.11705 -0.980181,1.5225 -2.141908,3.09854 -2.533661,4.89835 -0.02479,0.0508 0.693791,0.40144 0.718582,0.35063 z" /><path
       style="fill:#1a1a1a;stroke-width:0.365001;paint-order:stroke fill markers"
       id="path16"
       d="m 51.360823,104.00979 c 0.119875,-0.0783 0.29966,-0.10487 0.359625,-0.23489 0.09038,-0.19597 -0.04584,-0.45071 0.04654,-0.64574 0.05113,-0.10796 1.308256,-1.39966 1.31105,-1.40262 1.807329,-1.913728 -0.03686,-0.009 2.013575,-2.10644 2.745652,-2.917163 5.5953,-5.739791 8.154244,-8.824883 0.375774,-0.517348 0.751549,-1.034695 1.127323,-1.552043 0.09846,-0.134281 -1.800561,-1.526752 -1.899023,-1.39247 v 0 c -0.508357,0.425608 -1.016714,0.85122 -1.525071,1.276829 -2.907692,2.810192 -5.592236,5.847222 -7.963019,9.1274 -0.693569,1.0195 -1.010418,1.443024 -1.610868,2.473437 -0.184455,0.31654 -0.349369,0.64407 -0.523531,0.96638 -0.131371,0.24312 -0.20405,0.52834 -0.393076,0.72992 -0.159718,0.17032 -0.454268,0.16896 -0.611619,0.34148 -0.08995,0.0986 -0.04055,0.26386 -0.06082,0.39578 -0.05995,0.11135 1.514716,0.95921 1.57467,0.84786 z" /><path
       style="fill:#1a1a1a;stroke-width:0.365001;paint-order:stroke fill markers"
       id="path17"
       d="m 50.500062,88.870979 c 0.261496,-0.106841 0.784532,-0.293047 0.928886,-0.517329 0.156231,-0.242737 0.07795,-0.585277 0.216554,-0.838491 0.443492,-0.810207 1.983642,-1.997837 2.662983,-2.627659 1.473052,-1.479269 0.770586,-0.695232 2.102395,-2.356588 0.08869,-0.11325 -1.512903,-1.367459 -1.601589,-1.25421 v 0 c -1.738534,1.377027 -0.930928,0.644322 -2.431258,2.188776 -0.309708,0.376235 -0.625261,0.747734 -0.929125,1.128705 -0.198059,0.248322 -1.150455,1.549202 -1.471011,1.800053 -0.250574,0.196085 -0.621028,0.208087 -0.855726,0.422921 -0.138425,0.126709 -0.274061,0.752438 -0.327602,0.968382 -0.07675,0.120595 1.62874,1.206037 1.705493,1.08544 z" /><path
       style="fill:#1a1a1a;stroke-width:0.365001;paint-order:stroke fill markers"
       id="path18"
       d="m 51.792176,145.74342 c -1.098351,-1.02757 -2.344375,-1.88681 -3.558773,-2.7696 -1.534178,-1.12281 -3.04383,-2.27406 -4.503316,-3.49219 -0.08056,-0.0848 -1.279483,1.05455 -1.19892,1.13932 v 0 c 1.575938,1.1677 3.141276,2.35933 4.875697,3.28874 1.373396,0.74575 2.769669,1.54461 4.289782,1.94594 0.0079,0.007 0.103465,-0.10545 0.09553,-0.11221 z" /><path
       style="fill:#1a1a1a;stroke-width:0.365001;paint-order:stroke fill markers"
       id="path19"
       d="m 47.938626,131.48173 c -1.016752,-1.14407 -2.258216,-2.07633 -3.515294,-2.93895 -1.424763,-0.93738 -0.705749,-0.46585 -2.157105,-1.41449 -0.07339,-0.0777 -1.172242,0.96024 -1.098849,1.03794 v 0 c 1.244544,1.18647 0.61664,0.60669 1.883071,1.74002 1.248383,1.0055 2.595292,1.99452 4.164184,2.42588 0.06013,0.0512 0.784127,-0.79921 0.723993,-0.8504 z" /><path
       style="fill:#1a1a1a;stroke-width:0.365001;paint-order:stroke fill markers"
       id="path20"
       d="m 47.591236,119.02761 c -0.832115,-1.26184 -1.919571,-2.37162 -2.931507,-3.49598 -1.550389,-1.87941 -3.309937,-3.55424 -5.071588,-5.22953 -0.07136,-0.11021 -1.630032,0.89899 -1.558669,1.00921 v 0 c 1.323229,2.12072 2.764473,4.15014 4.710295,5.75746 1.207527,1.01784 2.462665,2.06912 3.944604,2.66228 0.04974,0.0641 0.956604,-0.63932 0.906865,-0.70344 z" /><path
       style="fill:#1a1a1a;stroke-width:0.365001;paint-order:stroke fill markers"
       id="path21"
       d="m 46.307536,105.56979 c -0.630621,-1.48479 -1.79813,-2.71622 -2.830312,-3.93558 -0.965681,-1.08849 -1.827728,-2.267049 -2.815531,-3.336463 -0.354883,-0.384201 -0.790993,-0.696087 -1.103437,-1.115528 -1.682525,-2.258711 0.42945,-0.57907 -2.0163,-2.185244 -0.0841,-0.13348 -1.971796,1.05591 -1.887693,1.189389 v 0 c 0.854726,2.471976 -0.103079,0.452086 1.695442,2.452204 0.354904,0.394684 0.583901,0.888023 0.911323,1.30579 0.927832,1.183842 2.053336,2.193842 3.115347,3.251152 1.192432,1.11616 2.376043,2.28356 3.813175,3.08581 0.05031,0.0791 1.168299,-0.63248 1.117986,-0.71153 z" /><path
       style="fill:#1a1a1a;stroke-width:0.365001;paint-order:stroke fill markers"
       id="path22"
       d="m 45.495032,94.032005 c -0.289425,-1.48954 -1.184222,-2.851737 -1.890382,-4.18139 -0.617013,-1.177483 -1.224497,-2.356834 -1.907688,-3.497929 -0.251597,-0.420233 -0.580533,-0.799539 -0.771382,-1.250622 -0.185465,-0.438359 -0.229394,-0.923904 -0.344093,-1.385856 -0.05366,-0.172789 -2.497262,0.586129 -2.443599,0.758918 v 0 c 0.227295,0.450813 0.506362,0.879062 0.681884,1.352439 0.180324,0.48633 0.222298,1.014756 0.379156,1.509157 0.428188,1.349597 1.118962,2.589294 1.90246,3.760731 0.893358,1.280737 1.792531,2.666768 3.096839,3.567314 0.04474,0.0917 1.341549,-0.541065 1.296805,-0.632762 z" /><path
       style="fill:#1a1a1a;stroke-width:0.365001;paint-order:stroke fill markers"
       id="path23"
       d="m 78.112008,161.10042 c 1.357955,0.26231 2.759514,0.21772 4.135596,0.17713 3.369228,-0.0792 6.715538,-0.46135 10.055889,-0.88042 4.386159,-0.52038 8.743267,-1.2421 13.095927,-1.98578 3.0607,-0.55615 6.11409,-1.15495 9.16176,-1.77869 0.75646,-0.15481 1.54124,-0.21193 2.26718,-0.47498 0.71757,-0.26001 1.34653,-0.71894 2.01979,-1.07841 4.5615,-0.99095 9.0835,-2.15767 13.53442,-3.56386 0.14646,-0.0792 -0.97328,-2.15043 -1.11974,-2.07125 v 0 c -4.44607,1.25644 -8.91105,2.45206 -13.42598,3.43812 -0.83904,-0.0302 -1.67996,-0.15449 -2.5171,-0.0907 -0.76836,0.0586 -1.51125,0.30218 -2.26645,0.45536 -3.02514,0.61364 -6.05107,1.22298 -9.0891,1.77047 -4.283523,0.80169 -8.571863,1.57732 -12.864474,2.32849 -3.211205,0.55692 -6.4165,1.15446 -9.603412,1.83757 -1.265068,0.25266 -2.61625,0.44559 -3.768598,1.04973 -0.06132,0.0272 0.322972,0.89436 0.384292,0.86719 z" /><path
       style="fill:#1a1a1a;stroke-width:0.365001;paint-order:stroke fill markers"
       id="path24"
       d="m 92.169579,160.03438 c 0.631648,-0.20257 1.772076,-1.25753 1.957462,-1.83989 0.109765,-0.34481 0.04723,-0.72217 0.07084,-1.08326 1.067218,-1.37043 1.828556,-2.86214 2.507953,-4.45124 0.054,-0.0992 -1.3492,-0.86288 -1.403199,-0.76366 v 0 c -1.239517,1.26728 -2.360864,2.56675 -3.164139,4.1645 -0.334787,0.20867 -0.722775,0.34972 -1.00436,0.62601 -0.533707,0.52367 -0.810028,1.86958 -0.750525,2.61452 -0.05183,0.12629 1.734132,0.8593 1.785963,0.73302 z" /><path
       style="fill:#1a1a1a;stroke-width:0.365001;paint-order:stroke fill markers"
       id="path25"
       d="m 101.69244,157.87948 c 0.2719,-0.26989 0.94577,-0.61287 1.06053,-0.98863 0.0858,-0.28095 -0.0738,-0.59072 -0.0277,-0.88085 0.11978,-0.75419 0.48246,-1.10493 0.9115,-1.71405 0.92465,-1.43982 1.92895,-2.84997 2.62265,-4.42328 0.39425,-0.89416 0.53812,-1.47693 0.81625,-2.40539 0.046,-0.095 -1.29762,-0.74609 -1.34365,-0.65108 v 0 c -0.82704,0.8592 -1.05497,1.0299 -1.74226,2.00639 -0.98085,1.39356 -1.67561,2.96356 -2.46116,4.46791 -0.32967,0.68856 -0.47547,1.18557 -1.0617,1.70046 -0.22597,0.19847 -0.572888,0.24153 -0.772077,0.46687 -0.244367,0.27644 -0.211484,0.96433 -0.262065,1.31905 -0.07797,0.15978 2.181742,1.26238 2.259702,1.1026 z" /><path
       style="fill:#1a1a1a;stroke-width:0.365001;paint-order:stroke fill markers"
       id="path26"
       d="m 109.25393,157.54879 c 1.37771,-0.18194 2.63811,-1.51413 3.64901,-2.39146 0.0893,-0.47435 0.0379,-0.99877 0.268,-1.42306 0.23798,-0.43871 0.71556,-0.69598 1.07134,-1.04601 0.38884,-0.38256 0.78765,-0.75546 1.1625,-1.15173 0.71467,-0.75553 1.59103,-1.76529 2.15392,-2.64452 0.29924,-0.46741 0.52893,-0.97586 0.7934,-1.4638 0.0713,-0.099 -1.32854,-1.10668 -1.39979,-1.0077 v 0 c -1.5557,1.04903 -2.71295,1.96781 -3.97214,3.37449 -0.36197,0.40437 -0.69655,0.8325 -1.03985,1.25284 -0.31234,0.38245 -0.52186,0.87317 -0.92701,1.15545 -0.43671,0.30426 -1.00228,0.35857 -1.50341,0.53786 -0.7224,1.03409 -1.82804,2.22734 -1.8937,3.53728 -0.0898,0.11581 1.5479,1.38616 1.63773,1.27036 z" /><path
       style="fill:#1a1a1a;stroke-width:0.365001;paint-order:stroke fill markers"
       id="path27"
       d="m 124.18318,152.18678 c 0.0825,-0.0506 0.29161,-0.0658 0.24736,-0.15184 -0.15075,-0.29312 -0.60363,-0.39035 -0.68981,-0.7085 -0.0509,-0.18788 0.25196,-0.29677 0.37713,-0.44583 0.53433,-0.63628 1.05095,-1.28666 1.58007,-1.9273 0.6431,-0.80413 1.31962,-1.58061 1.98655,-2.36485 0.0433,-0.0657 -0.88648,-0.67826 -0.9298,-0.61251 v 0 c -0.65703,0.80861 -1.30629,1.62305 -1.89346,2.48492 -0.45622,0.70141 -0.91274,1.39409 -1.2761,2.14976 -0.083,0.17267 -0.0518,0.45702 -0.23035,0.5266 -0.34658,0.1351 -0.75483,-0.0911 -1.11593,-0.002 -0.0877,0.0217 0.0248,0.17907 0.0371,0.2686 -0.0554,0.13486 1.85186,0.91764 1.90721,0.78277 z" /><path
       style="fill:#1a1a1a;stroke-width:0.365001;paint-order:stroke fill markers"
       id="path28"
       d="m 90.389185,161.18373 c 0.178964,0.19356 0.3209,0.38969 0.610007,0.45294 0.254429,0.0556 0.535647,-0.0642 0.780992,0.0232 0.288698,0.10283 0.501431,0.35256 0.755412,0.52407 0.624091,0.42143 1.400405,0.9184 2.025751,1.32274 0.26975,0.17381 2.166643,1.37709 2.383734,1.59456 0.347274,0.34788 0.464098,0.89575 0.84093,1.21137 0.978133,0.81925 1.820768,0.57595 2.993399,0.565 0.0816,0.0768 1.16772,-1.0767 1.08616,-1.1535 v 0 c -0.12685,-0.47851 -0.13099,-1.00799 -0.38054,-1.43552 -0.78803,-1.35009 -1.33603,-0.85079 -2.6625,-1.34925 -0.939493,-0.35304 -1.701951,-1.09151 -2.647082,-1.43475 -0.921637,-0.44095 -1.397918,-0.68992 -2.32994,-1.05905 -0.312554,-0.12379 -0.665165,-0.16099 -0.949187,-0.34085 -0.226936,-0.1437 -0.315743,-0.44872 -0.537366,-0.60049 -0.259085,-0.17742 -0.635392,-0.13883 -0.927042,-0.13488 -0.128299,-0.0737 -1.171027,1.7407 -1.042728,1.81443 z" /><path
       style="fill:#1a1a1a;stroke-width:0.365001;paint-order:stroke fill markers"
       id="path29"
       d="m 101.90319,159.48969 c 0.44705,0.92974 1.25977,0.37896 1.89036,0.49799 0.34083,0.0643 0.61786,0.31556 0.93063,0.46548 0.37585,0.18014 0.75666,0.34973 1.135,0.52459 0.82712,0.49858 1.79939,0.62062 2.67136,0.99953 0.44292,0.19247 0.80129,0.58839 1.27306,0.69158 0.5316,0.11628 1.08769,-0.0375 1.63153,-0.0562 0.11023,0.0656 1.03815,-1.49334 0.92791,-1.55895 v 0 c -0.33393,-0.32921 -0.58473,-0.77327 -1.00178,-0.98762 -0.45316,-0.23291 -1.0097,-0.15652 -1.49922,-0.29782 -0.91809,-0.265 -1.74609,-0.80273 -2.70971,-0.93571 -0.40785,-0.1091 -0.81558,-0.21864 -1.22355,-0.32729 -0.34345,-0.0915 -0.72871,-0.0857 -1.03071,-0.27308 -0.24698,-0.15326 -0.30206,-0.51106 -0.52786,-0.69411 -0.34017,-0.27576 -0.98774,-0.28984 -1.395,-0.22791 -0.15412,-0.0758 -1.22614,2.10375 -1.07202,2.17956 z" /><path
       style="fill:#1a1a1a;stroke-width:0.365001;paint-order:stroke fill markers"
       id="path30"
       d="m 116.89224,157.52531 c 0.12403,0.15449 0.3888,0.52842 0.5957,0.54802 0.32327,0.0306 0.63988,-0.21329 0.96056,-0.16219 0.32589,0.0519 0.57933,0.3173 0.87906,0.45537 0.80424,0.37048 1.63473,0.68106 2.45187,1.02211 1.2749,2.07734 0.35527,1.66079 2.83761,1.05881 0.14807,0.0719 1.16472,-2.02216 1.01665,-2.09404 v 0 c -1.54152,-1.72409 -0.56193,-1.36736 -3.0985,-0.42549 -1.81037,-0.26849 -1.02526,-0.12922 -2.68068,-0.45545 -0.33433,-0.0659 -0.71539,-0.0161 -1.00266,-0.19932 -0.22237,-0.14187 -0.18809,-0.51847 -0.38946,-0.68883 -0.20203,-0.1709 -0.60377,-0.076 -0.83869,-0.0398 -0.0694,-0.0517 -0.80081,0.92908 -0.73146,0.9808 z" /><path
       style="fill:#1a1a1a;stroke-width:0.365001;paint-order:stroke fill markers"
       id="path31"
       d="m 125.44103,110.76504 c 2.45494,0.46728 4.99367,0.35411 7.47928,0.29215 5.81011,-0.28297 11.57498,-1.12827 17.31005,-2.06488 5.80491,-1.0507 11.61953,-2.13316 17.23842,-3.95628 0.58665,-0.31276 1.1733,-0.62553 1.75996,-0.93829 0.18832,-0.0904 -1.08945,-2.75362 -1.27777,-2.66327 v 0 c -0.72018,-0.002 -1.44036,-0.004 -2.16053,-0.006 -5.87856,0.74555 -11.70039,1.8596 -17.52598,2.93359 -5.52438,1.09597 -11.02998,2.284 -16.53659,3.46533 -2.24987,0.51667 -4.57642,0.89348 -6.71393,1.7888 -0.0813,0.0302 0.34582,1.17954 0.42709,1.14934 z" /><path
       style="fill:#1a1a1a;stroke-width:0.365001;paint-order:stroke fill markers"
       id="path32"
       d="m 137.55712,108.55443 c 0.3457,-0.12217 0.23051,-0.0427 0.52139,-0.3289 0.93504,-0.92006 -0.0857,-0.8339 0.28142,-1.9862 0.10105,-0.3171 0.36888,-0.55407 0.55332,-0.8311 1.29062,-1.71221 2.1323,-3.68808 3.19595,-5.53468 0.0635,-0.115202 -1.56572,-1.012833 -1.62919,-0.897631 v 0 c -1.38045,1.727421 -2.96587,3.329241 -3.87023,5.382301 -0.14886,0.31998 -0.23134,0.68025 -0.44656,0.95994 -0.0869,0.11295 -1.41949,1.12679 -1.52105,1.29858 -0.10346,0.17501 -0.0204,0.40633 -0.0186,0.60962 0.004,0.46426 1.7e-4,0.35571 0.16279,0.74971 -0.0409,0.19592 2.72986,0.77428 2.77075,0.57836 z" /><path
       style="fill:#1a1a1a;stroke-width:0.365001;paint-order:stroke fill markers"
       id="path33"
       d="m 149.53004,106.9439 c 0.47061,-0.11803 1.66004,-0.93497 1.74354,-1.35888 0.88341,-4.48526 -1.48037,2.32476 0.20924,-2.15475 1.17445,-1.45685 1.83466,-3.20162 2.60565,-4.881893 0.0707,-0.139827 -1.90675,-1.139765 -1.97746,-0.999938 v 0 c -1.19248,1.473195 -2.47752,2.887681 -3.20875,4.667111 -1.02292,1.27418 -0.40025,0.75429 -1.88565,1.53827 -0.31097,0.32068 -0.27211,1.70792 -0.0741,2.12808 -0.0751,0.18296 2.51247,1.24497 2.58756,1.062 z" /><path
       style="fill:#1a1a1a;stroke-width:0.365001;paint-order:stroke fill markers"
       id="path34"
       d="m 160.69007,103.49771 c 0.16278,-0.0604 0.45374,-0.0111 0.48832,-0.18124 0.0537,-0.26414 -0.31306,-0.48226 -0.29873,-0.75142 0.01,-0.18802 0.88607,-1.35284 0.91875,-1.40183 0.37798,-0.56653 0.83563,-1.357985 1.17939,-1.938243 0.16869,-0.381815 0.33737,-0.76363 0.50606,-1.145442 0.089,-0.422849 0.10441,-0.868228 0.26713,-1.268545 0.15939,-0.392141 0.45567,-0.713502 0.68351,-1.070253 0.0613,-0.14097 -1.93229,-1.008179 -1.99361,-0.867209 v 0 c -0.16483,0.382159 -0.2622,0.801132 -0.49447,1.146474 -0.25471,0.378699 -0.62918,0.661274 -0.94377,0.99191 -0.2208,0.359534 -0.44159,0.719066 -0.66238,1.078598 -0.55581,1.205277 -0.40612,0.849386 -0.88518,2.00071 -0.0572,0.13757 -0.45706,1.24241 -0.68766,1.37428 -0.25029,0.14313 -0.61417,-0.0384 -0.85703,0.11696 -0.10323,0.0661 0.0991,0.22417 0.14873,0.33625 -0.11165,0.18603 2.51929,1.76503 2.63094,1.579 z" /><path
       style="fill:#1a1a1a;stroke-width:0.365001;paint-order:stroke fill markers"
       id="path35"
       d="m 130.52366,111.77414 c 1.68477,1.13432 3.56177,1.98528 5.40997,2.81882 1.10146,0.59038 2.34431,0.78823 3.49516,1.23942 0.54492,0.21363 1.05876,0.49934 1.58814,0.74901 0.16503,0.11329 1.76719,-2.22055 1.60216,-2.33384 v 0 c -0.55856,-0.23226 -1.1286,-0.43867 -1.6757,-0.69677 -3.81838,-1.8014 0.51893,-0.0174 -3.38611,-1.55764 -2.11825,-0.67639 -4.31862,-1.39591 -6.56041,-1.43715 -0.0861,-0.0335 -0.55934,1.18469 -0.47321,1.21815 z" /><path
       style="fill:#1a1a1a;stroke-width:0.365001;paint-order:stroke fill markers"
       id="path36"
       d="m 143.63832,110.58307 c 0.26924,0.47923 0.85792,0.5629 1.30741,0.79885 0.98523,0.5172 0.90536,0.65193 1.99607,1.14969 0.4453,0.20322 0.91635,0.34447 1.37453,0.51671 0.50781,0.14189 1.01562,0.28379 1.52344,0.42568 0.1323,0.0848 1.33179,-1.78629 1.19948,-1.87111 v 0 c -0.43918,-0.23574 -0.87837,-0.47148 -1.31756,-0.70722 -0.42724,-0.19105 -0.84535,-0.40401 -1.28173,-0.57314 -0.72181,-0.27975 -1.49298,-0.42153 -2.21049,-0.71212 -0.60387,-0.24457 -0.60618,-0.40933 -1.1858,-0.55845 -0.12945,-0.0333 -0.26632,-0.0233 -0.39947,-0.0349 -0.11074,-0.0711 -1.11661,1.49489 -1.00588,1.56601 z" /><path
       style="fill:#1a1a1a;stroke-width:0.365001;paint-order:stroke fill markers"
       id="path37"
       d="m 87.436456,114.20179 c 0.451176,-1.62564 0.461005,-3.34651 0.583258,-5.01962 0.344628,-4.65167 0.479449,-9.314848 0.596022,-13.976685 0.238953,-6.030756 0.274087,-12.066333 0.442433,-18.098838 0.07669,-5.482842 0.279498,-10.962503 0.759609,-16.425318 0.365913,-4.409283 0.703159,-8.818247 1.209778,-13.213968 0.187949,-1.818847 0.468198,-3.624903 0.75135,-5.430536 0.08812,-0.56192 0.291264,-1.118346 0.260787,-1.686317 -0.220332,-4.106169 -0.883883,0.569495 -0.136102,-3.315221 0.447863,-2.144646 0.213008,-1.066977 0.705345,-3.232832 0.02178,-0.121897 -1.702104,-0.429729 -1.723872,-0.307833 v 0 c -0.437784,2.190277 -0.217614,1.10204 -0.660336,3.264744 -0.842521,4.207177 0.437769,-1.084871 -1.36901,3.124753 -0.226607,0.527974 -0.224467,1.12699 -0.330044,1.691759 -0.341553,1.827049 -0.645149,3.661204 -0.952846,5.494142 -0.701233,4.418735 -1.25508,8.860377 -1.780532,13.303065 -0.523084,5.534813 -0.924132,11.080876 -1.106451,16.638468 -0.145018,6.068092 -0.310848,12.139065 -0.135808,18.208548 0.156911,4.683892 0.32956,9.375269 0.907479,14.030069 0.231293,1.70785 0.315664,3.58576 1.178105,5.11878 0.01183,0.0566 0.812654,-0.11053 0.800835,-0.16716 z" /><path
       style="fill:#1a1a1a;stroke-width:0.365001;paint-order:stroke fill markers"
       id="path38"
       d="m 88.534866,93.049703 c -0.127939,-0.722678 -1.31694,-3.057819 -1.719519,-3.374099 -0.448998,-0.352748 -1.039485,-0.472858 -1.559227,-0.709287 -1.193837,-1.988405 -2.644007,-3.810863 -4.076208,-5.630394 -0.0645,-0.131602 -1.925616,0.780547 -1.861118,0.912148 v 0 c 0.954992,2.149507 1.965174,4.302109 3.431185,6.160233 0.04864,0.557091 -0.06021,1.151443 0.145934,1.671269 0.272219,0.686454 2.514163,2.490851 3.421911,2.689845 0.121603,0.156768 2.338644,-1.562947 2.217042,-1.719715 z" /><path
       style="fill:#1a1a1a;stroke-width:0.365001;paint-order:stroke fill markers"
       id="path39"
       d="m 88.30556,78.096694 c 0.103875,-0.100814 0.262228,-0.166378 0.311623,-0.30244 C 88.804201,77.279089 88.298527,75.92714 88.144812,75.486069 88.0073,75.091495 87.99247,74.618082 87.709676,74.310467 87.293655,73.857937 86.672482,73.650424 86.153883,73.320404 84.724707,69.274427 82.888867,65.41381 80.71551,61.718996 80.397505,61.116548 80.0795,60.514102 79.761492,59.911654 c -0.0528,-0.154612 -2.239338,0.592132 -2.186535,0.746744 v 0 c 0.199196,0.649425 0.398393,1.29885 0.59759,1.948273 1.145043,4.180848 2.724947,8.228713 5.009698,11.930104 -0.05472,0.600335 -0.28294,1.209998 -0.164172,1.801003 0.08384,0.417169 0.481992,0.701604 0.735746,1.04317 0.528505,0.711393 1.100891,1.48009 1.964176,1.777754 0.0751,0.18297 2.662661,-0.879041 2.587565,-1.062008 z" /><path
       style="fill:#1a1a1a;stroke-width:0.365001;paint-order:stroke fill markers"
       id="path40"
       d="m 86.240577,56.738993 c 0.486568,-1.685846 -0.312481,-3.62194 -0.777648,-5.233268 -0.661813,-2.451978 -1.867493,-4.694978 -2.883572,-7.007878 -0.05134,-0.176774 -2.5513,0.549251 -2.499963,0.726024 v 0 c 0.651912,2.457276 1.140656,4.985499 2.333665,7.257603 0.737724,1.500899 1.399188,3.30059 2.639919,4.456261 0.01405,0.08398 1.201651,-0.114766 1.187599,-0.198742 z" /><path
       style="fill:#1a1a1a;stroke-width:0.365001;paint-order:stroke fill markers"
       id="path41"
       d="m 87.350866,95.719814 c 0.783614,-0.568534 1.656498,-1.229095 2.221442,-2.02592 0.447916,-0.631761 1.043405,-2.115611 1.323705,-2.759321 1.301848,-1.539134 2.601619,-3.078562 3.847415,-4.663765 0.438795,-0.55834 0.834953,-1.151393 1.302959,-1.685483 2.448782,-2.794561 0.642347,-0.108143 2.491007,-3.159144 0.119716,-0.177361 -2.38855,-1.8704 -2.508266,-1.693039 v 0 c -2.538013,2.177608 -0.684739,0.372377 -2.77627,3.049894 -0.44568,0.570545 -0.94913,1.093743 -1.408592,1.653249 -1.300914,1.584182 -2.518164,3.236899 -3.611975,4.971341 -0.609222,0.5721 -1.816166,1.621859 -2.301483,2.372198 -0.475261,0.734788 -0.830861,2.102668 -0.867865,3.000963 -0.0664,0.161779 2.221523,1.100807 2.287923,0.939027 z" /><path
       style="fill:#1a1a1a;stroke-width:0.365001;paint-order:stroke fill markers"
       id="path42"
       d="m 87.657463,75.163986 c 1.290132,-0.355058 2.28777,-1.175658 3.114312,-2.205927 0.369845,-0.461004 0.637995,-1.004212 1.046649,-1.431189 0.491546,-0.513588 1.089613,-0.9134 1.634419,-1.3701 2.503982,-1.967513 4.458793,-4.46582 6.532216,-6.851303 0.117021,-0.150474 -2.011003,-1.805429 -2.128025,-1.654956 v 0 c -2.400411,2.077308 -4.943957,4.002421 -7.008667,6.437884 -0.463127,0.524153 -0.872384,1.101355 -1.38938,1.572461 -0.459828,0.419013 -1.031452,0.697543 -1.521833,1.080347 -0.974336,0.760587 -1.863138,1.734947 -2.157598,2.96613 -0.103,0.132786 1.774907,1.589439 1.877907,1.456653 z" /><path
       style="fill:#1a1a1a;stroke-width:0.365001;paint-order:stroke fill markers"
       id="path43"
       d="m 89.548191,58.01647 c 0.710811,-0.254328 1.487927,-0.641003 1.946981,-1.271498 0.265962,-0.365294 0.32462,-0.859951 0.609084,-1.211029 0.341406,-0.421352 0.851559,-0.675989 1.232572,-1.061897 0.423326,-0.428763 0.782262,-0.916644 1.173393,-1.374966 0.101994,-0.127164 -1.696373,-1.569564 -1.798365,-1.4424 v 0 c -0.485068,0.384593 -0.998966,0.735391 -1.455205,1.153779 -0.396447,0.363556 -0.668896,0.857155 -1.095272,1.185098 -0.395751,0.304385 -0.927823,0.391224 -1.33317,0.682705 -0.601924,0.432839 -0.982614,1.171868 -1.186166,1.86165 -0.10455,0.134784 1.801598,1.613345 1.906148,1.478558 z" /><path
       style="fill:#1a1a1a;stroke-width:0.365001;paint-order:stroke fill markers"
       id="path44"
       d="m 118.13111,70.682444 c 0.67844,-1.961517 0.799,-4.120972 1.08069,-6.172649 0.53639,-5.108311 1.17441,-10.203918 1.83789,-15.297005 0.86887,-6.417296 1.72273,-12.837144 2.70923,-19.237592 0.19128,-1.114483 0.4822,-2.216388 0.57382,-3.343449 0.0927,-1.140016 -0.11642,-2.291291 -0.0231,-3.431254 0.0917,-1.119919 0.38045,-2.214906 0.57597,-3.321431 1.898,-10.7414546 -0.6688,3.936551 1.11389,-6.280119 0.0394,-0.225957 -3.15613,-0.78302 -3.19552,-0.557063 v 0 c -0.80201,3.311344 -0.742,2.897459 -1.40207,6.316872 -0.21426,1.109925 -0.31688,2.244303 -0.61137,3.335685 -0.30393,1.126374 -0.89116,2.164928 -1.17802,3.295771 -0.28154,1.109867 -0.34625,2.263712 -0.51937,3.395568 -0.95208,6.46081 -1.86348,12.931211 -2.4289,19.439506 -0.41962,5.194298 -0.77365,10.414574 -0.49866,15.626742 0.18789,2.068282 0.2298,4.26589 0.95132,6.230418 0,0.07172 1.01419,0.07172 1.01419,0 z" /><path
       style="fill:#1a1a1a;stroke-width:0.365001;paint-order:stroke fill markers"
       id="path45"
       d="m 121.01684,53.260566 c 0.20568,-1.226513 -0.31103,-2.52132 -0.72733,-3.658137 -0.19957,-0.54497 -0.32236,-1.137978 -0.65626,-1.612667 -0.43212,-0.614315 -1.06435,-1.059995 -1.59652,-1.58999 -0.35846,-0.658741 -0.71691,-1.317482 -1.07536,-1.976223 -0.0699,-0.176805 -2.57026,0.810884 -2.50042,0.98769 v 0 c 0.29128,0.693729 0.58257,1.387459 0.87386,2.081188 0.0799,0.713177 0.0284,1.453695 0.23964,2.139535 0.20474,0.664726 2.12566,3.488872 2.80124,4.051607 0.11221,0.09346 0.25956,0.133905 0.38934,0.200858 0.0441,0.159229 2.29592,-0.464635 2.25181,-0.623861 z" /><path
       style="fill:#1a1a1a;stroke-width:0.365001;paint-order:stroke fill markers"
       id="path46"
       d="m 120.36563,33.68403 c 0.11888,-0.275 0.31255,-0.648563 0.28199,-0.957033 -0.0272,-0.274806 -0.16753,-0.526298 -0.24822,-0.790403 -0.10834,-0.354631 -0.19595,-0.715907 -0.31884,-1.065762 -0.16027,-0.456264 -0.3997,-0.884804 -0.52989,-1.35054 -0.15808,-0.565462 -0.22085,-1.153329 -0.33128,-1.729996 -1.68585,-6.345781 0.83189,2.724816 -1.4095,-3.965346 -0.2316,-0.691283 -0.3318,-1.41984 -0.49771,-2.12976 -0.032,-0.159279 -2.28454,0.293354 -2.25254,0.452632 v 0 c 0.17798,0.719586 0.40997,1.427929 0.53394,2.158757 0.8449,4.980631 -0.51389,-0.444022 0.72876,4.118153 0.18521,0.549839 0.42443,1.08435 0.55565,1.649513 0.10389,0.447482 0.0894,0.914511 0.1455,1.370452 0.0417,0.33877 0.11178,0.673835 0.14803,1.013235 0.0555,0.519255 -0.0225,0.929039 0.48941,1.226098 0,0.191251 2.7047,0.191251 2.7047,0 z" /><path
       style="fill:#1a1a1a;stroke-width:0.365001;paint-order:stroke fill markers"
       id="path47"
       d="m 119.21434,63.788575 c 0.46869,-0.08601 1.07168,-0.400809 1.32069,-0.819449 0.18463,-0.310385 0.13836,-0.725384 0.32846,-1.032444 0.12195,-0.196977 1.99996,-2.07736 2.0535,-2.131555 0.3781,-0.433382 0.7562,-0.866767 1.1343,-1.300149 0.1,-0.128778 -1.72125,-1.542608 -1.82123,-1.413827 v 0 c -0.45021,0.394157 -0.90042,0.788315 -1.35063,1.182473 -0.37467,0.397695 -0.74967,0.795094 -1.12403,1.193085 -0.33105,0.351939 -0.6174,0.751788 -0.99221,1.056704 -0.32921,0.267816 -0.78596,0.356645 -1.09829,0.643961 -0.43356,0.398841 -0.53083,1.189906 -0.60799,1.735728 -0.0626,0.152553 2.09482,1.038026 2.15743,0.885473 z" /><path
       style="fill:#1a1a1a;stroke-width:0.365001;paint-order:stroke fill markers"
       id="path48"
       d="m 120.88968,41.205411 c 0.77115,-0.213227 1.63412,-0.480181 2.13015,-1.173228 0.23692,-0.331007 0.33415,-0.742376 0.50123,-1.113563 0.0821,-0.07722 -1.01002,-1.237795 -1.09209,-1.160571 v 0 c -1.47937,0.177525 -2.11062,0.210519 -3.05159,1.419546 -0.14339,0.106934 1.36891,2.134753 1.5123,2.027816 z" /></g></svg>
