<?xml version="1.0" encoding="UTF-8" standalone="no"?>
<!-- Created with Inkscape (http://www.inkscape.org/) -->

<svg
   width="210mm"
   height="210mm"
   viewBox="0 0 210 210"
   version="1.1"
   id="svg1"
   xml:space="preserve"
   inkscape:version="1.3.2 (091e20e, 2023-11-25)"
   sodipodi:docname="rose.svg"
   xmlns:inkscape="http://www.inkscape.org/namespaces/inkscape"
   xmlns:sodipodi="http://sodipodi.sourceforge.net/DTD/sodipodi-0.dtd"
   xmlns="http://www.w3.org/2000/svg"
   xmlns:svg="http://www.w3.org/2000/svg"><sodipodi:namedview
     id="namedview1"
     pagecolor="#e5d0ca"
     bordercolor="#999999"
     borderopacity="1"
     inkscape:showpageshadow="2"
     inkscape:pageopacity="0"
     inkscape:pagecheckerboard="0"
     inkscape:deskcolor="#d1d1d1"
     inkscape:document-units="mm"
     inkscape:zoom="0.37016758"
     inkscape:cx="397.11744"
     inkscape:cy="582.16876"
     inkscape:window-width="896"
     inkscape:window-height="758"
     inkscape:window-x="547"
     inkscape:window-y="183"
     inkscape:window-maximized="0"
     inkscape:current-layer="layer1" /><defs
     id="defs1"><inkscape:path-effect
       effect="simplify"
       id="path-effect1"
       is_visible="true"
       lpeversion="1.3"
       threshold="8.51064"
       steps="1"
       smooth_angles="360"
       helper_size="0"
       simplify_individual_paths="false"
       simplify_just_coalesce="false" /></defs><g
     inkscape:label="Layer 1"
     inkscape:groupmode="layer"
     id="layer1"><path
       style="font-variation-settings:normal;opacity:1;fill:#676c53;fill-opacity:1;stroke:#000000;stroke-width:0.61703789;stroke-linecap:butt;stroke-linejoin:miter;stroke-miterlimit:4;stroke-dasharray:none;stroke-dashoffset:0;stroke-opacity:1;stop-color:#000000;stop-opacity:1"
       d="m 103.25862,34.878465 c -7.053163,-2.8408 -14.989016,-3.670418 -22.411353,-1.799412 -8.508393,2.144777 -15.870921,7.708607 -21.086378,14.666414 -6.916025,9.22649 -10.6553,20.913404 -9.922537,32.449955 0.346626,5.457241 8.066826,11.665183 4.358858,15.700136 -8.807049,9.583692 -15.256095,21.513672 -17.626065,34.362392 -1.687492,9.14869 -1.052998,18.89984 2.877589,27.43001 3.323968,7.21369 9.168291,13.08612 16.05193,16.98125 4.304478,2.43571 8.842449,5.24778 13.779795,5.34505 9.09242,0.17912 18.057625,-2.168 26.369173,-5.73497 14.608818,-6.2695 27.608878,-15.83207 42.610708,-21.25973 7.76214,-2.80834 16.67638,-0.65072 24.32251,-3.8199 4.88405,-2.02434 9.7766,-4.4846 13.44744,-8.38494 2.27508,-2.41731 3.79284,-5.69579 3.54304,-9.07145 -0.30465,-4.11674 -2.68995,-7.75086 -5.45951,-10.66354 -4.69675,-4.93949 -10.55272,-8.6425 -16.66995,-11.55705 -5.83108,-2.77821 -13.61962,-1.64424 -18.37215,-6.0389 -3.38686,-3.13182 -5.77872,-7.404835 -6.28171,-12.031597 -0.61963,-5.699579 1.11901,-11.335785 3.27041,-16.542255 3.93843,-9.53115 9.68928,-18.258674 12.93583,-28.080131 1.63709,-4.952547 2.50291,-10.403905 0.9983,-15.512172 -1.47484,-5.007246 -5.62891,-8.489355 -9.48702,-11.854143 -1.23382,-1.076061 -2.71948,-1.488857 -4.33593,-1.635604 -6.24274,-0.566738 -12.4906,1.282335 -17.90287,4.316774 -5.75915,3.228912 -10.77714,7.690748 -15.01011,12.733813 z"
       id="path1"
       inkscape:path-effect="#path-effect1"
       inkscape:original-d="M 103.25862,34.878465 C 65.742849,20.028099 38.704693,67.034023 54.19721,95.895558 28.6712,123.5683 25.867202,169.27667 69.280459,180.01426 c 35.119351,0.52714 56.781101,-32.72519 93.302391,-30.8146 39.93296,-16.20161 0.17084,-41.87988 -23.51113,-45.71588 -25.77447,-24.428937 37.01537,-62.821676 -0.65805,-85.358753 -13.70352,-2.435874 -26.79552,6.747818 -35.15505,16.753438 z"
       transform="matrix(1.180152,0,0,1.0936401,-18.433694,-8.1934668)" /><path
       style="fill:#000000;stroke:#000000;stroke-width:0.6;stroke-dasharray:none;stroke-opacity:1"
       d="m 68.936032,202.14473 c -3.084563,-6.11538 -2.598386,-7.40532 -14.935187,-24.96736 -4.702098,-8.88869 -17.273458,-11.90204 -22.326519,-2.28335 -0.500135,-9.66851 8.121219,-24.01588 19.158584,-17.88243 14.147729,5.93515 18.757034,22.13684 21.369674,35.87409 1.239849,1.66548 -1.862942,-10.4708 -1.297887,-14.13462 -1.743218,-11.53688 1.921897,-22.89867 2.780578,-33.66734 -2.483198,-10.93189 -1.615068,-22.35066 2.380164,-32.81141 C 81.531114,99.962004 67.609112,94.561967 58.554067,91.207752 52.858788,87.517632 37.565198,81.845172 45.583618,73.293015 54.342612,66.408552 65.4619,58.512231 77.195026,62.406453 c 4.902464,-0.165903 9.757557,9.119756 10.998829,8.056771 -2.82,-9.494182 -8.682316,-19.344814 -16.366331,-25.42142 -4.109848,0.106206 -14.946184,-0.04395 -6.918271,-5.486941 10.992417,-11.165794 30.228846,-9.281764 40.853437,1.447348 8.38612,6.028961 11.10746,16.248693 12.91655,25.686139 2.45336,-6.191419 7.50924,-11.881081 14.38595,-13.645951 10.10544,-3.380008 21.32993,-2.409686 30.6753,-8.122657 10.41543,-3.254472 1.42641,12.514506 2.15393,17.859693 -2.04338,9.49878 -3.30542,20.200995 -10.0747,27.643235 -2.46319,3.027904 -13.33613,8.738794 -11.27212,8.849087 9.54319,-4.128005 20.48821,-0.05606 25.25768,9.063783 6.86519,8.48999 14.01645,17.28297 17.05889,27.97414 -10.81384,-2.15456 -21.65092,-4.71032 -32.74169,-3.60395 -7.27865,-0.815 -13.69064,-4.61567 -20.24328,-7.57957 10.04885,5.32149 13.39022,18.05842 10.31324,28.45364 0.33719,5.1388 -3.95509,18.71646 -6.45109,7.13716 -2.54927,-11.50701 -12.45824,-17.33427 -21.15371,-23.11093 -2.39994,-5.65979 -7.7306,-7.59296 -9.9654,-0.67823 -8.850817,4.65218 -16.649722,12.21601 -25.923028,14.59926 -6.758019,6.16345 -6.260548,17.22673 -5.224088,25.63722 2.049421,4.83826 1.860348,17.5523 4.771443,18.32334 0.363171,-9.51863 6.744213,-22.98426 18.38403,-18.87569 5.127703,1.13138 18.603663,1.18936 17.582313,6.18777 -8.64532,7.64728 -21.936828,4.12982 -30.34786,11.24619 0.533775,-0.58962 -3.453003,3.29523 -2.070049,0.84293 5.122829,-8.5112 15.841831,-5.48143 23.652949,-8.90056 4.70895,-1.05905 10.82358,-6.14355 2.2192,-6.11195 -9.34602,-3.53296 -25.771144,-4.97219 -26.671447,8.75376 -0.387373,3.03779 -3.287258,17.6945 -4.682801,8.01322 -2.365822,-12.02058 -6.472846,-24.27163 -3.461403,-36.55275 0.589122,-11.51574 14.401894,-10.63004 20.871815,-17.93886 4.953036,-3.14201 14.872116,-20.71323 6.397796,-26.99322 1.30985,-3.66271 -4.054739,-7.04789 -2.840957,-8.28315 -3.332628,-0.32386 1.395817,-1.23587 0.295644,-2.7548 L 97.912443,99.652119 C 97.486865,89.496682 104.8515,85.093563 101.3362,74.951954 c -2.794871,-4.950375 3.90594,-13.233724 5.48305,-5.082906 -0.74789,8.505805 -3.86585,11.457585 -3.79642,19.964565 3.43071,-9.885263 20.91272,-8.591441 20.51387,-20.193815 0.11622,-6.515971 12.37156,-10.112272 8.62818,-1.369216 -4.70792,7.946089 -11.97178,11.344827 -19.28905,17.446692 -3.05929,3.009922 -9.99129,16.835376 -3.22864,7.968741 7.78439,-5.571171 19.57841,-6.386446 23.27806,-14.87348 9.46222,-0.308124 7.23185,12.550753 -1.48827,12.276877 -5.56698,2.801883 -20.19555,6.277919 -20.25842,8.428469 9.43361,-1.00481 19.55762,-5.061215 26.61482,-7.853417 5.15723,9.833806 -12.88012,7.181137 -18.07275,12.030876 -8.06435,5.70243 -7.44735,23.7812 -10.77706,25.8489 2.96407,3.95972 4.13114,-5.42891 12.70706,10.2413 8.38415,3.65398 14.05842,11.00963 16.69062,19.62143 3.58854,10.95003 4.87405,-7.2591 5.62014,-11.85498 0.94394,-8.37876 -2.90909,-17.16426 -10.59733,-21.10569 -4.76041,-2.22022 -7.98499,-7.20483 -0.28614,-3.09251 10.33928,6.00454 21.82234,9.66789 33.82889,8.13814 5.60229,-0.35832 15.03889,4.14358 17.96493,2.41522 -4.78563,-12.27269 -13.78115,-22.25955 -22.23576,-32.10358 -7.88808,-7.310886 -20.28593,1.43122 -27.0194,0.68295 9.99988,-6.324698 23.66793,-11.954985 25.75966,-25.205162 2.78631,-10.625408 4.81535,-21.435159 6.46268,-32.291057 -10.30817,4.964325 -21.69138,6.516965 -32.78439,8.614865 -8.77474,1.531024 -13.83885,9.842185 -17.05078,16.539593 -2.19345,-7.443816 -1.9032,-16.019032 -7.30943,-22.301644 C 102.50483,37.500998 88.214808,29.452881 74.965727,34.719908 70.647139,35.782486 57.5872,45.121479 68.276275,42.891771 c 10.175428,1.657741 13.564616,12.873546 18.832004,20.249524 4.183931,4.083762 1.520454,16.930434 -1.663972,6.738907 -6.554702,-9.20753 -20.446973,-9.168147 -28.884006,-2.652413 -7.739634,2.827666 -18.541396,13.414692 -5.499592,17.869981 7.833049,7.825465 23.564457,7.1618 26.984062,18.68962 0.21165,11.09996 -6.305906,21.46493 -4.386126,32.77709 3.92488,10.85989 -2.200212,20.48277 -1.864926,31.5018 -0.446303,15.31271 -2.045107,17.99993 4.001192,32.10482 -5.926445,-3.21149 -2.342896,-1.60558 -4.953727,-8.30514 -2.817132,-13.00315 -7.076015,-28.29257 -20.531956,-33.95987 -8.029166,-5.76528 -19.492371,8.518 -15.276849,11.93866 10.045889,-8.04374 19.884625,5.63755 24.804128,13.41626 9.779741,15.99114 1.235189,1.62118 11.306259,18.7193 z m 39.861638,-80.81431 c 5.38799,-2.38255 3.28295,-13.02664 23.05728,-20.29273 4.40565,-0.36417 8.66806,-10.298739 3.10136,-7.08072 -4.71235,5.915491 -18.69122,7.54762 -25.5483,5.967721 4.08463,-7.645793 16.89348,-7.216657 24.54898,-11.210613 7.89969,-1.540266 1.59852,-14.08259 -2.09394,-5.550887 -2.85167,9.030155 -16.82828,5.081765 -21.47183,12.46814 -4.29599,6.139769 -7.33609,0.70255 -3.04623,-3.722332 4.71236,-8.481657 16.80753,-8.853198 20.49475,-17.900753 4.29534,-3.763359 4.46247,-15.485405 -1.59694,-6.681044 -1.85643,9.057821 -10.59765,10.494605 -17.83285,15.827754 -1.98544,3.94744 -7.9342,15.682185 -6.63856,4.095863 -1.820207,-7.669752 6.34584,-14.535769 1.8954,-19.217863 -3.59006,7.505148 -1.37483,12.15916 -5.476797,20.597334 -1.948277,3.711252 -1.84804,2.022377 -3.316808,4.143109 1.273124,1.612405 1.610078,1.535259 3.425608,12.515371 4.117757,0.3597 4.894807,2.65923 4.822827,12.7749 -0.81196,17.44002 6.08253,20.02066 5.67605,3.26675 z"
       id="path2"
       sodipodi:nodetypes="ccccccccccccccccccccccccccccccccccccccccccccccccccccccccccccccccccccccccccccccccccccccccccccccccccccccccccc" /></g></svg>
