<?xml version="1.0" encoding="UTF-8" standalone="no"?>
<!-- Created with Inkscape (http://www.inkscape.org/) -->

<svg
   width="210mm"
   height="210mm"
   viewBox="0 0 210 210"
   version="1.1"
   id="svg1"
   xml:space="preserve"
   inkscape:version="1.3.2 (091e20e, 2023-11-25)"
   sodipodi:docname="silly_flower.svg"
   inkscape:export-filename="leaf.png"
   inkscape:export-xdpi="700"
   inkscape:export-ydpi="700"
   xmlns:inkscape="http://www.inkscape.org/namespaces/inkscape"
   xmlns:sodipodi="http://sodipodi.sourceforge.net/DTD/sodipodi-0.dtd"
   xmlns="http://www.w3.org/2000/svg"
   xmlns:svg="http://www.w3.org/2000/svg"><sodipodi:namedview
     id="namedview1"
     pagecolor="#e5d0ca"
     bordercolor="#999999"
     borderopacity="1"
     inkscape:showpageshadow="2"
     inkscape:pageopacity="0"
     inkscape:pagecheckerboard="0"
     inkscape:deskcolor="#d1d1d1"
     inkscape:document-units="mm"
     inkscape:zoom="0.28567365"
     inkscape:cx="523.32443"
     inkscape:cy="182.02589"
     inkscape:window-width="1280"
     inkscape:window-height="589"
     inkscape:window-x="0"
     inkscape:window-y="925"
     inkscape:window-maximized="0"
     inkscape:current-layer="layer1"
     inkscape:export-bgcolor="#fdeed7ff" /><defs
     id="defs1"><inkscape:path-effect
       effect="simplify"
       id="path-effect1"
       is_visible="true"
       lpeversion="1.3"
       threshold="8.51064"
       steps="1"
       smooth_angles="360"
       helper_size="0"
       simplify_individual_paths="false"
       simplify_just_coalesce="false" /></defs><g
     inkscape:label="Layer 1"
     inkscape:groupmode="layer"
     id="layer1"><path
       style="font-variation-settings:normal;opacity:1;fill:#aca793;fill-opacity:1;stroke:none;stroke-width:0.617038;stroke-linecap:butt;stroke-linejoin:miter;stroke-miterlimit:4;stroke-dasharray:none;stroke-dashoffset:0;stroke-opacity:1;stop-color:#000000;stop-opacity:1"
       d="m 103.25862,34.878465 c -7.053163,-2.8408 -14.989016,-3.670418 -22.411353,-1.799412 -8.508393,2.144777 -15.870921,7.708607 -21.086378,14.666414 -6.916025,9.22649 -10.6553,20.913404 -9.922537,32.449955 0.346626,5.457241 8.066826,11.665183 4.358858,15.700136 -8.807049,9.583692 -15.258121,21.513302 -17.626065,34.362392 -1.663809,9.02827 -1.073278,18.63844 2.720831,27.09058 3.183276,7.0914 8.787914,12.93921 15.453387,16.88353 4.507696,2.66745 9.307912,5.67922 14.535096,5.7822 9.09242,0.17912 18.057625,-2.168 26.369173,-5.73497 14.608818,-6.2695 27.608878,-15.83207 42.610708,-21.25973 7.76214,-2.80834 16.67638,-0.65072 24.32251,-3.8199 4.88405,-2.02434 9.7766,-4.4846 13.44744,-8.38494 2.27508,-2.41731 3.79078,-5.69563 3.54304,-9.07145 -0.29496,-4.01914 -2.58518,-7.58531 -5.26697,-10.45583 -4.56428,-4.88551 -10.28092,-8.56124 -16.25657,-11.46995 -6.00892,-2.9249 -14.06039,-1.78634 -18.97807,-6.33371 -3.38686,-3.13182 -5.77872,-7.404835 -6.28171,-12.031597 -0.61963,-5.699579 1.11901,-11.335785 3.27041,-16.542255 3.93843,-9.53115 9.68928,-18.258674 12.93583,-28.080131 1.63709,-4.952547 2.50291,-10.403905 0.9983,-15.512172 -1.47484,-5.007246 -5.62891,-8.489355 -9.48702,-11.854143 -1.23382,-1.076061 -2.71948,-1.488857 -4.33593,-1.635604 -6.24274,-0.566738 -12.4906,1.282335 -17.90287,4.316774 -5.75915,3.228912 -10.77714,7.690748 -15.01011,12.733813 z"
       id="path1"
       inkscape:path-effect="#path-effect1"
       inkscape:original-d="M 103.25862,34.878465 C 65.742849,20.028099 38.704693,67.034023 54.19721,95.895558 28.6712,123.5683 25.867202,169.27667 69.280459,180.01426 c 35.119351,0.52714 56.781101,-32.72519 93.302391,-30.8146 39.93296,-16.20161 0.17084,-41.87988 -23.51113,-45.71588 -25.77447,-24.428937 37.01537,-62.821676 -0.65805,-85.358753 -13.70352,-2.435874 -26.79552,6.747818 -35.15505,16.753438 z"
       transform="matrix(0.40652823,1.1079231,-1.026706,0.37672738,166.35965,-56.572697)" /><path
       style="fill:#1a1a1a;stroke-width:0.349999;paint-order:stroke fill markers"
       id="path2"
       d="m 93.767541,89.151393 c -1.980967,1.854787 -2.684968,4.327556 -3.149666,6.912591 -0.101714,1.995882 0.09041,4.268976 1.641194,5.744866 0.824019,0.78422 1.43959,0.85107 2.481009,1.18575 3.414207,0.42525 6.207972,-0.71227 9.038192,-2.50466 1.42312,-1.156576 2.59062,-2.576288 3.0197,-4.39592 0.17057,-0.723334 0.15493,-1.405935 0.17639,-2.140125 -0.0798,-1.571591 -0.17199,-3.275743 -1.21533,-4.549772 -0.18978,-0.23173 -0.42401,-0.423167 -0.63601,-0.634749 -2.01745,-1.454962 -4.57288,-1.635559 -6.97119,-1.882693 -0.444781,0.0016 -0.889561,0.0031 -1.334342,0.0046 -3.9e-5,10e-6 1.06e-4,5.29e-4 1.49e-4,5.29e-4 v 0 c 0.444597,-0.0013 0.889195,-0.0027 1.333793,-0.004 2.39807,0.247195 4.95332,0.427599 6.97066,1.88227 0.21197,0.211529 0.44616,0.402915 0.6359,0.63459 1.04327,1.273815 1.13535,2.977827 1.21524,4.549187 -0.0214,0.734047 -0.006,1.416675 -0.17628,2.139866 -0.42899,1.819436 -1.59641,3.239002 -3.01934,4.395467 -2.82986,1.79214 -5.623333,2.92969 -9.037114,2.50466 -1.041186,-0.33456 -1.656837,-0.40144 -2.480696,-1.18544 -1.550707,-1.47569 -1.742832,-3.748632 -1.641134,-5.744318 0.464661,-2.584929 1.168575,-5.057526 3.149224,-6.91244 1.9e-5,-2.4e-5 -2.64e-4,-2.65e-4 -2.64e-4,-2.65e-4 z" /><path
       style="fill:#1a1a1a;stroke-width:0.349999;paint-order:stroke fill markers"
       id="path3"
       d="m 93.224852,84.90392 c -2.045788,0.967153 -3.46964,2.935515 -4.321451,4.987422 -0.24266,0.584542 -0.397226,1.201873 -0.595839,1.80281 -0.345355,2.030254 -0.889621,4.561002 0.321808,6.447645 0.604173,0.940922 1.12935,1.043728 2.078344,1.521415 0.497848,0.0833 0.989177,0.229788 1.493544,0.249893 3.221191,0.128415 6.141048,-1.472065 8.728922,-3.186914 1.14323,-1.039754 3.1104,-2.458603 2.87044,-4.281305 -0.0325,-0.246853 -0.18638,-0.461772 -0.27957,-0.692658 -1e-5,-3.1e-5 -5.3e-4,1.14e-4 -5.3e-4,1.46e-4 v 0 c 0.0931,0.230822 0.24693,0.445693 0.27935,0.69247 0.23938,1.822323 -1.72759,3.24095 -2.87056,4.280503 -2.587488,1.714614 -5.50703,3.315003 -8.727758,3.186822 -0.504299,-0.02008 -0.995572,-0.166479 -1.493356,-0.249719 -0.948775,-0.477483 -1.473986,-0.580287 -2.07803,-1.52095 -1.211373,-1.886439 -0.66702,-4.417044 -0.321765,-6.447091 0.198591,-0.600903 0.353145,-1.218197 0.595776,-1.802707 0.851707,-2.051809 2.275353,-4.020037 4.320881,-4.987385 2.9e-5,-2.1e-5 -2.65e-4,-5.29e-4 -2.65e-4,-5.29e-4 z" /><path
       style="fill:#1a1a1a;stroke-width:0.349999;paint-order:stroke fill markers"
       id="path4"
       d="m 91.512579,88.240678 c -0.395737,0.05949 -0.80187,0.07051 -1.187214,0.178478 -3.158993,0.885129 -6.018583,3.101316 -7.869597,5.781542 -0.575969,0.833991 -0.964415,1.78298 -1.446623,2.67447 -0.325583,0.98045 -0.755116,1.93231 -0.976749,2.941354 -0.600221,2.732658 -0.338238,5.693778 1.017011,8.170928 1.155742,2.11248 1.814377,2.37092 3.628522,3.88473 0.748167,0.35572 1.464879,0.78702 2.244505,1.06714 3.409069,1.22487 7.414938,1.1031 10.853111,0.0342 0.663598,-0.20632 1.298043,-0.4968 1.947063,-0.7452 2.849742,-1.41049 5.219512,-3.56204 6.697842,-6.39746 0.24765,-0.475 0.43379,-0.97961 0.65068,-1.46941 1.11792,-3.15806 0.83503,-6.474949 0.0873,-9.674191 -0.61939,-2.237007 -1.761,-5.42119 -4.09555,-6.418942 -0.91075,-0.389242 -1.95572,-0.314796 -2.93358,-0.472197 -0.320976,-0.232925 -3.615073,4.306359 -3.294096,4.539287 v 0 c 0.193963,0.405958 0.311899,0.857978 0.581893,1.217877 0.166484,0.221922 0.461171,0.308759 0.685662,0.47176 0.949166,0.68919 1.018321,1.113502 1.403289,2.223154 0.310724,1.197427 1.002562,3.533899 0.850222,4.744212 -0.0291,0.23124 -0.1186,0.45079 -0.1779,0.67618 -0.717491,1.3493 -1.620631,3.00374 -3.058792,3.7179 -0.344535,0.17108 -0.727419,0.25052 -1.091128,0.37578 -1.598351,0.39956 -1.097574,0.32156 -2.876931,0.5471 -0.527712,0.0669 -1.088917,-0.0126 -1.585976,0.17681 -0.15625,0.0595 0.585046,0.21474 0.425688,0.26538 -0.657373,0.2089 -1.931001,-0.0908 -2.569162,-0.20133 -0.669973,-0.15775 -1.255956,-0.14686 -1.695091,-0.76589 -1.171942,-1.65203 -0.331975,-4.17656 0.161166,-5.877968 0.771078,-1.440191 1.203545,-2.340401 2.137381,-3.699735 1.220507,-1.776624 2.753706,-3.342362 3.826438,-5.218046 0.194302,-0.165423 -2.145109,-2.913295 -2.339414,-2.747873 z" /><path
       style="fill:#1a1a1a;stroke-width:0.349999;paint-order:stroke fill markers"
       id="path5"
       d="m 100.03115,79.113694 c -2.174966,-1.087403 -2.875207,-3.000962 -2.878294,-5.318469 0.03893,-2.397265 1.240387,-4.335243 2.865334,-5.999329 1.47424,-1.50032 2.38446,-3.335547 3.30322,-5.194094 0.60721,-2.201169 2.25543,-3.620815 3.68013,-5.283149 2.48739,-1.768153 4.21345,-4.199697 5.91638,-6.674334 1.67742,-2.420388 3.98576,-4.278906 5.95492,-6.461401 2.92589,-3.407711 5.37834,-7.168684 7.79267,-10.94586 2.70145,-4.031913 5.33147,-8.108642 7.45637,-12.480368 1.35085,-3.035504 3.00088,-5.943424 2.33423,-9.332742 -1.18093,-0.447981 -2.28086,-1.290806 -3.54279,-1.343943 -0.54381,-0.0229 -0.7938,0.746193 -1.16338,1.145776 -1.37884,1.490816 -2.09464,3.759502 -2.92162,5.573666 -2.34745,5.179961 -2.97658,10.543309 -3.36704,16.13941 -0.23067,4.841214 -0.36191,9.711478 -0.006,14.548324 0.56337,4.336938 1.1662,8.674306 1.28184,13.050459 -0.17865,3.081271 0.0928,6.185003 -0.41972,9.238575 -0.32131,1.446654 -0.31491,2.999898 -1.22023,4.244244 -0.31286,0.430017 -0.73655,0.7673 -1.09962,1.155859 -1.43515,0.973923 -2.37618,2.651289 -3.98827,3.349482 -0.2446,0.123905 -0.47197,0.290336 -0.73381,0.371711 -0.3396,0.105539 -1.29256,0.07285 -1.59398,0.115689 -1.30471,0.185449 -2.58573,0.528254 -3.83551,0.931389 -0.41151,0.107256 -0.81972,0.228065 -1.23452,0.321767 -1.06379,0.240303 -2.14065,0.416121 -3.2336,0.38915 -1.71958,-0.04243 -1.55316,-0.04295 -0.93536,-0.10467 -0.9344,0.04365 -1.83928,-0.416239 -2.77004,-0.373858 -0.75832,0.03453 -1.48915,0.301402 -2.24157,0.401976 -0.77499,0.103589 -1.55749,0.139948 -2.33623,0.209923 -0.17058,-0.08956 -1.4371,2.322769 -1.266524,2.412325 v 0 c 0.527774,0.440515 1.063034,0.872218 1.583324,1.321543 0.54859,0.473758 0.99356,1.087681 1.62288,1.44734 0.50389,0.287981 3.09356,0.733317 3.6048,0.831062 3.49415,0.07856 6.89281,0.01021 10.19649,-1.280499 2.45315,-0.625406 5.03496,-0.938064 7.14191,-2.472079 1.78936,-1.287198 3.38966,-2.81654 4.98491,-4.333737 2.27768,-2.558021 3.0795,-4.876416 3.56257,-8.227296 0.37799,-3.314035 0.62588,-6.659919 0.7324,-9.992262 0.0408,-4.54979 -0.33625,-9.055242 -1.11198,-13.541843 -0.54474,-4.518787 -0.47287,-9.057259 -0.0745,-13.589325 0.41924,-5.016312 0.82783,-10.031205 2.33106,-14.872254 0.57215,-2.034662 0.4839,-1.630633 0.92005,-3.478754 0.0675,-0.286122 0.11082,-0.57829 0.19277,-0.860618 0.0613,-0.211262 0.42489,-0.503703 0.23593,-0.61633 -1.11015,-0.66168 -2.65655,8.306601 -3.7163,-1.105173 -0.008,-0.137771 0.1063,-0.371868 -0.0254,-0.413314 -0.0677,-0.0213 -0.19061,0.427522 -0.59948,1.294401 -0.82887,1.757375 -1.6302,3.524226 -2.45157,5.285977 -2.2192,4.137324 -4.38864,8.327686 -7.14501,12.14097 -2.26646,3.589774 -4.38913,7.281272 -7.00675,10.634908 -1.97096,2.31857 -4.0195,4.57291 -5.82642,7.025381 -1.68597,2.304791 -3.60047,4.407201 -5.53297,6.507226 -1.6353,1.89856 -3.10849,3.870563 -3.751446,6.342647 -0.668001,1.620015 -1.4019,3.133775 -2.739228,4.327292 -2.149774,2.421768 -3.789635,5.06131 -3.68835,8.438123 0.416337,3.713774 1.467138,6.753858 5.480343,7.707374 0.184431,0.09071 1.467321,-2.517553 1.282881,-2.608268 z" /><path
       style="fill:#1a1a1a;stroke-width:0.349999;paint-order:stroke fill markers"
       id="path6"
       d="m 114.95145,91.591515 c 1.92855,-0.675357 3.73591,-1.710182 5.79401,-1.957369 1.56889,-0.188433 2.14826,-0.01998 3.78266,0.156782 4.07976,0.581758 8.18439,0.962903 12.30258,1.166884 4.59537,0.446458 9.1745,1.06581 13.79725,1.071694 4.7063,-0.01167 9.39532,-0.272224 14.10114,-0.148833 4.6041,0.168106 9.19737,0.0977 13.69888,-0.963745 0.90447,-0.193834 1.77741,-0.590735 2.69706,-0.728107 0.12312,-0.01839 0.49768,-0.0019 0.37336,-0.008 -1.26917,-0.06373 -0.79873,0.194844 -1.38265,-0.218358 -0.24063,-1.370015 -0.48126,-2.740028 -0.72189,-4.11004 0.0182,-0.09557 0.11611,-0.211267 0.0547,-0.286708 -0.11517,-0.14142 -0.31313,-0.196607 -0.48865,-0.246179 -0.37407,-0.105651 -0.78058,-0.08306 -1.14602,-0.215508 -0.0658,-0.02387 0.10151,-0.09645 0.15226,-0.144674 -0.5671,-0.04302 -1.1342,-0.08604 -1.7013,-0.129059 -4.38818,-0.129815 -8.77595,0.04944 -13.08611,0.945645 -0.5161,0.107312 -6.03173,1.559607 -6.64928,1.721466 -4.70347,1.530853 -9.55567,2.624503 -13.81615,5.21639 -3.14583,2.151211 -4.81674,5.517669 -6.69927,8.695204 -1.6391,2.43367 -3.2736,2.55493 -5.76435,3.68269 -1.52123,0.45961 -2.78438,1.48043 -4.2188,2.11574 -0.971,0.43006 -2.1195,0.49726 -3.15225,0.66511 -1.23586,-0.0923 -2.61473,0.38163 -3.84304,0.1346 -0.27298,-0.0549 0.77116,0.17815 0.83004,-0.094 0.0559,-0.25832 -0.5156,-0.12246 -0.76323,-0.21482 -0.40195,-0.14991 -0.78761,-0.34032 -1.18142,-0.51047 -2.76703,-1.66924 -4.91436,-4.07748 -6.63,-6.78278 -1.12976,-1.548244 -1.60983,-3.302998 -2.11515,-5.117407 0.0348,-0.229008 -3.20383,-0.721659 -3.23867,-0.492652 v 0 c -1.90355,3.614476 -2.4631,4.567029 -1.48786,8.731079 0.39753,0.77271 0.72745,1.58413 1.1926,2.31813 1.96707,3.10402 5.06136,5.53529 8.19693,7.3396 0.57282,0.25292 2.95966,1.33514 3.46657,1.42912 2.80935,0.52083 5.68066,0.32953 8.45223,-0.24822 3.12308,-0.72828 5.67372,-1.87439 8.49883,-3.35605 3.4531,-1.43492 6.54558,-3.27015 8.3608,-6.69547 1.09193,-2.26274 2.28429,-4.553158 4.47277,-5.941834 4.20582,-1.741448 8.74929,-2.352265 13.09488,-3.656799 3.03607,-0.812776 6.0739,-1.698402 9.15676,-2.321851 1.64046,-0.331753 3.32885,-0.407738 4.95885,-0.787537 0.0996,-0.0232 0.12594,-0.161102 0.18891,-0.241655 2.45335,-0.09459 5.09395,0.17948 7.39738,-0.83929 0.30697,-0.135768 0.83511,-0.159644 0.8783,-0.492508 0.18796,-1.448554 -0.16447,-2.916759 -0.24671,-4.37514 -1.8807,-0.907513 -4.22703,-0.09557 -6.23208,-0.09961 -4.3998,0.300506 -8.7872,0.163314 -13.19503,0.286044 -3.62993,0.212399 -7.26059,0.421367 -10.89782,0.452678 -4.57293,-0.165695 -9.13384,-0.361992 -13.68294,-0.899541 -5.17151,-0.261495 -10.31903,-0.989827 -15.5058,-0.881615 -3.88684,0.617212 -7.87319,1.503143 -10.6958,4.468386 -0.18446,0.186857 2.4581,2.795439 2.64255,2.60858 z" /><path
       style="fill:#1a1a1a;stroke-width:0.349999;paint-order:stroke fill markers"
       id="path7"
       d="m 101.02388,118.13486 c 0.79196,2.20895 2.06038,4.25378 2.6435,6.53905 0.38865,1.52316 0.39852,2.6141 0.51443,4.17751 -0.32956,5.35294 -2.80593,10.21923 -4.633756,15.16973 -2.701424,6.80107 -4.061097,13.95268 -5.236175,21.14123 -1.719988,9.05953 -3.088944,18.14755 -2.71893,27.3852 0.303546,3.34101 -0.187679,6.11579 4.90904,3.5203 0.484513,-0.24674 0.203573,-1.06862 0.280132,-1.60693 0.115705,-0.81352 0.197652,-1.63148 0.296479,-2.44723 0.456026,-6.66719 0.92565,-13.34192 1.29979,-20.01662 0.344082,-4.80248 0.499396,-9.76199 -0.585338,-14.4932 -0.215564,-0.94022 -0.537374,-1.85287 -0.806058,-2.77931 -1.611395,-5.27679 -4.603539,-9.89351 -7.362857,-14.60756 -2.193983,-3.36933 -4.286885,-6.97856 -5.216546,-10.92214 -0.333158,-2.57098 -0.157131,-3.89693 2.451859,-4.69385 2.441281,-0.24574 4.452752,-1.33783 6.334072,-2.83158 0.163259,-0.0528 -0.582935,-2.36156 -0.746191,-2.30879 v 0 c -0.878485,-0.24201 -1.729544,-0.6279 -2.635454,-0.72604 -2.190265,-0.23728 -4.254121,0.78312 -6.214533,1.55866 -0.584724,0.35938 -1.225952,0.63993 -1.754171,1.07815 -2.6049,2.1611 -3.49031,5.72956 -3.225949,8.95771 0.948037,4.78357 3.039581,8.38505 5.447144,12.57115 2.587667,4.30898 5.388867,8.52441 6.998748,13.33116 1.412872,5.06782 1.963769,10.21138 1.376561,15.4635 -0.714063,6.76774 -1.550824,13.58418 -0.758148,20.38688 0.08727,0.82756 0.15489,1.65744 0.261805,2.4827 0.07478,0.57722 -0.209899,1.41359 0.28307,1.72304 4.985134,3.12935 4.840227,-0.06 5.448742,-3.49381 0.910958,-8.93371 2.033177,-17.83938 3.193014,-26.74396 0.32625,-2.65632 0.55421,-5.32591 0.96013,-7.97123 0.64394,-4.1965 1.84239,-8.2811 3.15369,-12.30895 2.02535,-5.59111 4.16631,-11.18832 3.97838,-17.24516 -0.64013,-4.81064 -1.86064,-8.33208 -5.27057,-11.8896 -0.11313,-0.1885 -2.77904,1.41148 -2.66591,1.59999 z" /><path
       style="fill:#1a1a1a;stroke-width:0.349999;paint-order:stroke fill markers"
       id="path8"
       d="m 68.369145,116.0622 c 0.628941,2.78537 2.492642,5.7674 1.26515,8.60724 -0.216016,0.20587 -0.403146,0.44711 -0.648047,0.6176 -2.343838,1.63165 -6.648061,2.78032 -9.373957,3.61171 -6.815537,2.19073 -12.893871,5.81245 -18.705544,9.91262 -5.281165,4.32523 -10.507546,8.90249 -14.590199,14.42258 -0.681104,0.92091 -1.256767,1.91532 -1.885151,2.87298 -0.791538,1.36157 -3.792392,6.69987 -0.567494,7.87605 2.130287,0.77695 3.298272,-0.92674 4.383892,-2.08132 3.349455,-4.45584 5.719286,-9.56174 8.130947,-14.56326 2.394201,-5.11072 4.656738,-10.31591 6.035746,-15.79889 1.261976,-5.63374 1.801617,-11.36326 3.27143,-16.95818 1.239343,-4.81597 2.674433,-7.41887 6.61342,-10.38863 0.697478,-0.24167 1.339871,-0.58596 2.111962,-0.41675 0.09992,0.0219 -0.319699,0.15871 -0.228436,0.20492 0.45852,0.23219 0.992068,0.27057 1.480902,0.42929 1.883844,0.6117 1.953898,0.68811 3.754168,1.45532 2.961658,1.2543 5.060182,3.56149 7.079302,5.96544 0.786437,1.55322 1.855804,2.69781 3.129262,3.85044 0.05347,0.23226 3.338158,-0.52395 3.284685,-0.75621 v 0 c 0.451578,-3.40581 0.485712,-3.49848 -1.605732,-6.32363 -2.496135,-2.90886 -5.036257,-5.88364 -8.417301,-7.79468 -4.862904,-2.216852 -9.904597,-3.764482 -14.90264,-0.906966 -1.563851,1.148486 -2.333194,1.597606 -3.670006,3.091986 -2.601492,2.90813 -4.108127,6.51672 -5.212874,10.20961 -0.671404,2.79146 -0.852334,3.31894 -1.317672,6.14231 -0.455867,2.7659 -0.616461,5.56775 -1.052516,8.3343 -0.13036,0.82706 -0.318894,1.6439 -0.47834,2.46586 -1.511194,5.12368 -3.492857,10.04942 -5.864463,14.83917 -2.239272,4.7216 -4.263278,9.54938 -6.339867,14.34144 -0.954713,1.95975 -0.02146,-0.55746 1.756812,0.84041 0.659443,0.51838 0.488371,1.62295 0.919941,2.34221 0.09074,0.15122 2.761483,-3.50179 2.783819,-3.45731 4.651949,-5.81595 9.741757,-11.37968 15.703148,-15.88058 1.802175,-1.35307 4.258019,-3.25 6.169948,-4.48333 3.386926,-2.18482 7.122091,-3.80109 10.784358,-5.45202 4.279937,-1.66939 8.886013,-3.25536 11.350109,-7.42247 0.200697,-0.63053 0.492578,-1.23902 0.602094,-1.8916 0.543467,-3.23839 -0.949222,-6.56044 -2.926117,-9.01702 -0.08198,-0.19974 -2.906718,0.95962 -2.824739,1.15936 z" /><path
       style="fill:#1a1a1a;stroke-width:0.349999;paint-order:stroke fill markers"
       id="path9"
       d="m 73.432307,88.529426 c -3.459853,1.435156 -6.574457,2.811568 -10.385978,2.81945 -0.180869,-0.119734 -0.361739,-0.239469 -0.542608,-0.359203 -0.499549,-0.21272 -1.038868,-0.349361 -1.498645,-0.638154 -2.370058,-1.488665 -3.804322,-4.331571 -5.072025,-6.70065 -0.616093,-1.58257 -1.233133,-2.931824 -1.532475,-4.616108 C 53.779933,75.542644 54.029652,71.762484 54.116771,68.236647 54.745305,61.032516 54.418285,53.820692 53.596523,46.652113 52.536206,40.517402 51.57471,33.40858 47.704933,28.269742 47.298556,27.730098 46.75919,27.304854 46.286319,26.822413 c -5.804577,-3.230124 -6.100686,2.481667 -5.50717,6.291971 1.359498,5.428348 3.58249,9.345742 7.074868,13.693476 4.437629,5.387666 9.939838,8.513456 16.031361,11.614444 3.393953,1.425323 6.380226,3.397559 8.994656,5.96801 2.586805,2.54389 4.073305,5.789165 5.680046,8.972809 1.311777,2.887046 1.82083,6.007817 1.099735,9.101249 -0.876871,2.332516 -0.360175,1.079651 -1.596072,3.739306 -0.132099,0.209825 2.835272,2.077971 2.96737,1.868146 v 0 c 3.102163,-2.770164 1.808065,-1.223933 3.937588,-4.591844 0.170902,-0.755406 0.412877,-1.498184 0.512707,-2.266222 0.434922,-3.34609 -0.618213,-6.826919 -1.716059,-9.933731 C 82.006275,67.535744 80.073899,63.869056 77.071367,60.947969 74.090238,58.280691 71.165206,55.578218 67.616445,53.651488 62.386725,50.717754 57.07834,47.839225 52.98618,43.329783 49.906631,39.998186 47.183696,36.49791 45.552375,32.214026 c -0.48361,-1.439167 -0.337873,-0.809911 -0.573249,-2.231123 -0.03037,-0.183359 0.0814,-0.467283 -0.08447,-0.551138 -0.294371,-0.148817 -1.877457,1.455502 -2.683018,-0.06443 2.82984,5.588796 3.616753,11.966136 4.977045,18.007438 1.066482,6.845509 1.649894,13.801892 1.412065,20.734099 -0.181599,5.99916 -0.147584,12.163214 2.585014,17.662367 1.856176,3.339576 3.85255,6.35482 7.25732,8.31026 0.720793,0.41397 1.463328,0.831332 2.26982,1.032534 1.167405,0.291243 2.389405,0.285263 3.584104,0.427892 0.795055,-0.0613 1.60137,-0.03715 2.385166,-0.183893 3.414985,-0.639337 6.647201,-2.569604 8.970079,-5.106638 0.121761,-0.156972 -2.098183,-1.878939 -2.219944,-1.721968 z" /><path
       style="fill:#1a1a1a;stroke-width:0.349999;paint-order:stroke fill markers"
       id="path10"
       d="m 143.62988,72.603838 c 5.97948,-3.301082 10.26162,-8.892463 14.30463,-14.247082 3.24022,-4.880004 6.33306,-9.991865 8.02692,-15.643672 0.35471,-1.183582 0.72215,-2.379591 0.84588,-3.608972 0.0948,-0.941438 -0.13179,-1.887792 -0.19769,-2.83169 -0.36245,-0.609772 -0.72489,-1.219547 -1.08734,-1.829321 -0.004,-0.12804 -1.81437,-0.07681 -1.81075,0.05123 v 0 c -0.32997,0.354455 -0.65994,0.708909 -0.98991,1.063363 -0.43303,0.725877 -0.93799,1.413423 -1.29909,2.177632 -1.02492,2.169004 -1.68992,4.494065 -2.67819,6.680004 -1.70921,3.780595 -3.73967,7.41421 -6.0315,10.871359 -3.71857,5.23259 -7.74076,10.235438 -11.65963,15.318481 -0.14132,0.182197 2.43535,2.18087 2.57667,1.99867 z" /><path
       style="fill:#1a1a1a;stroke-width:0.349999;paint-order:stroke fill markers"
       id="path11"
       d="m 143.12164,76.261761 c 7.63649,-0.14369 14.79837,-3.514249 21.74739,-6.353569 6.15539,-3.009726 12.42688,-6.0183 17.79712,-10.341893 0.89412,-0.719865 1.8302,-1.418694 2.55522,-2.308649 0.53978,-0.662572 0.78661,-1.517467 1.17991,-2.276202 0.11375,-0.511895 0.2275,-1.023792 0.34125,-1.535689 0.0837,-0.164381 -2.24103,-1.347648 -2.3247,-1.183267 v 0 c -0.28229,0.119099 -0.56458,0.238199 -0.84687,0.357298 -0.70893,0.253722 -1.44477,0.442095 -2.12679,0.761162 -0.47244,0.221025 -6.51263,3.608022 -6.53346,3.619346 -4.62587,2.513793 -9.32495,4.891778 -13.99919,7.313229 -4.05302,2.118397 -8.11476,4.210436 -12.26905,6.125898 -0.96641,0.445587 -1.94733,0.858999 -2.92099,1.288497 -0.78554,0.321243 -1.58293,0.61492 -2.35663,0.963731 -0.50803,0.229039 -0.98992,0.512109 -1.48488,0.768162 -0.19813,0.0878 1.04354,2.889745 1.24167,2.801946 z" /><path
       style="fill:#1a1a1a;stroke-width:0.349999;paint-order:stroke fill markers"
       id="path12"
       d="m 140.68638,76.721443 c 5.61738,3.465337 12.24455,4.275166 18.68592,4.817903 6.70434,0.448921 13.39829,-0.02882 20.04396,-0.830186 1.22612,-0.530428 0.75763,-0.05215 0.70385,-1.881124 0.024,0.12273 1.75967,-0.216918 1.73566,-0.339648 v 0 c -0.13101,-2.176925 0.38446,-1.472184 -0.94814,-2.441802 -6.34627,-1.620481 -13.20998,-0.432208 -19.6838,-0.56999 -6.2913,-0.135979 -12.53703,-0.58131 -18.76095,-1.52093 -0.19557,-0.125619 -1.97207,2.64016 -1.7765,2.765777 z" /><path
       style="fill:#1a1a1a;stroke-width:0.349999;paint-order:stroke fill markers"
       id="path13"
       d="m 181.07341,67.748162 c -2.16149,3.895358 -3.31913,8.974217 -1.57654,13.289259 0.42451,1.051187 1.1756,1.938758 1.76341,2.908139 0.89287,0.694444 1.66412,1.583047 2.67861,2.083337 3.74704,1.847831 8.47708,1.078806 11.63236,-1.538566 2.72037,-2.256599 2.7462,-3.39427 4.05056,-6.533038 0.19533,-3.069363 0.80908,-4.911064 -1.06441,-7.723153 -2.87244,-4.311521 -8.18976,-4.968462 -12.78984,-3.52116 -1.16136,0.365392 -2.06301,1.293458 -3.09452,1.940187 -0.16789,0.106206 1.33411,2.480479 1.502,2.37427 v 0 c 3.01567,-0.427754 8.33255,-1.206672 9.35897,2.886922 0.17368,0.692692 0.0417,1.42766 0.0625,2.14149 -0.6176,1.930183 -0.48541,2.345822 -2.03845,3.799403 -0.49541,0.463688 -1.16208,0.707792 -1.69299,1.130377 -0.17731,0.141137 -0.19409,0.471678 -0.40923,0.542925 -1.35788,0.449694 -1.81826,0.03786 -3.03074,-0.428157 -0.35789,-0.414652 -0.8307,-0.753046 -1.07365,-1.243954 -1.53517,-3.102004 -0.3795,-7.480906 -0.29726,-10.790738 0.0932,-0.281487 -3.88764,-1.599028 -3.98081,-1.317543 z" /><path
       style="fill:#1a1a1a;stroke-width:0.349999;paint-order:stroke fill markers"
       id="path14"
       d="m 187.98426,43.163942 c -4.93455,1.559846 -9.02133,5.699826 -9.7709,10.981139 -0.15241,1.073857 0.0277,2.16906 0.0416,3.253592 0.44677,1.017574 0.67679,2.161207 1.34031,3.052726 3.45281,4.639249 10.63296,3.7915 14.84183,0.775626 1.16801,-0.836941 2.04564,-2.018467 3.06846,-3.027701 1.84144,-3.354938 2.94256,-4.261602 2.71756,-8.313349 -0.0779,-1.402051 -0.71403,-2.716133 -1.07105,-4.0742 -0.0221,-0.299508 -4.25783,0.01336 -4.23571,0.312862 v 0 c -0.46974,2.85981 -0.90845,5.656982 -2.56443,8.12836 -3.68749,3.911539 0.0246,0.288272 -4.12947,3.467063 -0.26607,0.203602 -0.34979,0.632306 -0.66051,0.757584 -0.807,0.325358 -2.41904,0.387744 -3.23887,-0.117144 -0.38673,-0.238168 -0.58343,-0.69623 -0.87515,-1.044345 -0.0191,-0.657423 -0.13631,-1.319342 -0.0572,-1.972273 0.47773,-3.945189 3.55679,-6.600793 6.44506,-8.958159 0.22781,-0.130921 -1.6237,-3.352702 -1.85151,-3.221781 z" /><path
       style="fill:#1a1a1a;stroke-width:0.349999;paint-order:stroke fill markers"
       id="path15"
       d="m 169.72148,25.400575 c -4.72744,0.227541 -10.44683,2.34281 -11.98207,7.367711 -0.32535,1.064887 -0.1713,2.220359 -0.25695,3.330538 0.46613,1.104881 0.66374,2.366846 1.3984,3.314647 4.48619,5.787731 14.12984,4.381756 19.03767,0.02593 1.29662,-1.150774 2.08484,-2.770455 3.12726,-4.155681 0.0728,-1.608386 0.14566,-3.216772 0.2185,-4.825159 0.0584,-0.271057 -3.77488,-1.097338 -3.83331,-0.826283 v 0 c -0.53292,0.737047 -1.06583,1.474092 -1.59875,2.211139 -3.43215,3.537775 -1.17219,1.597686 -5.55992,4.425069 -0.61217,0.394472 -1.11052,1.012341 -1.80537,1.230408 -1.23607,0.387924 -3.86331,0.453789 -5.18919,-0.144124 -0.46401,-0.209249 -0.73894,-0.700244 -1.10841,-1.050364 -0.002,-0.483926 -0.15666,-0.991516 -0.007,-1.451774 1.16776,-3.595204 5.92343,-4.73841 8.88943,-6.21665 0.22878,-0.09405 -1.10136,-3.329472 -1.33014,-3.235417 z" /><path
       style="fill:#1a1a1a;stroke-width:0.349999;paint-order:stroke fill markers"
       id="path21"
       d="m 108.76824,132.12085 c 3.897,3.66882 8.04277,7.13951 11.35517,11.37681 0.84588,1.08208 1.57662,2.24942 2.36493,3.37413 3.64187,6.62448 4.65066,12.55937 3.41885,20.01964 -0.23436,1.41937 -0.61582,2.81051 -0.92373,4.21577 -0.26481,1.50268 -3.5643,10.47894 -1.55539,11.50534 0.51879,0.26506 1.16058,-0.10328 1.74087,-0.15491 -0.0969,-0.0667 -1.0398,1.30419 -0.94286,1.37086 v 0 c 1.63119,0.0487 2.7606,0.42771 4.09702,-0.8313 2.53503,-2.38818 3.31141,-7.40406 4.37503,-10.47413 0.36437,-1.65743 0.83611,-3.29485 1.09311,-4.97228 1.30774,-8.53552 -0.31246,-17.03742 -4.62222,-24.50067 -0.96034,-1.33204 -1.8297,-2.73466 -2.88104,-3.99612 -2.95818,-3.54939 -8.20264,-7.97698 -12.38198,-10.07718 -0.69478,-0.34915 -1.45751,-0.54239 -2.18626,-0.81358 -0.27985,-0.2087 -3.23134,3.74892 -2.9515,3.95762 z" /><path
       style="fill:#1a1a1a;stroke-width:0.349999;paint-order:stroke fill markers"
       id="path22"
       d="m 113.12185,131.29169 c 0.0613,0.14491 0.0543,0.34565 0.18402,0.43471 0.49879,0.34245 1.09213,0.52205 1.62552,0.80764 1.75634,0.94041 3.52141,1.8662 5.24756,2.86094 2.80046,1.61386 3.388,2.14098 6.05339,4.05664 5.87639,4.8521 10.55821,10.81677 14.69909,17.1628 3.45848,6.18876 5.06274,13.22242 6.50714,20.10968 1.17347,4.06909 0.45462,2.14282 2.11088,5.79565 0.0306,0.28104 4.00523,-0.15232 3.97459,-0.43336 v 0 c 0.63459,-4.16483 0.53319,-2.02381 0.23941,-6.4258 -0.45211,-2.35028 -0.7536,-4.7299 -1.26986,-7.06693 -1.15773,-5.24093 -3.06694,-10.37278 -5.62875,-15.0809 -4.47556,-6.99706 -9.32343,-13.93316 -16.08772,-18.91776 -5.55963,-3.58109 -11.61939,-7.17249 -18.49097,-6.55815 -0.23015,0.0591 0.60555,3.31394 0.8357,3.25484 z" /><path
       style="fill:#1a1a1a;stroke-width:0.349999;paint-order:stroke fill markers"
       id="path23"
       d="m 117.35007,131.26995 c 0.64949,0.0896 1.29533,0.21156 1.94847,0.2687 0.9517,0.0833 1.90976,0.075 2.86197,0.15217 4.93121,0.39972 9.84127,1.13489 14.69501,2.06489 5.24384,1.44037 10.27567,3.87665 14.05412,7.88287 1.77259,1.87945 2.80951,3.64931 4.2264,5.79146 3.10234,5.43158 6.8134,10.35111 11.30147,14.69569 0.68385,0.37349 2.57307,2.95626 3.78991,2.34175 0.70973,-1.14446 0.24236,-0.88964 1.11821,-1.14015 -0.0536,0.0242 0.28873,0.7817 0.3423,0.7575 v 0 c 0.47104,-0.11129 1.05195,-0.0117 1.41314,-0.33387 0.42355,-0.37784 0.57035,-0.99947 0.70076,-1.55187 0.3939,-1.66837 -1.23823,-2.90906 -2.16428,-3.99075 -0.19008,-0.21104 -3.00319,-3.33075 -3.13683,-3.49403 -2.70286,-3.30231 -4.70088,-7.11183 -6.86474,-10.76748 -1.76051,-2.64789 -2.86206,-4.49419 -4.9912,-6.9025 -4.50004,-5.09006 -10.27083,-8.49774 -16.86438,-10.12392 -7.87934,-1.39871 -16.4215,-2.47245 -23.99457,0.81968 -0.2496,0.1106 1.31464,3.64047 1.56424,3.52986 z" /><path
       style="fill:#1a1a1a;stroke-width:0.349999;paint-order:stroke fill markers"
       id="path24"
       d="m 167.97425,167.34823 c -0.97424,3.3138 -0.51885,6.93507 1.23027,9.93455 0.42069,0.72142 0.98822,1.34652 1.48233,2.01978 2.64184,2.58837 6.12377,4.35137 9.88298,2.73587 1.85927,-0.79901 2.32357,-2.48879 3.10681,-4.09682 1.13694,-5.18499 -0.0292,-9.25289 -3.28974,-13.32581 -2.90412,-2.64941 -6.03847,-2.7955 -9.54212,-1.20524 -2.02103,1.56337 -1.06823,0.63606 -2.79245,2.8481 -0.14107,0.12747 1.6615,2.12259 1.80258,1.99513 v 0 c 2.36732,-0.4325 1.21993,-0.25892 3.43996,-0.53505 0.48357,-0.0772 1.93984,-0.30216 1.95487,-0.33716 0.0964,-0.22458 -0.51731,-0.0229 -0.71356,-0.16853 -0.25095,-0.18627 2.21048,-0.22257 1.21954,0.39084 2.0174,2.4261 3.18028,5.50962 3.10564,8.68009 -0.0744,0.30948 -0.10834,0.63163 -0.22332,0.92845 -0.0756,0.19515 -0.35821,0.31888 -0.34059,0.52741 0.0145,0.17106 0.56182,0.22723 0.41135,0.30986 -1.30573,0.71701 -3.0092,-0.75624 -3.99394,-1.32507 -0.37386,-0.40503 -0.8013,-0.76651 -1.12159,-1.2151 -1.72554,-2.41676 -1.98637,-5.36868 -2.58806,-8.1613 0,-0.21432 -3.03096,-0.21432 -3.03096,0 z" /><path
       style="fill:#1a1a1a;stroke-width:0.349999;paint-order:stroke fill markers"
       id="path25"
       d="m 150.13929,182.75832 c -3.22431,2.31185 -5.30275,6.72634 -3.82721,10.67821 0.33039,0.88486 0.98705,1.61067 1.48058,2.41601 0.82897,0.54806 1.53643,1.35409 2.48691,1.64417 1.41612,0.43219 2.94666,0.63182 4.41761,0.46303 3.59329,-0.41232 7.05246,-3.89121 8.56964,-6.94758 0.57433,-1.15698 0.78434,-2.46142 1.17651,-3.69213 7.9e-4,-1.21654 0.21129,-2.45111 0.003,-3.64961 -0.68199,-3.91584 -3.28285,-6.79871 -7.29085,-7.3616 -2.54453,-0.35735 -5.28256,0.68176 -7.64221,1.33155 -0.21053,0.10381 1.25761,3.08121 1.46814,2.9774 v 0 c 0.50036,-0.094 0.99198,-0.27856 1.50107,-0.28195 2.12356,-0.0141 5.0636,0.99086 5.6001,3.36918 0.14984,0.66422 0.0263,1.36157 0.0394,2.04235 -0.67935,2.55071 -1.32379,4.37712 -3.37603,6.19227 -0.43659,0.38615 -1.02935,0.56774 -1.46421,0.95584 -0.15829,0.14126 -0.0609,0.50438 -0.25851,0.5816 -0.38644,0.15101 -0.82978,0.004 -1.24468,0.006 -0.31014,-0.27724 -0.72115,-0.47221 -0.93045,-0.83173 -1.44056,-2.47449 0.29162,-5.56454 1.52389,-7.68927 0.15581,-0.15784 -2.07643,-2.36139 -2.23225,-2.20354 z" /><path
       style="fill:#1a1a1a;stroke-width:0.349999;paint-order:stroke fill markers"
       id="path26"
       d="m 117.12951,182.82987 c -1.38049,3.5355 -1.60154,8.17294 0.86598,11.34649 0.52419,0.67418 1.26702,1.14535 1.90053,1.71803 0.97854,0.23993 1.92942,0.77154 2.93562,0.71981 4.93168,-0.25353 9.29194,-4.4221 11.05717,-8.83342 0.44214,-1.10487 0.56698,-2.3116 0.85047,-3.4674 -0.0499,-1.12172 0.0455,-2.25946 -0.1498,-3.36517 -0.74612,-4.22385 -3.94967,-7.03632 -8.07874,-7.79595 -0.89876,-0.16535 -1.82463,-0.10566 -2.73694,-0.15849 -4.97409,1.30536 -3.08511,0.118 -6.05205,2.85926 -0.21823,0.14755 1.86839,3.23369 2.08661,3.08615 v 0 c 2.12395,0.0806 1.47049,-0.3271 2.29186,0.29411 4.04051,-0.23275 5.67188,-0.79896 6.20574,3.95398 -0.39244,2.57607 -0.9361,4.57202 -2.58175,6.68909 -0.43486,0.55943 -1.0737,0.93948 -1.50295,1.50322 -1.46293,1.92125 1.72348,-0.51309 -1.31384,1.49398 -0.35229,-0.15206 -0.78522,-0.18519 -1.05688,-0.45617 -1.98372,-1.97875 -2.03821,-6.43145 -2.19817,-9.06091 0.0372,-0.17839 -2.48562,-0.705 -2.52286,-0.52661 z" /></g></svg>
